%
M48
M72
T01C0.0197
T02C0.0276
T03C0.0315
T04C0.0320
T05C0.0400
T06C0.0433
T07C0.0748
%
T01
X5295Y15848
X10122Y12208
X9647Y10388
X10676Y8568
X15028Y11180
X3606Y11095
X2921Y10072
X15309Y2109
T02
X13730Y5073
X13730Y6073
X8978Y16207
X8978Y17207
T03
X2861Y16463
X3551Y16463
X3861Y15843
X3191Y15843
X2491Y15843
T04
X8486Y19057
X9486Y19057
X11053Y18802
X12053Y18802
X13498Y18077
X14297Y16577
X15832Y15617
X17297Y16577
X13498Y15077
X13435Y14046
X13435Y13046
X15691Y11613
X15832Y12617
X10817Y16195
X10817Y17195
X15691Y8613
X15710Y7735
X15710Y6735
X16754Y4494
X16754Y1494
X14108Y1526
X13108Y1526
X5852Y2461
X4852Y2461
T05
X651Y1101
X651Y2101
X651Y3101
X651Y4101
X651Y6101
X651Y7101
X651Y8101
X651Y9101
X651Y11101
X651Y12101
X651Y13101
X651Y14101
X6687Y16195
X6687Y17195
X6687Y18195
X19151Y9101
X19151Y8101
X19151Y7101
X19151Y6101
X19151Y4101
X19151Y3101
X19151Y2101
X19151Y1101
X6950Y947
X5950Y947
X4950Y947
X3950Y947
X2950Y947
T06
X6801Y4534
X6801Y5518
X6801Y6502
X8691Y6101
X8691Y7101
X8691Y8101
X8691Y9101
X8691Y10101
X8691Y11101
X8691Y12101
X8691Y13101
X8691Y14101
X11691Y14101
X11691Y13101
X11691Y12101
X11691Y11101
X11691Y10101
X11691Y9101
X11691Y8101
X11691Y7101
X11691Y6101
X11691Y5101
X11691Y4101
X11691Y3101
X11691Y2101
X11691Y1101
X8691Y1101
X8691Y2101
X8691Y3101
X8691Y4101
X8691Y5101
X18584Y13916
X18584Y15884
X17391Y18676
X15423Y18676
T07
X1754Y17943
X4628Y17943
M30
