G75*
G70*
%OFA0B0*%
%FSLAX24Y24*%
%IPPOS*%
%LPD*%
%AMOC8*
5,1,8,0,0,1.08239X$1,22.5*
%
%ADD10C,0.0000*%
%ADD11C,0.0030*%
%ADD12C,0.0100*%
%ADD13C,0.0050*%
%ADD14C,0.0040*%
%ADD15C,0.0080*%
%ADD16C,0.0200*%
%ADD17C,0.0060*%
%ADD18R,0.0500X0.0750*%
%ADD19R,0.0300X0.0700*%
%ADD20R,0.0500X0.0300*%
%ADD21C,0.0120*%
D10*
X000151Y000101D02*
X000151Y019786D01*
X019836Y019786D01*
X019836Y000101D01*
X000151Y000101D01*
D11*
X001347Y000952D02*
X001396Y000903D01*
X001492Y000903D01*
X001541Y000952D01*
X001541Y001000D01*
X001492Y001048D01*
X001444Y001048D01*
X001492Y001048D02*
X001541Y001097D01*
X001541Y001145D01*
X001492Y001193D01*
X001396Y001193D01*
X001347Y001145D01*
X001642Y000952D02*
X001690Y000952D01*
X001690Y000903D01*
X001642Y000903D01*
X001642Y000952D01*
X001789Y000952D02*
X001838Y000903D01*
X001934Y000903D01*
X001983Y000952D01*
X001983Y001000D01*
X001934Y001048D01*
X001886Y001048D01*
X001934Y001048D02*
X001983Y001097D01*
X001983Y001145D01*
X001934Y001193D01*
X001838Y001193D01*
X001789Y001145D01*
X002084Y001193D02*
X002084Y001000D01*
X002181Y000903D01*
X002277Y001000D01*
X002277Y001193D01*
X002180Y001986D02*
X002035Y001986D01*
X002035Y002276D01*
X002180Y002276D01*
X002228Y002228D01*
X002228Y002034D01*
X002180Y001986D01*
X001934Y001986D02*
X001934Y002276D01*
X001740Y002276D02*
X001934Y001986D01*
X001740Y001986D02*
X001740Y002276D01*
X001639Y002228D02*
X001591Y002276D01*
X001494Y002276D01*
X001446Y002228D01*
X001446Y002034D01*
X001494Y001986D01*
X001591Y001986D01*
X001639Y002034D01*
X001639Y002131D01*
X001542Y002131D01*
X001591Y002970D02*
X001446Y002970D01*
X001446Y003260D01*
X001591Y003260D01*
X001639Y003212D01*
X001639Y003164D01*
X001591Y003115D01*
X001446Y003115D01*
X001591Y003115D02*
X001639Y003067D01*
X001639Y003018D01*
X001591Y002970D01*
X001740Y003018D02*
X001789Y002970D01*
X001885Y002970D01*
X001934Y003018D01*
X001934Y003115D01*
X001885Y003164D01*
X001837Y003164D01*
X001740Y003115D01*
X001740Y003260D01*
X001934Y003260D01*
X001885Y003954D02*
X001885Y004245D01*
X001740Y004099D01*
X001934Y004099D01*
X001639Y004099D02*
X001446Y004099D01*
X001446Y004148D02*
X001542Y004245D01*
X001639Y004148D01*
X001639Y003954D01*
X001446Y003954D02*
X001446Y004148D01*
X001544Y005923D02*
X001689Y005923D01*
X001738Y005971D01*
X001738Y006020D01*
X001689Y006068D01*
X001544Y006068D01*
X001544Y005923D02*
X001544Y006213D01*
X001689Y006213D01*
X001738Y006165D01*
X001738Y006116D01*
X001689Y006068D01*
X001839Y006068D02*
X001984Y006213D01*
X001984Y005923D01*
X002032Y006068D02*
X001839Y006068D01*
X001887Y006907D02*
X001839Y006955D01*
X001887Y006907D02*
X001984Y006907D01*
X002032Y006955D01*
X002032Y007004D01*
X001984Y007052D01*
X001936Y007052D01*
X001984Y007052D02*
X002032Y007101D01*
X002032Y007149D01*
X001984Y007197D01*
X001887Y007197D01*
X001839Y007149D01*
X001738Y007149D02*
X001689Y007197D01*
X001544Y007197D01*
X001544Y006907D01*
X001689Y006907D01*
X001738Y006955D01*
X001738Y007004D01*
X001689Y007052D01*
X001544Y007052D01*
X001689Y007052D02*
X001738Y007101D01*
X001738Y007149D01*
X001689Y007990D02*
X001544Y007990D01*
X001544Y008280D01*
X001689Y008280D01*
X001738Y008232D01*
X001738Y008183D01*
X001689Y008135D01*
X001544Y008135D01*
X001689Y008135D02*
X001738Y008087D01*
X001738Y008038D01*
X001689Y007990D01*
X001839Y007990D02*
X002032Y008183D01*
X002032Y008232D01*
X001984Y008280D01*
X001887Y008280D01*
X001839Y008232D01*
X001839Y007990D02*
X002032Y007990D01*
X002032Y008974D02*
X001839Y008974D01*
X001936Y008974D02*
X001936Y009264D01*
X001839Y009168D01*
X001738Y009168D02*
X001689Y009119D01*
X001544Y009119D01*
X001544Y008974D02*
X001689Y008974D01*
X001738Y009022D01*
X001738Y009071D01*
X001689Y009119D01*
X001738Y009168D02*
X001738Y009216D01*
X001689Y009264D01*
X001544Y009264D01*
X001544Y008974D01*
X001544Y010943D02*
X001689Y010943D01*
X001738Y010991D01*
X001738Y011039D01*
X001689Y011088D01*
X001544Y011088D01*
X001544Y010943D02*
X001544Y011233D01*
X001689Y011233D01*
X001738Y011184D01*
X001738Y011136D01*
X001689Y011088D01*
X001839Y011184D02*
X001887Y011233D01*
X001984Y011233D01*
X002032Y011184D01*
X001839Y010991D01*
X001887Y010943D01*
X001984Y010943D01*
X002032Y010991D01*
X002032Y011184D01*
X001839Y011184D02*
X001839Y010991D01*
X001839Y011927D02*
X002032Y011927D01*
X001936Y011927D02*
X001936Y012217D01*
X001839Y012120D01*
X001738Y012120D02*
X001738Y011927D01*
X001738Y012072D02*
X001544Y012072D01*
X001544Y012120D02*
X001641Y012217D01*
X001738Y012120D01*
X001544Y012120D02*
X001544Y011927D01*
X001640Y012985D02*
X001640Y013178D01*
X001544Y013275D01*
X001447Y013178D01*
X001447Y012985D01*
X001447Y013130D02*
X001640Y013130D01*
X001742Y013227D02*
X001790Y013275D01*
X001887Y013275D01*
X001935Y013227D01*
X001742Y013033D01*
X001790Y012985D01*
X001887Y012985D01*
X001935Y013033D01*
X001935Y013227D01*
X001742Y013227D02*
X001742Y013033D01*
X001740Y013969D02*
X001740Y014259D01*
X001643Y014162D01*
X001547Y014259D01*
X001547Y013969D01*
X001841Y014017D02*
X001841Y014211D01*
X001890Y014259D01*
X001986Y014259D01*
X002035Y014211D01*
X002136Y014259D02*
X002136Y013969D01*
X002329Y013969D01*
X002431Y013969D02*
X002431Y014259D01*
X002576Y014259D01*
X002624Y014211D01*
X002624Y014114D01*
X002576Y014066D01*
X002431Y014066D01*
X002527Y014066D02*
X002624Y013969D01*
X002035Y014017D02*
X001986Y013969D01*
X001890Y013969D01*
X001841Y014017D01*
X005375Y015210D02*
X005666Y015210D01*
X005666Y015404D01*
X005666Y015505D02*
X005666Y015650D01*
X005617Y015698D01*
X005424Y015698D01*
X005375Y015650D01*
X005375Y015505D01*
X005666Y015505D01*
X005666Y015800D02*
X005666Y015993D01*
X005666Y015896D02*
X005375Y015896D01*
X005472Y015800D01*
X005472Y016094D02*
X005375Y016191D01*
X005666Y016191D01*
X005666Y016094D02*
X005666Y016288D01*
X005666Y016389D02*
X005666Y016582D01*
X005666Y016486D02*
X005375Y016486D01*
X005472Y016389D01*
X005375Y016684D02*
X005375Y016877D01*
X005424Y016877D01*
X005617Y016684D01*
X005666Y016684D01*
X008154Y016709D02*
X008154Y016806D01*
X008203Y016854D01*
X008396Y016660D01*
X008444Y016709D01*
X008444Y016806D01*
X008396Y016854D01*
X008203Y016854D01*
X008251Y016955D02*
X008396Y016955D01*
X008444Y017003D01*
X008444Y017149D01*
X008251Y017149D01*
X008299Y017250D02*
X008299Y017346D01*
X008154Y017250D02*
X008154Y017443D01*
X008154Y017250D02*
X008444Y017250D01*
X008396Y016660D02*
X008203Y016660D01*
X008154Y016709D01*
X008154Y016463D02*
X008444Y016463D01*
X008444Y016559D02*
X008444Y016366D01*
X008251Y016366D02*
X008154Y016463D01*
X008337Y018201D02*
X008289Y018250D01*
X008483Y018443D01*
X008483Y018250D01*
X008434Y018201D01*
X008337Y018201D01*
X008289Y018250D02*
X008289Y018443D01*
X008337Y018492D01*
X008434Y018492D01*
X008483Y018443D01*
X008584Y018250D02*
X008632Y018250D01*
X008632Y018201D01*
X008584Y018201D01*
X008584Y018250D01*
X008731Y018201D02*
X008925Y018201D01*
X008828Y018201D02*
X008828Y018492D01*
X008731Y018395D01*
X009026Y018395D02*
X009026Y018250D01*
X009074Y018201D01*
X009219Y018201D01*
X009219Y018395D01*
X009320Y018346D02*
X009417Y018346D01*
X009320Y018201D02*
X009320Y018492D01*
X009514Y018492D01*
X011362Y017384D02*
X011362Y017190D01*
X011652Y017190D01*
X011652Y017089D02*
X011458Y017089D01*
X011507Y017190D02*
X011507Y017287D01*
X011652Y017089D02*
X011652Y016944D01*
X011604Y016896D01*
X011458Y016896D01*
X011652Y016795D02*
X011652Y016601D01*
X011652Y016698D02*
X011362Y016698D01*
X011458Y016601D01*
X011604Y016502D02*
X011652Y016502D01*
X011652Y016454D01*
X011604Y016454D01*
X011604Y016502D01*
X011604Y016353D02*
X011652Y016304D01*
X011652Y016207D01*
X011604Y016159D01*
X011410Y016353D01*
X011604Y016353D01*
X011604Y016159D02*
X011410Y016159D01*
X011362Y016207D01*
X011362Y016304D01*
X011410Y016353D01*
X012568Y018523D02*
X012568Y018668D01*
X012616Y018717D01*
X012713Y018717D01*
X012761Y018668D01*
X012761Y018523D01*
X012858Y018523D02*
X012568Y018523D01*
X012568Y018818D02*
X012858Y018818D01*
X012761Y018915D01*
X012858Y019011D01*
X012568Y019011D01*
X012568Y019112D02*
X012568Y019258D01*
X012616Y019306D01*
X012713Y019306D01*
X012761Y019258D01*
X012761Y019112D01*
X012858Y019112D02*
X012568Y019112D01*
X012761Y019209D02*
X012858Y019306D01*
X014019Y014136D02*
X014019Y013942D01*
X014309Y013942D01*
X014309Y013841D02*
X014116Y013841D01*
X014164Y013942D02*
X014164Y014039D01*
X014309Y013841D02*
X014309Y013696D01*
X014261Y013648D01*
X014116Y013648D01*
X014309Y013546D02*
X014309Y013353D01*
X014309Y013450D02*
X014019Y013450D01*
X014116Y013353D01*
X014261Y013254D02*
X014309Y013254D01*
X014309Y013206D01*
X014261Y013206D01*
X014261Y013254D01*
X014261Y013105D02*
X014068Y013105D01*
X014261Y012911D01*
X014309Y012959D01*
X014309Y013056D01*
X014261Y013105D01*
X014068Y013105D02*
X014019Y013056D01*
X014019Y012959D01*
X014068Y012911D01*
X014261Y012911D01*
X017686Y009166D02*
X017831Y009166D01*
X017879Y009117D01*
X017879Y009069D01*
X017831Y009021D01*
X017686Y009021D01*
X017686Y008876D02*
X017686Y009166D01*
X017831Y009021D02*
X017879Y008972D01*
X017879Y008924D01*
X017831Y008876D01*
X017686Y008876D01*
X017981Y008876D02*
X018174Y008876D01*
X018077Y008876D02*
X018077Y009166D01*
X017981Y009069D01*
X018275Y009021D02*
X018275Y009166D01*
X018469Y009166D01*
X018420Y009069D02*
X018372Y009069D01*
X018275Y009021D01*
X018275Y008924D02*
X018324Y008876D01*
X018420Y008876D01*
X018469Y008924D01*
X018469Y009021D01*
X018420Y009069D01*
X018420Y008182D02*
X018275Y008036D01*
X018469Y008036D01*
X018420Y007891D02*
X018420Y008182D01*
X018077Y008182D02*
X018077Y007891D01*
X017981Y007891D02*
X018174Y007891D01*
X017981Y008085D02*
X018077Y008182D01*
X017879Y008133D02*
X017831Y008182D01*
X017686Y008182D01*
X017686Y007891D01*
X017831Y007891D01*
X017879Y007940D01*
X017879Y007988D01*
X017831Y008036D01*
X017686Y008036D01*
X017831Y008036D02*
X017879Y008085D01*
X017879Y008133D01*
X017065Y007641D02*
X017065Y007544D01*
X017017Y007496D01*
X017017Y007395D02*
X016823Y007395D01*
X016775Y007346D01*
X016775Y007201D01*
X017065Y007201D01*
X017065Y007346D01*
X017017Y007395D01*
X016823Y007496D02*
X016775Y007544D01*
X016775Y007641D01*
X016823Y007689D01*
X016872Y007689D01*
X016920Y007641D01*
X016969Y007689D01*
X017017Y007689D01*
X017065Y007641D01*
X016920Y007641D02*
X016920Y007593D01*
X017686Y007197D02*
X017831Y007197D01*
X017879Y007149D01*
X017879Y007101D01*
X017831Y007052D01*
X017686Y007052D01*
X017686Y006907D02*
X017831Y006907D01*
X017879Y006955D01*
X017879Y007004D01*
X017831Y007052D01*
X017981Y007101D02*
X018077Y007197D01*
X018077Y006907D01*
X017981Y006907D02*
X018174Y006907D01*
X018275Y006955D02*
X018324Y006907D01*
X018420Y006907D01*
X018469Y006955D01*
X018469Y007004D01*
X018420Y007052D01*
X018372Y007052D01*
X018420Y007052D02*
X018469Y007101D01*
X018469Y007149D01*
X018420Y007197D01*
X018324Y007197D01*
X018275Y007149D01*
X017686Y007197D02*
X017686Y006907D01*
X017065Y006906D02*
X017065Y007100D01*
X016920Y007003D02*
X016920Y006906D01*
X016775Y006906D02*
X017065Y006906D01*
X017065Y006805D02*
X017065Y006612D01*
X016775Y006612D01*
X016775Y006906D02*
X016775Y007100D01*
X017784Y006312D02*
X017929Y006312D01*
X017978Y006263D01*
X017978Y006215D01*
X017929Y006166D01*
X017784Y006166D01*
X017784Y006021D02*
X017929Y006021D01*
X017978Y006070D01*
X017978Y006118D01*
X017929Y006166D01*
X018079Y006215D02*
X018127Y006166D01*
X018272Y006166D01*
X018272Y006070D02*
X018272Y006263D01*
X018224Y006312D01*
X018127Y006312D01*
X018079Y006263D01*
X018079Y006215D01*
X018079Y006070D02*
X018127Y006021D01*
X018224Y006021D01*
X018272Y006070D01*
X017784Y006021D02*
X017784Y006312D01*
X017784Y004343D02*
X017929Y004343D01*
X017978Y004295D01*
X017978Y004246D01*
X017929Y004198D01*
X017784Y004198D01*
X017784Y004053D02*
X017784Y004343D01*
X017929Y004198D02*
X017978Y004150D01*
X017978Y004101D01*
X017929Y004053D01*
X017784Y004053D01*
X018079Y004101D02*
X018079Y004150D01*
X018127Y004198D01*
X018224Y004198D01*
X018272Y004150D01*
X018272Y004101D01*
X018224Y004053D01*
X018127Y004053D01*
X018079Y004101D01*
X018127Y004198D02*
X018079Y004246D01*
X018079Y004295D01*
X018127Y004343D01*
X018224Y004343D01*
X018272Y004295D01*
X018272Y004246D01*
X018224Y004198D01*
X018272Y003260D02*
X018079Y003260D01*
X017978Y003212D02*
X017978Y003164D01*
X017929Y003115D01*
X017784Y003115D01*
X017784Y002970D02*
X017929Y002970D01*
X017978Y003018D01*
X017978Y003067D01*
X017929Y003115D01*
X017978Y003212D02*
X017929Y003260D01*
X017784Y003260D01*
X017784Y002970D01*
X018079Y002970D02*
X018079Y003018D01*
X018272Y003212D01*
X018272Y003260D01*
X018322Y002276D02*
X018177Y002276D01*
X018177Y001986D01*
X018322Y001986D01*
X018370Y002034D01*
X018370Y002228D01*
X018322Y002276D01*
X018076Y002276D02*
X018076Y001986D01*
X017882Y002276D01*
X017882Y001986D01*
X017781Y002034D02*
X017781Y002131D01*
X017684Y002131D01*
X017587Y002228D02*
X017587Y002034D01*
X017636Y001986D01*
X017733Y001986D01*
X017781Y002034D01*
X017781Y002228D02*
X017733Y002276D01*
X017636Y002276D01*
X017587Y002228D01*
X017784Y001292D02*
X017784Y001147D01*
X017881Y001195D01*
X017929Y001195D01*
X017978Y001147D01*
X017978Y001050D01*
X017929Y001002D01*
X017833Y001002D01*
X017784Y001050D01*
X017784Y001292D02*
X017978Y001292D01*
X018079Y001292D02*
X018079Y001098D01*
X018176Y001002D01*
X018272Y001098D01*
X018272Y001292D01*
X015515Y001047D02*
X015467Y001095D01*
X015370Y001095D01*
X015322Y001047D01*
X015221Y001047D02*
X015172Y001095D01*
X015027Y001095D01*
X015027Y000805D01*
X015172Y000805D01*
X015221Y000853D01*
X015221Y001047D01*
X015322Y000805D02*
X015515Y000998D01*
X015515Y001047D01*
X015515Y000805D02*
X015322Y000805D01*
X014926Y000805D02*
X014732Y000805D01*
X014732Y001095D01*
X014926Y001095D01*
X014829Y000950D02*
X014732Y000950D01*
X014631Y000805D02*
X014438Y000805D01*
X014438Y001095D01*
X007364Y001691D02*
X007316Y001642D01*
X007219Y001642D01*
X007171Y001691D01*
X007071Y001642D02*
X007023Y001691D01*
X007023Y001884D01*
X007071Y001836D02*
X006974Y001836D01*
X006826Y001836D02*
X006826Y001642D01*
X006778Y001642D02*
X006875Y001642D01*
X006677Y001642D02*
X006532Y001787D01*
X006483Y001739D02*
X006677Y001932D01*
X006778Y001836D02*
X006826Y001836D01*
X006826Y001932D02*
X006826Y001981D01*
X006483Y001932D02*
X006483Y001642D01*
X006382Y001691D02*
X006334Y001642D01*
X006237Y001642D01*
X006189Y001691D01*
X006189Y001884D01*
X006237Y001932D01*
X006334Y001932D01*
X006382Y001884D01*
X006089Y001932D02*
X005992Y001932D01*
X006041Y001932D02*
X006041Y001642D01*
X006089Y001642D02*
X005992Y001642D01*
X005891Y001787D02*
X005843Y001739D01*
X005698Y001739D01*
X005698Y001642D02*
X005698Y001932D01*
X005843Y001932D01*
X005891Y001884D01*
X005891Y001787D01*
X007171Y001884D02*
X007219Y001932D01*
X007316Y001932D01*
X007364Y001884D01*
X007364Y001836D01*
X007316Y001787D01*
X007364Y001739D01*
X007364Y001691D01*
X007316Y001787D02*
X007267Y001787D01*
X005563Y002971D02*
X005563Y003261D01*
X005756Y003261D01*
X005660Y003116D02*
X005563Y003116D01*
X005462Y003164D02*
X005462Y002971D01*
X005317Y002971D01*
X005268Y003019D01*
X005268Y003164D01*
X005167Y002971D02*
X004974Y002971D01*
X005070Y002971D02*
X005070Y003261D01*
X004974Y003164D01*
X004875Y003019D02*
X004875Y002971D01*
X004826Y002971D01*
X004826Y003019D01*
X004875Y003019D01*
X004725Y003019D02*
X004677Y002971D01*
X004580Y002971D01*
X004532Y003019D01*
X004725Y003212D01*
X004725Y003019D01*
X004532Y003019D02*
X004532Y003212D01*
X004580Y003261D01*
X004677Y003261D01*
X004725Y003212D01*
X005898Y005234D02*
X005947Y005234D01*
X005995Y005282D01*
X005995Y005379D01*
X006043Y005427D01*
X006092Y005427D01*
X006140Y005379D01*
X006140Y005282D01*
X006092Y005234D01*
X006043Y005234D01*
X005995Y005282D01*
X005995Y005379D02*
X005947Y005427D01*
X005898Y005427D01*
X005850Y005379D01*
X005850Y005282D01*
X005898Y005234D01*
X005850Y005529D02*
X005947Y005625D01*
X005850Y005722D01*
X006140Y005722D01*
X006140Y005823D02*
X005850Y005823D01*
X005995Y005823D02*
X005995Y006017D01*
X005947Y006118D02*
X005947Y006311D01*
X006140Y006118D01*
X006140Y006311D01*
X006140Y006017D02*
X005850Y006017D01*
X005850Y005529D02*
X006140Y005529D01*
X013497Y006805D02*
X013787Y006805D01*
X013787Y006708D02*
X013787Y006902D01*
X013739Y007003D02*
X013545Y007003D01*
X013497Y007051D01*
X013497Y007148D01*
X013545Y007196D01*
X013739Y007003D01*
X013787Y007051D01*
X013787Y007148D01*
X013739Y007196D01*
X013545Y007196D01*
X013594Y007298D02*
X013739Y007298D01*
X013787Y007346D01*
X013787Y007491D01*
X013594Y007491D01*
X013642Y007592D02*
X013642Y007689D01*
X013787Y007592D02*
X013497Y007592D01*
X013497Y007786D01*
X013497Y006805D02*
X013594Y006708D01*
D12*
X016107Y006540D02*
X016155Y006570D01*
X016200Y006603D01*
X016243Y006639D01*
X016284Y006677D01*
X016321Y006719D01*
X016356Y006763D01*
X016387Y006809D01*
X016416Y006858D01*
X016440Y006908D01*
X016461Y006960D01*
X016479Y007014D01*
X016492Y007068D01*
X016502Y007123D01*
X016508Y007179D01*
X016510Y007235D01*
X016508Y007288D01*
X016503Y007342D01*
X016494Y007394D01*
X016482Y007446D01*
X016466Y007497D01*
X016447Y007547D01*
X016424Y007596D01*
X016398Y007643D01*
X016370Y007688D01*
X016338Y007731D01*
X016304Y007771D01*
X016266Y007810D01*
X016227Y007846D01*
X014910Y007235D02*
X014912Y007181D01*
X014917Y007127D01*
X014926Y007074D01*
X014939Y007021D01*
X014955Y006970D01*
X014975Y006920D01*
X014998Y006871D01*
X015024Y006823D01*
X015053Y006778D01*
X015086Y006735D01*
X015121Y006694D01*
X015159Y006655D01*
X015199Y006619D01*
X015242Y006586D01*
X015287Y006556D01*
X015334Y006529D01*
X014910Y007235D02*
X014912Y007289D01*
X014917Y007342D01*
X014926Y007396D01*
X014939Y007448D01*
X014955Y007499D01*
X014975Y007550D01*
X014997Y007599D01*
X015023Y007646D01*
X015053Y007691D01*
X015085Y007734D01*
X015120Y007775D01*
X015158Y007814D01*
X015198Y007850D01*
X007139Y002365D02*
X006549Y002365D01*
X006647Y002365D02*
X006647Y002266D01*
X006844Y002069D01*
X007139Y002365D01*
X012913Y001129D02*
X012943Y001081D01*
X012976Y001036D01*
X013012Y000993D01*
X013050Y000952D01*
X013092Y000915D01*
X013136Y000880D01*
X013182Y000849D01*
X013231Y000820D01*
X013281Y000796D01*
X013333Y000775D01*
X013387Y000757D01*
X013441Y000744D01*
X013496Y000734D01*
X013552Y000728D01*
X013608Y000726D01*
X013661Y000728D01*
X013715Y000733D01*
X013767Y000742D01*
X013819Y000754D01*
X013870Y000770D01*
X013920Y000789D01*
X013969Y000812D01*
X014016Y000838D01*
X014061Y000866D01*
X014104Y000898D01*
X014144Y000932D01*
X014183Y000970D01*
X014219Y001009D01*
X013608Y002326D02*
X013554Y002324D01*
X013500Y002319D01*
X013447Y002310D01*
X013394Y002297D01*
X013343Y002281D01*
X013293Y002261D01*
X013244Y002238D01*
X013196Y002212D01*
X013151Y002183D01*
X013108Y002150D01*
X013067Y002115D01*
X013028Y002077D01*
X012992Y002037D01*
X012959Y001994D01*
X012929Y001949D01*
X012902Y001902D01*
X013608Y002326D02*
X013662Y002324D01*
X013715Y002319D01*
X013769Y002310D01*
X013821Y002297D01*
X013872Y002281D01*
X013923Y002261D01*
X013972Y002239D01*
X014019Y002213D01*
X014064Y002183D01*
X014107Y002151D01*
X014148Y002116D01*
X014187Y002078D01*
X014223Y002038D01*
X011553Y018002D02*
X011606Y018004D01*
X011660Y018009D01*
X011712Y018018D01*
X011764Y018030D01*
X011815Y018046D01*
X011865Y018065D01*
X011914Y018088D01*
X011961Y018114D01*
X012006Y018142D01*
X012049Y018174D01*
X012089Y018208D01*
X012128Y018246D01*
X012164Y018285D01*
X011553Y019602D02*
X011499Y019600D01*
X011445Y019595D01*
X011392Y019586D01*
X011339Y019573D01*
X011288Y019557D01*
X011238Y019537D01*
X011189Y019514D01*
X011141Y019488D01*
X011096Y019459D01*
X011053Y019426D01*
X011012Y019391D01*
X010973Y019353D01*
X010937Y019313D01*
X010904Y019270D01*
X010874Y019225D01*
X010847Y019178D01*
X010858Y018405D02*
X010888Y018357D01*
X010921Y018312D01*
X010957Y018269D01*
X010995Y018228D01*
X011037Y018191D01*
X011081Y018156D01*
X011127Y018125D01*
X011176Y018096D01*
X011226Y018072D01*
X011278Y018051D01*
X011332Y018033D01*
X011386Y018020D01*
X011441Y018010D01*
X011497Y018004D01*
X011553Y018002D01*
X012168Y019314D02*
X012132Y019354D01*
X012093Y019392D01*
X012052Y019427D01*
X012009Y019459D01*
X011964Y019489D01*
X011917Y019515D01*
X011868Y019537D01*
X011817Y019557D01*
X011766Y019573D01*
X011714Y019586D01*
X011660Y019595D01*
X011607Y019600D01*
X011553Y019602D01*
D13*
X014242Y019463D02*
X014242Y017888D01*
X018966Y017888D01*
X018966Y019463D01*
X014242Y019463D01*
X017797Y017459D02*
X019372Y017459D01*
X019372Y012735D01*
X017797Y012735D01*
X017797Y017459D01*
X016363Y016682D02*
X016138Y016532D01*
X016363Y016382D01*
X016138Y016382D02*
X016138Y016833D01*
X015978Y016757D02*
X015677Y016457D01*
X015753Y016382D01*
X015903Y016382D01*
X015978Y016457D01*
X015978Y016757D01*
X015903Y016833D01*
X015753Y016833D01*
X015677Y016757D01*
X015677Y016457D01*
X015517Y016382D02*
X015217Y016382D01*
X015367Y016382D02*
X015367Y016833D01*
X015217Y016682D01*
X013693Y016698D02*
X013618Y016623D01*
X013317Y016923D01*
X013618Y016923D01*
X013693Y016848D01*
X013693Y016698D01*
X013618Y016623D02*
X013317Y016623D01*
X013242Y016698D01*
X013242Y016848D01*
X013317Y016923D01*
X013317Y016463D02*
X013242Y016388D01*
X013242Y016238D01*
X013317Y016163D01*
X013317Y016002D02*
X013242Y015927D01*
X013242Y015777D01*
X013317Y015702D01*
X013467Y015852D02*
X013467Y015927D01*
X013543Y016002D01*
X013618Y016002D01*
X013693Y015927D01*
X013693Y015777D01*
X013618Y015702D01*
X013467Y015927D02*
X013392Y016002D01*
X013317Y016002D01*
X013618Y016163D02*
X013693Y016238D01*
X013693Y016388D01*
X013618Y016463D01*
X013543Y016463D01*
X013467Y016388D01*
X013467Y016313D01*
X013467Y016388D02*
X013392Y016463D01*
X013317Y016463D01*
X011383Y015140D02*
X010793Y015140D01*
X011383Y015140D02*
X011383Y000376D01*
X009021Y000376D01*
X009021Y015140D01*
X009612Y015140D01*
X010202Y014549D02*
X010248Y014551D01*
X010294Y014556D01*
X010340Y014565D01*
X010385Y014578D01*
X010428Y014594D01*
X010470Y014613D01*
X010511Y014636D01*
X010549Y014662D01*
X010586Y014691D01*
X010620Y014722D01*
X010651Y014756D01*
X010680Y014793D01*
X010706Y014831D01*
X010729Y014872D01*
X010748Y014914D01*
X010764Y014957D01*
X010777Y015002D01*
X010786Y015048D01*
X010791Y015094D01*
X010793Y015140D01*
X010202Y014549D02*
X010156Y014551D01*
X010110Y014556D01*
X010064Y014565D01*
X010019Y014578D01*
X009976Y014594D01*
X009934Y014613D01*
X009893Y014636D01*
X009855Y014662D01*
X009818Y014691D01*
X009784Y014722D01*
X009753Y014756D01*
X009724Y014793D01*
X009698Y014831D01*
X009675Y014872D01*
X009656Y014914D01*
X009640Y014957D01*
X009627Y015002D01*
X009618Y015048D01*
X009613Y015094D01*
X009611Y015140D01*
X004851Y015145D02*
X004851Y014941D01*
X004851Y015043D02*
X004444Y015043D01*
X004444Y014941D01*
X004545Y014741D02*
X004851Y014741D01*
X004545Y014741D02*
X004444Y014639D01*
X004444Y014334D01*
X004851Y014334D01*
X004647Y014133D02*
X004647Y013726D01*
X004545Y013726D02*
X004444Y013828D01*
X004444Y014031D01*
X004545Y014133D01*
X004647Y014133D01*
X004851Y014031D02*
X004851Y013828D01*
X004749Y013726D01*
X004545Y013726D01*
X004545Y013525D02*
X004444Y013424D01*
X004444Y013118D01*
X004851Y013118D01*
X004851Y012918D02*
X004545Y012918D01*
X004444Y012816D01*
X004444Y012612D01*
X004647Y012612D02*
X004749Y012511D01*
X004851Y012612D01*
X004851Y012918D01*
X004647Y012918D02*
X004647Y012612D01*
X004851Y012309D02*
X004851Y012106D01*
X004851Y012207D02*
X004240Y012207D01*
X004240Y012106D01*
X004444Y011803D02*
X004545Y011905D01*
X004851Y011905D01*
X004851Y011600D01*
X004749Y011498D01*
X004647Y011600D01*
X004647Y011905D01*
X004444Y011803D02*
X004444Y011600D01*
X004545Y011297D02*
X004444Y011195D01*
X004545Y011094D01*
X004851Y011094D01*
X004851Y011297D02*
X004545Y011297D01*
X004545Y011094D02*
X004444Y010992D01*
X004444Y010890D01*
X004851Y010890D01*
X004851Y010689D02*
X004545Y010689D01*
X004444Y010588D01*
X004545Y010486D01*
X004851Y010486D01*
X004851Y010282D02*
X004444Y010282D01*
X004444Y010384D01*
X004545Y010486D01*
X004749Y010082D02*
X004240Y010082D01*
X004749Y010082D02*
X004851Y009980D01*
X004851Y009776D01*
X004749Y009675D01*
X004240Y009675D01*
X004444Y008866D02*
X004647Y008561D01*
X004851Y008866D01*
X004851Y008561D02*
X004240Y008561D01*
X004240Y008257D02*
X004138Y008257D01*
X004444Y008257D02*
X004444Y008155D01*
X004444Y008257D02*
X004851Y008257D01*
X004851Y008155D02*
X004851Y008359D01*
X004749Y007955D02*
X004444Y007955D01*
X004749Y007955D02*
X004851Y007853D01*
X004749Y007751D01*
X004851Y007649D01*
X004749Y007548D01*
X004444Y007548D01*
X004444Y007346D02*
X004444Y007143D01*
X004342Y007244D02*
X004749Y007244D01*
X004851Y007346D01*
X004851Y006941D02*
X004851Y006737D01*
X004851Y006839D02*
X004444Y006839D01*
X004444Y006737D01*
X004342Y006537D02*
X004545Y006537D01*
X004647Y006435D01*
X004647Y006130D01*
X004647Y006333D02*
X004851Y006537D01*
X004851Y006130D02*
X004240Y006130D01*
X004240Y006435D01*
X004342Y006537D01*
X004240Y006839D02*
X004138Y006839D01*
X003276Y006839D02*
X002665Y006839D01*
X002665Y006737D02*
X002665Y006941D01*
X002767Y007143D02*
X003174Y007143D01*
X003276Y007244D01*
X003276Y007448D01*
X003174Y007550D01*
X003174Y007750D02*
X003276Y007852D01*
X003276Y008056D01*
X003174Y008157D01*
X003072Y008157D01*
X002971Y008056D01*
X002971Y007954D01*
X002971Y008056D02*
X002869Y008157D01*
X002767Y008157D01*
X002665Y008056D01*
X002665Y007852D01*
X002767Y007750D01*
X002767Y007550D02*
X002665Y007448D01*
X002665Y007244D01*
X002767Y007143D01*
X003276Y006941D02*
X003276Y006737D01*
X002971Y006537D02*
X003072Y006435D01*
X003072Y006130D01*
X003276Y006130D02*
X002665Y006130D01*
X002665Y006435D01*
X002767Y006537D01*
X002971Y006537D01*
X002767Y008358D02*
X002665Y008460D01*
X002665Y008663D01*
X002767Y008765D01*
X002869Y008765D01*
X003276Y008358D01*
X003276Y008765D01*
X003276Y008966D02*
X002665Y008966D01*
X002869Y009169D01*
X002665Y009373D01*
X003276Y009373D01*
X003276Y009573D02*
X002665Y009980D01*
X002767Y010181D02*
X002665Y010283D01*
X002665Y010486D01*
X002767Y010588D01*
X002869Y010588D01*
X003276Y010181D01*
X003276Y010588D01*
X003174Y010789D02*
X003276Y010891D01*
X003276Y011094D01*
X003174Y011196D01*
X002971Y011196D01*
X002869Y011094D01*
X002869Y010992D01*
X002971Y010789D01*
X002665Y010789D01*
X002665Y011196D01*
X002767Y011397D02*
X002665Y011498D01*
X002665Y011702D01*
X002767Y011804D01*
X003174Y011397D01*
X003276Y011498D01*
X003276Y011702D01*
X003174Y011804D01*
X002767Y011804D01*
X002767Y011397D02*
X003174Y011397D01*
X003276Y009980D02*
X002665Y009573D01*
X006210Y007290D02*
X006210Y003746D01*
X006212Y003698D01*
X006218Y003651D01*
X006227Y003605D01*
X006240Y003559D01*
X006257Y003514D01*
X006278Y003471D01*
X006301Y003430D01*
X006329Y003391D01*
X006359Y003354D01*
X006392Y003320D01*
X006427Y003288D01*
X006465Y003260D01*
X006505Y003234D01*
X006548Y003212D01*
X006591Y003193D01*
X006637Y003178D01*
X006683Y003167D01*
X006730Y003159D01*
X006777Y003155D01*
X006825Y003155D01*
X006872Y003159D01*
X006919Y003167D01*
X006965Y003178D01*
X007011Y003193D01*
X007054Y003212D01*
X007096Y003234D01*
X007137Y003260D01*
X007175Y003288D01*
X007210Y003320D01*
X007243Y003354D01*
X007273Y003391D01*
X007301Y003430D01*
X007324Y003471D01*
X007345Y003514D01*
X007362Y003559D01*
X007375Y003605D01*
X007384Y003651D01*
X007390Y003698D01*
X007392Y003746D01*
X007391Y003746D02*
X007391Y007290D01*
X007392Y007290D02*
X007390Y007338D01*
X007384Y007385D01*
X007375Y007431D01*
X007362Y007477D01*
X007345Y007522D01*
X007324Y007565D01*
X007301Y007606D01*
X007273Y007645D01*
X007243Y007682D01*
X007210Y007716D01*
X007175Y007748D01*
X007137Y007776D01*
X007097Y007802D01*
X007054Y007824D01*
X007011Y007843D01*
X006965Y007858D01*
X006919Y007869D01*
X006872Y007877D01*
X006825Y007881D01*
X006777Y007881D01*
X006730Y007877D01*
X006683Y007869D01*
X006637Y007858D01*
X006591Y007843D01*
X006548Y007824D01*
X006505Y007802D01*
X006465Y007776D01*
X006427Y007748D01*
X006392Y007716D01*
X006359Y007682D01*
X006329Y007645D01*
X006301Y007606D01*
X006278Y007565D01*
X006257Y007522D01*
X006240Y007477D01*
X006227Y007431D01*
X006218Y007385D01*
X006212Y007338D01*
X006210Y007290D01*
X004851Y013525D02*
X004545Y013525D01*
X004240Y015043D02*
X004138Y015043D01*
X015637Y014658D02*
X016087Y014658D01*
X015937Y014658D02*
X015787Y014883D01*
X015937Y014658D02*
X016087Y014883D01*
X016012Y014498D02*
X015712Y014498D01*
X016012Y014197D01*
X016087Y014273D01*
X016087Y014423D01*
X016012Y014498D01*
X015712Y014498D02*
X015637Y014423D01*
X015637Y014273D01*
X015712Y014197D01*
X016012Y014197D01*
X016087Y014037D02*
X016087Y013737D01*
X016087Y013887D02*
X015637Y013887D01*
X015787Y013737D01*
X015871Y010877D02*
X015570Y010877D01*
X015871Y010577D01*
X015946Y010652D01*
X015946Y010802D01*
X015871Y010877D01*
X015871Y010577D02*
X015570Y010577D01*
X015495Y010652D01*
X015495Y010802D01*
X015570Y010877D01*
X015570Y010417D02*
X015645Y010417D01*
X015720Y010342D01*
X015795Y010417D01*
X015871Y010417D01*
X015946Y010342D01*
X015946Y010192D01*
X015871Y010117D01*
X015871Y009957D02*
X015946Y009882D01*
X015946Y009731D01*
X015871Y009656D01*
X015720Y009807D02*
X015720Y009882D01*
X015795Y009957D01*
X015871Y009957D01*
X015720Y009882D02*
X015645Y009957D01*
X015570Y009957D01*
X015495Y009882D01*
X015495Y009731D01*
X015570Y009656D01*
X015570Y010117D02*
X015495Y010192D01*
X015495Y010342D01*
X015570Y010417D01*
X015720Y010342D02*
X015720Y010267D01*
X016633Y003562D02*
X016558Y003487D01*
X016558Y003337D01*
X016633Y003262D01*
X016934Y003262D01*
X016633Y003562D01*
X016934Y003562D01*
X017009Y003487D01*
X017009Y003337D01*
X016934Y003262D01*
X016934Y003102D02*
X016858Y003102D01*
X016783Y003027D01*
X016783Y002952D01*
X016783Y003027D02*
X016708Y003102D01*
X016633Y003102D01*
X016558Y003027D01*
X016558Y002877D01*
X016633Y002802D01*
X016633Y002642D02*
X016708Y002642D01*
X016783Y002567D01*
X016858Y002642D01*
X016934Y002642D01*
X017009Y002567D01*
X017009Y002417D01*
X016934Y002341D01*
X016783Y002492D02*
X016783Y002567D01*
X016633Y002642D02*
X016558Y002567D01*
X016558Y002417D01*
X016633Y002341D01*
X016934Y002802D02*
X017009Y002877D01*
X017009Y003027D01*
X016934Y003102D01*
D14*
X010379Y004558D02*
X009919Y004558D01*
X009919Y004788D01*
X009996Y004865D01*
X010149Y004865D01*
X010226Y004788D01*
X010226Y004558D01*
X010379Y005018D02*
X010379Y005172D01*
X010379Y005095D02*
X009919Y005095D01*
X009919Y005018D02*
X009919Y005172D01*
X009919Y005325D02*
X010379Y005632D01*
X010303Y005785D02*
X010379Y005862D01*
X010379Y006016D01*
X010303Y006092D01*
X010226Y006092D01*
X010149Y006016D01*
X010149Y005939D01*
X010149Y006016D02*
X010072Y006092D01*
X009996Y006092D01*
X009919Y006016D01*
X009919Y005862D01*
X009996Y005785D01*
X009919Y005632D02*
X010379Y005325D01*
X010379Y006246D02*
X010072Y006553D01*
X009996Y006553D01*
X009919Y006476D01*
X009919Y006322D01*
X009996Y006246D01*
X010379Y006246D02*
X010379Y006553D01*
X010379Y006706D02*
X009919Y006706D01*
X010072Y006860D01*
X009919Y007013D01*
X010379Y007013D01*
X010379Y007166D02*
X009919Y007473D01*
X009996Y007627D02*
X009919Y007704D01*
X009919Y007857D01*
X009996Y007934D01*
X010072Y007934D01*
X010379Y007627D01*
X010379Y007934D01*
X010303Y008087D02*
X010379Y008164D01*
X010379Y008317D01*
X010303Y008394D01*
X010149Y008394D01*
X010072Y008317D01*
X010072Y008241D01*
X010149Y008087D01*
X009919Y008087D01*
X009919Y008394D01*
X009996Y008548D02*
X009919Y008624D01*
X009919Y008778D01*
X009996Y008854D01*
X010303Y008548D01*
X010379Y008624D01*
X010379Y008778D01*
X010303Y008854D01*
X009996Y008854D01*
X009919Y009008D02*
X009919Y009315D01*
X010072Y009468D02*
X009919Y009622D01*
X010379Y009622D01*
X010379Y009775D02*
X010379Y009468D01*
X010149Y009161D02*
X010149Y009008D01*
X010379Y009008D02*
X009919Y009008D01*
X009996Y008548D02*
X010303Y008548D01*
X010379Y007473D02*
X009919Y007166D01*
X009996Y009929D02*
X009919Y010005D01*
X009919Y010159D01*
X009996Y010235D01*
X010072Y010235D01*
X010379Y009929D01*
X010379Y010235D01*
X010303Y010389D02*
X010226Y010389D01*
X010149Y010466D01*
X010149Y010619D01*
X010226Y010696D01*
X010303Y010696D01*
X010379Y010619D01*
X010379Y010466D01*
X010303Y010389D01*
X010149Y010466D02*
X010072Y010389D01*
X009996Y010389D01*
X009919Y010466D01*
X009919Y010619D01*
X009996Y010696D01*
X010072Y010696D01*
X010149Y010619D01*
X010149Y010849D02*
X010149Y011079D01*
X010226Y011156D01*
X010303Y011156D01*
X010379Y011079D01*
X010379Y010849D01*
X009919Y010849D01*
X009919Y011079D01*
X009996Y011156D01*
X010072Y011156D01*
X010149Y011079D01*
X009919Y011310D02*
X009919Y011540D01*
X009996Y011617D01*
X010303Y011617D01*
X010379Y011540D01*
X010379Y011310D01*
X009919Y011310D01*
X009919Y011770D02*
X009919Y011923D01*
X009919Y011847D02*
X010379Y011847D01*
X010379Y011923D02*
X010379Y011770D01*
X010379Y012077D02*
X009919Y012077D01*
X009919Y012307D01*
X009996Y012384D01*
X010149Y012384D01*
X010226Y012307D01*
X010226Y012077D01*
X004068Y008447D02*
X004068Y008274D01*
X003981Y008187D01*
X003981Y008019D02*
X003895Y008019D01*
X003808Y007932D01*
X003808Y007845D01*
X003808Y007932D02*
X003721Y008019D01*
X003634Y008019D01*
X003548Y007932D01*
X003548Y007758D01*
X003634Y007672D01*
X003808Y007503D02*
X003808Y007156D01*
X003548Y007416D01*
X004068Y007416D01*
X003981Y007672D02*
X004068Y007758D01*
X004068Y007932D01*
X003981Y008019D01*
X003634Y008187D02*
X003548Y008274D01*
X003548Y008447D01*
X003634Y008534D01*
X003721Y008534D01*
X003808Y008447D01*
X003895Y008534D01*
X003981Y008534D01*
X004068Y008447D01*
X003808Y008447D02*
X003808Y008361D01*
X003548Y006987D02*
X003548Y006640D01*
X004068Y006640D01*
X004068Y006987D01*
X003808Y006814D02*
X003808Y006640D01*
X003548Y006472D02*
X004068Y006472D01*
X003721Y006298D02*
X003548Y006472D01*
X003721Y006298D02*
X003548Y006125D01*
X004068Y006125D01*
X017218Y013739D02*
X017602Y013739D01*
X017678Y013816D01*
X017678Y013969D01*
X017602Y014046D01*
X017218Y014046D01*
X017295Y014199D02*
X017372Y014199D01*
X017448Y014276D01*
X017448Y014429D01*
X017525Y014506D01*
X017602Y014506D01*
X017678Y014429D01*
X017678Y014276D01*
X017602Y014199D01*
X017295Y014199D02*
X017218Y014276D01*
X017218Y014429D01*
X017295Y014506D01*
X017218Y014660D02*
X017678Y014660D01*
X017678Y014966D01*
X017678Y015120D02*
X017218Y015120D01*
X017218Y015350D01*
X017295Y015427D01*
X017448Y015427D01*
X017525Y015350D01*
X017525Y015120D01*
X017525Y015273D02*
X017678Y015427D01*
X017218Y014966D02*
X017218Y014660D01*
X017448Y014660D02*
X017448Y014813D01*
X016946Y017318D02*
X016946Y017778D01*
X017099Y017778D02*
X016792Y017778D01*
X016639Y017778D02*
X016332Y017778D01*
X016332Y017318D01*
X016639Y017318D01*
X016485Y017548D02*
X016332Y017548D01*
X016178Y017471D02*
X016178Y017394D01*
X016102Y017318D01*
X015948Y017318D01*
X015871Y017394D01*
X015718Y017318D02*
X015411Y017318D01*
X015411Y017778D01*
X015718Y017778D01*
X015871Y017701D02*
X015948Y017778D01*
X016102Y017778D01*
X016178Y017701D01*
X016102Y017548D02*
X016178Y017471D01*
X016102Y017548D02*
X015948Y017548D01*
X015871Y017625D01*
X015871Y017701D01*
X015564Y017548D02*
X015411Y017548D01*
X015258Y017548D02*
X015181Y017471D01*
X014951Y017471D01*
X015104Y017471D02*
X015258Y017318D01*
X015258Y017548D02*
X015258Y017701D01*
X015181Y017778D01*
X014951Y017778D01*
X014951Y017318D01*
X001066Y017568D02*
X000990Y017492D01*
X000606Y017492D01*
X001066Y017568D02*
X001066Y017722D01*
X000990Y017799D01*
X000606Y017799D01*
X000683Y017952D02*
X000759Y017952D01*
X000836Y018029D01*
X000836Y018182D01*
X000913Y018259D01*
X000990Y018259D01*
X001066Y018182D01*
X001066Y018029D01*
X000990Y017952D01*
X000683Y017952D02*
X000606Y018029D01*
X000606Y018182D01*
X000683Y018259D01*
X000606Y018412D02*
X000606Y018642D01*
X000683Y018719D01*
X000759Y018719D01*
X000836Y018642D01*
X000836Y018412D01*
X001066Y018412D02*
X000606Y018412D01*
X000836Y018642D02*
X000913Y018719D01*
X000990Y018719D01*
X001066Y018642D01*
X001066Y018412D01*
D15*
X000901Y014601D02*
X000401Y014601D01*
X000151Y014351D01*
X000151Y013851D01*
X000401Y013601D01*
X000151Y013351D01*
X000151Y012851D01*
X000401Y012601D01*
X000151Y012351D01*
X000151Y011851D01*
X000401Y011601D01*
X000151Y011351D01*
X000151Y010851D01*
X000401Y010601D01*
X000901Y010601D01*
X001151Y010851D01*
X001151Y011351D01*
X000901Y011601D01*
X001151Y011851D01*
X001151Y012351D01*
X000901Y012601D01*
X001151Y012851D01*
X001151Y013351D01*
X000901Y013601D01*
X001151Y013851D01*
X001151Y014351D01*
X000901Y014601D01*
X000901Y009601D02*
X000401Y009601D01*
X000151Y009351D01*
X000151Y008851D01*
X000401Y008601D01*
X000151Y008351D01*
X000151Y007851D01*
X000401Y007601D01*
X000151Y007351D01*
X000151Y006851D01*
X000401Y006601D01*
X000151Y006351D01*
X000151Y005851D01*
X000401Y005601D01*
X000901Y005601D01*
X001151Y005851D01*
X001151Y006351D01*
X000901Y006601D01*
X001151Y006851D01*
X001151Y007351D01*
X000901Y007601D01*
X001151Y007851D01*
X001151Y008351D01*
X000901Y008601D01*
X001151Y008851D01*
X001151Y009351D01*
X000901Y009601D01*
X000901Y004601D02*
X000401Y004601D01*
X000151Y004351D01*
X000151Y003851D01*
X000401Y003601D01*
X000151Y003351D01*
X000151Y002851D01*
X000401Y002601D01*
X000151Y002351D01*
X000151Y001851D01*
X000401Y001601D01*
X000151Y001351D01*
X000151Y000851D01*
X000401Y000601D01*
X000901Y000601D01*
X001151Y000851D01*
X001151Y001351D01*
X000901Y001601D01*
X001151Y001851D01*
X001151Y002351D01*
X000901Y002601D01*
X001151Y002851D01*
X001151Y003351D01*
X000901Y003601D01*
X001151Y003851D01*
X001151Y004351D01*
X000901Y004601D01*
X002700Y001447D02*
X003200Y001447D01*
X003450Y001197D01*
X003700Y001447D01*
X004200Y001447D01*
X004450Y001197D01*
X004700Y001447D01*
X005200Y001447D01*
X005450Y001197D01*
X005700Y001447D01*
X006200Y001447D01*
X006450Y001197D01*
X006700Y001447D01*
X007200Y001447D01*
X007450Y001197D01*
X007450Y000697D01*
X007200Y000447D01*
X006700Y000447D01*
X006450Y000697D01*
X006200Y000447D01*
X005700Y000447D01*
X005450Y000697D01*
X005200Y000447D01*
X004700Y000447D01*
X004450Y000697D01*
X004200Y000447D01*
X003700Y000447D01*
X003450Y000697D01*
X003200Y000447D01*
X002700Y000447D01*
X002450Y000697D01*
X002450Y001197D01*
X002700Y001447D01*
X013180Y004873D02*
X013180Y005273D01*
X012746Y005573D02*
X012748Y005635D01*
X012754Y005698D01*
X012764Y005759D01*
X012778Y005820D01*
X012795Y005880D01*
X012816Y005939D01*
X012842Y005996D01*
X012870Y006051D01*
X012902Y006105D01*
X012938Y006156D01*
X012976Y006206D01*
X013018Y006252D01*
X013062Y006296D01*
X013110Y006337D01*
X013159Y006375D01*
X013211Y006409D01*
X013265Y006440D01*
X013321Y006468D01*
X013379Y006492D01*
X013438Y006513D01*
X013498Y006529D01*
X013559Y006542D01*
X013621Y006551D01*
X013683Y006556D01*
X013746Y006557D01*
X013808Y006554D01*
X013870Y006547D01*
X013932Y006536D01*
X013992Y006521D01*
X014052Y006503D01*
X014110Y006481D01*
X014167Y006455D01*
X014222Y006425D01*
X014275Y006392D01*
X014326Y006356D01*
X014374Y006317D01*
X014420Y006274D01*
X014463Y006229D01*
X014503Y006181D01*
X014540Y006131D01*
X014574Y006078D01*
X014605Y006024D01*
X014631Y005968D01*
X014655Y005910D01*
X014674Y005850D01*
X014690Y005790D01*
X014702Y005728D01*
X014710Y005667D01*
X014714Y005604D01*
X014714Y005542D01*
X014710Y005479D01*
X014702Y005418D01*
X014690Y005356D01*
X014674Y005296D01*
X014655Y005236D01*
X014631Y005178D01*
X014605Y005122D01*
X014574Y005068D01*
X014540Y005015D01*
X014503Y004965D01*
X014463Y004917D01*
X014420Y004872D01*
X014374Y004829D01*
X014326Y004790D01*
X014275Y004754D01*
X014222Y004721D01*
X014167Y004691D01*
X014110Y004665D01*
X014052Y004643D01*
X013992Y004625D01*
X013932Y004610D01*
X013870Y004599D01*
X013808Y004592D01*
X013746Y004589D01*
X013683Y004590D01*
X013621Y004595D01*
X013559Y004604D01*
X013498Y004617D01*
X013438Y004633D01*
X013379Y004654D01*
X013321Y004678D01*
X013265Y004706D01*
X013211Y004737D01*
X013159Y004771D01*
X013110Y004809D01*
X013062Y004850D01*
X013018Y004894D01*
X012976Y004940D01*
X012938Y004990D01*
X012902Y005041D01*
X012870Y005095D01*
X012842Y005150D01*
X012816Y005207D01*
X012795Y005266D01*
X012778Y005326D01*
X012764Y005387D01*
X012754Y005448D01*
X012748Y005511D01*
X012746Y005573D01*
X018651Y005851D02*
X018651Y006351D01*
X018901Y006601D01*
X018651Y006851D01*
X018651Y007351D01*
X018901Y007601D01*
X018651Y007851D01*
X018651Y008351D01*
X018901Y008601D01*
X018651Y008851D01*
X018651Y009351D01*
X018901Y009601D01*
X019401Y009601D01*
X019651Y009351D01*
X019651Y008851D01*
X019401Y008601D01*
X019651Y008351D01*
X019651Y007851D01*
X019401Y007601D01*
X019651Y007351D01*
X019651Y006851D01*
X019401Y006601D01*
X019651Y006351D01*
X019651Y005851D01*
X019401Y005601D01*
X018901Y005601D01*
X018651Y005851D01*
X018901Y004601D02*
X018651Y004351D01*
X018651Y003851D01*
X018901Y003601D01*
X018651Y003351D01*
X018651Y002851D01*
X018901Y002601D01*
X018651Y002351D01*
X018651Y001851D01*
X018901Y001601D01*
X018651Y001351D01*
X018651Y000851D01*
X018901Y000601D01*
X019401Y000601D01*
X019651Y000851D01*
X019651Y001351D01*
X019401Y001601D01*
X019651Y001851D01*
X019651Y002351D01*
X019401Y002601D01*
X019651Y002851D01*
X019651Y003351D01*
X019401Y003601D01*
X019651Y003851D01*
X019651Y004351D01*
X019401Y004601D01*
X018901Y004601D01*
X008428Y016007D02*
X008428Y016407D01*
X007994Y016707D02*
X007996Y016769D01*
X008002Y016832D01*
X008012Y016893D01*
X008026Y016954D01*
X008043Y017014D01*
X008064Y017073D01*
X008090Y017130D01*
X008118Y017185D01*
X008150Y017239D01*
X008186Y017290D01*
X008224Y017340D01*
X008266Y017386D01*
X008310Y017430D01*
X008358Y017471D01*
X008407Y017509D01*
X008459Y017543D01*
X008513Y017574D01*
X008569Y017602D01*
X008627Y017626D01*
X008686Y017647D01*
X008746Y017663D01*
X008807Y017676D01*
X008869Y017685D01*
X008931Y017690D01*
X008994Y017691D01*
X009056Y017688D01*
X009118Y017681D01*
X009180Y017670D01*
X009240Y017655D01*
X009300Y017637D01*
X009358Y017615D01*
X009415Y017589D01*
X009470Y017559D01*
X009523Y017526D01*
X009574Y017490D01*
X009622Y017451D01*
X009668Y017408D01*
X009711Y017363D01*
X009751Y017315D01*
X009788Y017265D01*
X009822Y017212D01*
X009853Y017158D01*
X009879Y017102D01*
X009903Y017044D01*
X009922Y016984D01*
X009938Y016924D01*
X009950Y016862D01*
X009958Y016801D01*
X009962Y016738D01*
X009962Y016676D01*
X009958Y016613D01*
X009950Y016552D01*
X009938Y016490D01*
X009922Y016430D01*
X009903Y016370D01*
X009879Y016312D01*
X009853Y016256D01*
X009822Y016202D01*
X009788Y016149D01*
X009751Y016099D01*
X009711Y016051D01*
X009668Y016006D01*
X009622Y015963D01*
X009574Y015924D01*
X009523Y015888D01*
X009470Y015855D01*
X009415Y015825D01*
X009358Y015799D01*
X009300Y015777D01*
X009240Y015759D01*
X009180Y015744D01*
X009118Y015733D01*
X009056Y015726D01*
X008994Y015723D01*
X008931Y015724D01*
X008869Y015729D01*
X008807Y015738D01*
X008746Y015751D01*
X008686Y015767D01*
X008627Y015788D01*
X008569Y015812D01*
X008513Y015840D01*
X008459Y015871D01*
X008407Y015905D01*
X008358Y015943D01*
X008310Y015984D01*
X008266Y016028D01*
X008224Y016074D01*
X008186Y016124D01*
X008150Y016175D01*
X008118Y016229D01*
X008090Y016284D01*
X008064Y016341D01*
X008043Y016400D01*
X008026Y016460D01*
X008012Y016521D01*
X008002Y016582D01*
X007996Y016645D01*
X007994Y016707D01*
D16*
X007147Y015375D03*
D17*
X007287Y015195D02*
X006137Y015195D01*
X007287Y015195D02*
X007387Y015295D01*
X007387Y019095D01*
X007287Y019195D01*
X006137Y019195D01*
X008136Y019307D02*
X008136Y018807D01*
X008138Y018781D01*
X008143Y018755D01*
X008151Y018730D01*
X008163Y018707D01*
X008177Y018685D01*
X008195Y018666D01*
X008214Y018648D01*
X008236Y018634D01*
X008259Y018622D01*
X008284Y018614D01*
X008310Y018609D01*
X008336Y018607D01*
X009636Y018607D01*
X009662Y018609D01*
X009688Y018614D01*
X009713Y018622D01*
X009736Y018634D01*
X009758Y018648D01*
X009777Y018666D01*
X009795Y018685D01*
X009809Y018707D01*
X009821Y018730D01*
X009829Y018755D01*
X009834Y018781D01*
X009836Y018807D01*
X009836Y019307D01*
X009834Y019333D01*
X009829Y019359D01*
X009821Y019384D01*
X009809Y019407D01*
X009795Y019429D01*
X009777Y019448D01*
X009758Y019466D01*
X009736Y019480D01*
X009713Y019492D01*
X009688Y019500D01*
X009662Y019505D01*
X009636Y019507D01*
X008336Y019507D01*
X008310Y019505D01*
X008284Y019500D01*
X008259Y019492D01*
X008236Y019480D01*
X008214Y019466D01*
X008195Y019448D01*
X008177Y019429D01*
X008163Y019407D01*
X008151Y019384D01*
X008143Y019359D01*
X008138Y019333D01*
X008136Y019307D01*
X010567Y017545D02*
X011067Y017545D01*
X011093Y017543D01*
X011119Y017538D01*
X011144Y017530D01*
X011167Y017518D01*
X011189Y017504D01*
X011208Y017486D01*
X011226Y017467D01*
X011240Y017445D01*
X011252Y017422D01*
X011260Y017397D01*
X011265Y017371D01*
X011267Y017345D01*
X011267Y016045D01*
X011265Y016019D01*
X011260Y015993D01*
X011252Y015968D01*
X011240Y015945D01*
X011226Y015923D01*
X011208Y015904D01*
X011189Y015886D01*
X011167Y015872D01*
X011144Y015860D01*
X011119Y015852D01*
X011093Y015847D01*
X011067Y015845D01*
X010567Y015845D01*
X010541Y015847D01*
X010515Y015852D01*
X010490Y015860D01*
X010467Y015872D01*
X010445Y015886D01*
X010426Y015904D01*
X010408Y015923D01*
X010394Y015945D01*
X010382Y015968D01*
X010374Y015993D01*
X010369Y016019D01*
X010367Y016045D01*
X010367Y017345D01*
X010369Y017371D01*
X010374Y017397D01*
X010382Y017422D01*
X010394Y017445D01*
X010408Y017467D01*
X010426Y017486D01*
X010445Y017504D01*
X010467Y017518D01*
X010490Y017530D01*
X010515Y017538D01*
X010541Y017543D01*
X010567Y017545D01*
X011079Y018434D02*
X011109Y018399D01*
X011140Y018366D01*
X011175Y018336D01*
X011211Y018309D01*
X011249Y018285D01*
X011289Y018263D01*
X011331Y018245D01*
X011374Y018229D01*
X011418Y018217D01*
X011462Y018209D01*
X011508Y018204D01*
X011553Y018202D01*
X011598Y018204D01*
X011644Y018209D01*
X011688Y018217D01*
X011732Y018229D01*
X011775Y018245D01*
X011817Y018263D01*
X011857Y018285D01*
X011895Y018309D01*
X011931Y018336D01*
X011966Y018366D01*
X011997Y018399D01*
X012027Y018434D01*
X011553Y019402D02*
X011507Y019400D01*
X011461Y019395D01*
X011415Y019386D01*
X011370Y019374D01*
X011327Y019358D01*
X011285Y019339D01*
X011244Y019316D01*
X011205Y019291D01*
X011169Y019263D01*
X011134Y019232D01*
X011102Y019198D01*
X011073Y019162D01*
X011553Y019402D02*
X011600Y019400D01*
X011648Y019394D01*
X011694Y019385D01*
X011740Y019372D01*
X011784Y019356D01*
X011828Y019336D01*
X011869Y019312D01*
X011908Y019286D01*
X011945Y019256D01*
X011980Y019223D01*
X012012Y019188D01*
X012041Y019151D01*
X013048Y017727D02*
X013048Y017577D01*
X013098Y017527D01*
X013098Y015627D01*
X013048Y015577D01*
X013048Y015427D01*
X013050Y015410D01*
X013054Y015393D01*
X013061Y015377D01*
X013071Y015363D01*
X013084Y015350D01*
X013098Y015340D01*
X013114Y015333D01*
X013131Y015329D01*
X013148Y015327D01*
X013848Y015327D02*
X013865Y015329D01*
X013882Y015333D01*
X013898Y015340D01*
X013912Y015350D01*
X013925Y015363D01*
X013935Y015377D01*
X013942Y015393D01*
X013946Y015410D01*
X013948Y015427D01*
X013948Y015577D01*
X013898Y015627D01*
X013898Y017527D01*
X013948Y017577D01*
X013948Y017727D01*
X013946Y017744D01*
X013942Y017761D01*
X013935Y017777D01*
X013925Y017791D01*
X013912Y017804D01*
X013898Y017814D01*
X013882Y017821D01*
X013865Y017825D01*
X013848Y017827D01*
X013148Y017827D02*
X013131Y017825D01*
X013114Y017821D01*
X013098Y017814D01*
X013084Y017804D01*
X013071Y017791D01*
X013061Y017777D01*
X013054Y017761D01*
X013050Y017744D01*
X013048Y017727D01*
X014647Y017027D02*
X014797Y017027D01*
X014847Y016977D01*
X016747Y016977D01*
X016797Y017027D01*
X016947Y017027D01*
X016964Y017025D01*
X016981Y017021D01*
X016997Y017014D01*
X017011Y017004D01*
X017024Y016991D01*
X017034Y016977D01*
X017041Y016961D01*
X017045Y016944D01*
X017047Y016927D01*
X017047Y016227D02*
X017045Y016210D01*
X017041Y016193D01*
X017034Y016177D01*
X017024Y016163D01*
X017011Y016150D01*
X016997Y016140D01*
X016981Y016133D01*
X016964Y016129D01*
X016947Y016127D01*
X016797Y016127D01*
X016747Y016177D01*
X014847Y016177D01*
X014797Y016127D01*
X014647Y016127D01*
X014630Y016129D01*
X014613Y016133D01*
X014597Y016140D01*
X014583Y016150D01*
X014570Y016163D01*
X014560Y016177D01*
X014553Y016193D01*
X014549Y016210D01*
X014547Y016227D01*
X014547Y016927D02*
X014549Y016944D01*
X014553Y016961D01*
X014560Y016977D01*
X014570Y016991D01*
X014583Y017004D01*
X014597Y017014D01*
X014613Y017021D01*
X014630Y017025D01*
X014647Y017027D01*
X015382Y015267D02*
X015382Y015117D01*
X015432Y015067D01*
X015432Y013167D01*
X015382Y013117D01*
X015382Y012967D01*
X015384Y012950D01*
X015388Y012933D01*
X015395Y012917D01*
X015405Y012903D01*
X015418Y012890D01*
X015432Y012880D01*
X015448Y012873D01*
X015465Y012869D01*
X015482Y012867D01*
X016182Y012867D02*
X016199Y012869D01*
X016216Y012873D01*
X016232Y012880D01*
X016246Y012890D01*
X016259Y012903D01*
X016269Y012917D01*
X016276Y012933D01*
X016280Y012950D01*
X016282Y012967D01*
X016282Y013117D01*
X016232Y013167D01*
X016232Y015067D01*
X016282Y015117D01*
X016282Y015267D01*
X016280Y015284D01*
X016276Y015301D01*
X016269Y015317D01*
X016259Y015331D01*
X016246Y015344D01*
X016232Y015354D01*
X016216Y015361D01*
X016199Y015365D01*
X016182Y015367D01*
X015482Y015367D02*
X015465Y015365D01*
X015448Y015361D01*
X015432Y015354D01*
X015418Y015344D01*
X015405Y015331D01*
X015395Y015317D01*
X015388Y015301D01*
X015384Y015284D01*
X015382Y015267D01*
X013885Y014196D02*
X013885Y012896D01*
X013883Y012870D01*
X013878Y012844D01*
X013870Y012819D01*
X013858Y012796D01*
X013844Y012774D01*
X013826Y012755D01*
X013807Y012737D01*
X013785Y012723D01*
X013762Y012711D01*
X013737Y012703D01*
X013711Y012698D01*
X013685Y012696D01*
X013185Y012696D01*
X013159Y012698D01*
X013133Y012703D01*
X013108Y012711D01*
X013085Y012723D01*
X013063Y012737D01*
X013044Y012755D01*
X013026Y012774D01*
X013012Y012796D01*
X013000Y012819D01*
X012992Y012844D01*
X012987Y012870D01*
X012985Y012896D01*
X012985Y014196D01*
X012987Y014222D01*
X012992Y014248D01*
X013000Y014273D01*
X013012Y014296D01*
X013026Y014318D01*
X013044Y014337D01*
X013063Y014355D01*
X013085Y014369D01*
X013108Y014381D01*
X013133Y014389D01*
X013159Y014394D01*
X013185Y014396D01*
X013685Y014396D01*
X013711Y014394D01*
X013737Y014389D01*
X013762Y014381D01*
X013785Y014369D01*
X013807Y014355D01*
X013826Y014337D01*
X013844Y014318D01*
X013858Y014296D01*
X013870Y014273D01*
X013878Y014248D01*
X013883Y014222D01*
X013885Y014196D01*
X015241Y011263D02*
X015241Y011113D01*
X015291Y011063D01*
X015291Y009163D01*
X015241Y009113D01*
X015241Y008963D01*
X015243Y008946D01*
X015247Y008929D01*
X015254Y008913D01*
X015264Y008899D01*
X015277Y008886D01*
X015291Y008876D01*
X015307Y008869D01*
X015324Y008865D01*
X015341Y008863D01*
X016041Y008863D02*
X016058Y008865D01*
X016075Y008869D01*
X016091Y008876D01*
X016105Y008886D01*
X016118Y008899D01*
X016128Y008913D01*
X016135Y008929D01*
X016139Y008946D01*
X016141Y008963D01*
X016141Y009113D01*
X016091Y009163D01*
X016091Y011063D01*
X016141Y011113D01*
X016141Y011263D01*
X016139Y011280D01*
X016135Y011297D01*
X016128Y011313D01*
X016118Y011327D01*
X016105Y011340D01*
X016091Y011350D01*
X016075Y011357D01*
X016058Y011361D01*
X016041Y011363D01*
X015341Y011363D02*
X015324Y011361D01*
X015307Y011357D01*
X015291Y011350D01*
X015277Y011340D01*
X015264Y011327D01*
X015254Y011313D01*
X015247Y011297D01*
X015243Y011280D01*
X015241Y011263D01*
X016310Y007235D02*
X016308Y007190D01*
X016303Y007144D01*
X016295Y007100D01*
X016283Y007056D01*
X016267Y007013D01*
X016249Y006971D01*
X016227Y006931D01*
X016203Y006893D01*
X016176Y006857D01*
X016146Y006822D01*
X016113Y006791D01*
X016078Y006761D01*
X016310Y007235D02*
X016308Y007280D01*
X016303Y007326D01*
X016295Y007370D01*
X016283Y007414D01*
X016267Y007457D01*
X016249Y007499D01*
X016227Y007539D01*
X016203Y007577D01*
X016176Y007613D01*
X016146Y007648D01*
X016113Y007679D01*
X016078Y007709D01*
X015110Y007235D02*
X015112Y007189D01*
X015117Y007143D01*
X015126Y007097D01*
X015138Y007052D01*
X015154Y007009D01*
X015173Y006967D01*
X015196Y006926D01*
X015221Y006887D01*
X015249Y006851D01*
X015280Y006816D01*
X015314Y006784D01*
X015350Y006755D01*
X015110Y007235D02*
X015112Y007282D01*
X015118Y007330D01*
X015127Y007376D01*
X015140Y007422D01*
X015156Y007466D01*
X015176Y007510D01*
X015200Y007551D01*
X015226Y007590D01*
X015256Y007627D01*
X015289Y007662D01*
X015324Y007694D01*
X015361Y007723D01*
X016304Y004144D02*
X016304Y003994D01*
X016354Y003944D01*
X016354Y002044D01*
X016304Y001994D01*
X016304Y001844D01*
X016306Y001827D01*
X016310Y001810D01*
X016317Y001794D01*
X016327Y001780D01*
X016340Y001767D01*
X016354Y001757D01*
X016370Y001750D01*
X016387Y001746D01*
X016404Y001744D01*
X017104Y001744D02*
X017121Y001746D01*
X017138Y001750D01*
X017154Y001757D01*
X017168Y001767D01*
X017181Y001780D01*
X017191Y001794D01*
X017198Y001810D01*
X017202Y001827D01*
X017204Y001844D01*
X017204Y001994D01*
X017154Y002044D01*
X017154Y003944D01*
X017204Y003994D01*
X017204Y004144D01*
X017202Y004161D01*
X017198Y004178D01*
X017191Y004194D01*
X017181Y004208D01*
X017168Y004221D01*
X017154Y004231D01*
X017138Y004238D01*
X017121Y004242D01*
X017104Y004244D01*
X016404Y004244D02*
X016387Y004242D01*
X016370Y004238D01*
X016354Y004231D01*
X016340Y004221D01*
X016327Y004208D01*
X016317Y004194D01*
X016310Y004178D01*
X016306Y004161D01*
X016304Y004144D01*
X013608Y000926D02*
X013563Y000928D01*
X013517Y000933D01*
X013473Y000941D01*
X013429Y000953D01*
X013386Y000969D01*
X013344Y000987D01*
X013304Y001009D01*
X013266Y001033D01*
X013230Y001060D01*
X013195Y001090D01*
X013164Y001123D01*
X013134Y001158D01*
X013608Y000926D02*
X013653Y000928D01*
X013699Y000933D01*
X013743Y000941D01*
X013787Y000953D01*
X013830Y000969D01*
X013872Y000987D01*
X013912Y001009D01*
X013950Y001033D01*
X013986Y001060D01*
X014021Y001090D01*
X014052Y001123D01*
X014082Y001158D01*
X013608Y002126D02*
X013562Y002124D01*
X013516Y002119D01*
X013470Y002110D01*
X013425Y002098D01*
X013382Y002082D01*
X013340Y002063D01*
X013299Y002040D01*
X013260Y002015D01*
X013224Y001987D01*
X013189Y001956D01*
X013157Y001922D01*
X013128Y001886D01*
X013608Y002126D02*
X013655Y002124D01*
X013703Y002118D01*
X013749Y002109D01*
X013795Y002096D01*
X013839Y002080D01*
X013883Y002060D01*
X013924Y002036D01*
X013963Y002010D01*
X014000Y001980D01*
X014035Y001947D01*
X014067Y001912D01*
X014096Y001875D01*
X006202Y002211D02*
X006202Y002711D01*
X006200Y002737D01*
X006195Y002763D01*
X006187Y002788D01*
X006175Y002811D01*
X006161Y002833D01*
X006143Y002852D01*
X006124Y002870D01*
X006102Y002884D01*
X006079Y002896D01*
X006054Y002904D01*
X006028Y002909D01*
X006002Y002911D01*
X004702Y002911D01*
X004676Y002909D01*
X004650Y002904D01*
X004625Y002896D01*
X004602Y002884D01*
X004580Y002870D01*
X004561Y002852D01*
X004543Y002833D01*
X004529Y002811D01*
X004517Y002788D01*
X004509Y002763D01*
X004504Y002737D01*
X004502Y002711D01*
X004502Y002211D01*
X004504Y002185D01*
X004509Y002159D01*
X004517Y002134D01*
X004529Y002111D01*
X004543Y002089D01*
X004561Y002070D01*
X004580Y002052D01*
X004602Y002038D01*
X004625Y002026D01*
X004650Y002018D01*
X004676Y002013D01*
X004702Y002011D01*
X006002Y002011D01*
X006028Y002013D01*
X006054Y002018D01*
X006079Y002026D01*
X006102Y002038D01*
X006124Y002052D01*
X006143Y002070D01*
X006161Y002089D01*
X006175Y002111D01*
X006187Y002134D01*
X006195Y002159D01*
X006200Y002185D01*
X006202Y002211D01*
D18*
X005937Y015470D03*
X005937Y018920D03*
D19*
X005837Y018195D03*
X005837Y017195D03*
X005837Y016195D03*
D20*
X005937Y016695D03*
X005937Y017695D03*
D21*
X008866Y018757D02*
X008866Y019357D01*
X009116Y019357D02*
X009116Y018757D01*
X010517Y016825D02*
X011117Y016825D01*
X011117Y016575D02*
X010517Y016575D01*
X013135Y013676D02*
X013735Y013676D01*
X013735Y013426D02*
X013135Y013426D01*
X005472Y002761D02*
X005472Y002161D01*
X005222Y002161D02*
X005222Y002761D01*
M02*
