  0
SECTION
  2
HEADER
  9
$ACADVER
  1
AC1009
  9
$DWGCODEPAGE
  3
undefined
  9
$INSBASE
 10
0.0
 20
0.0
 30
0.0
  9
$EXTMIN
 10
1.000000000000000E+20
 20
1.000000000000000E+20
 30
1.000000000000000E+20
  9
$EXTMAX
 10
-1.000000000000000E+20
 20
-1.000000000000000E+20
 30
-1.000000000000000E+20
  9
$LIMMIN
 10
0.0
 20
0.0
  9
$LIMMAX
 10
12.0
 20
9.0
  9
$ORTHOMODE
 70
     0
  9
$REGENMODE
 70
     1
  9
$FILLMODE
 70
     1
  9
$QTEXTMODE
 70
     0
  9
$MIRRTEXT
 70
     1
  9
$DRAGMODE
 70
     2
  9
$LTSCALE
 40
1.0
  9
$OSMODE
 70
    37
  9
$ATTMODE
 70
     1
  9
$TEXTSIZE
 40
0.2
  9
$TRACEWID
 40
0.05
  9
$TEXTSTYLE
  7
STANDARD
  9
$CLAYER
  8
0
  9
$CELTYPE
  6
BYLAYER
  9
$CECOLOR
 62
   256
  9
$DIMSCALE
 40
1.0
  9
$DIMASZ
 40
0.18
  9
$DIMEXO
 40
0.0625
  9
$DIMDLI
 40
0.38
  9
$DIMRND
 40
0.0
  9
$DIMDLE
 40
0.0
  9
$DIMEXE
 40
0.18
  9
$DIMTP
 40
0.0
  9
$DIMTM
 40
0.0
  9
$DIMTXT
 40
0.18
  9
$DIMCEN
 40
0.09
  9
$DIMTSZ
 40
0.0
  9
$DIMTOL
 70
     0
  9
$DIMLIM
 70
     0
  9
$DIMTIH
 70
     1
  9
$DIMTOH
 70
     1
  9
$DIMSE1
 70
     0
  9
$DIMSE2
 70
     0
  9
$DIMTAD
 70
     0
  9
$DIMZIN
 70
     0
  9
$DIMBLK
  1

  9
$DIMASO
 70
     1
  9
$DIMSHO
 70
     1
  9
$DIMPOST
  1

  9
$DIMAPOST
  1

  9
$DIMALT
 70
     0
  9
$DIMALTD
 70
     2
  9
$DIMALTF
 40
25.4
  9
$DIMLFAC
 40
1.0
  9
$DIMTOFL
 70
     0
  9
$DIMTVP
 40
0.0
  9
$DIMTIX
 70
     0
  9
$DIMSOXD
 70
     0
  9
$DIMSAH
 70
     0
  9
$DIMBLK1
  1

  9
$DIMBLK2
  1

  9
$DIMSTYLE
  2
STANDARD
  9
$DIMCLRD
 70
     0
  9
$DIMCLRE
 70
     0
  9
$DIMCLRT
 70
     0
  9
$DIMTFAC
 40
1.0
  9
$DIMGAP
 40
0.09
  9
$LUNITS
 70
     2
  9
$LUPREC
 70
     4
  9
$SKETCHINC
 40
0.1
  9
$FILLETRAD
 40
0.5
  9
$AUNITS
 70
     0
  9
$AUPREC
 70
     0
  9
$MENU
  1
.
  9
$ELEVATION
 40
0.0
  9
$PELEVATION
 40
0.0
  9
$THICKNESS
 40
0.0
  9
$LIMCHECK
 70
     0
  9
$CHAMFERA
 40
0.0
  9
$CHAMFERB
 40
0.0
  9
$SKPOLY
 70
     0
  9
$TDCREATE
 40
2457150.626863426
  9
$TDUPDATE
 40
2457150.626863426
  9
$TDINDWG
 40
0.0000000116
  9
$TDUSRTIMER
 40
0.0000000116
  9
$USRTIMER
 70
     1
  9
$ANGBASE
 50
0.0
  9
$ANGDIR
 70
     0
  9
$PDMODE
 70
     0
  9
$PDSIZE
 40
0.0
  9
$PLINEWID
 40
0.0
  9
$COORDS
 70
     1
  9
$SPLFRAME
 70
     0
  9
$SPLINETYPE
 70
     6
  9
$SPLINESEGS
 70
     8
  9
$ATTDIA
 70
     0
  9
$ATTREQ
 70
     1
  9
$HANDLING
 70
     1
  9
$HANDSEED
  5
100006BB
  9
$SURFTAB1
 70
     6
  9
$SURFTAB2
 70
     6
  9
$SURFTYPE
 70
     6
  9
$SURFU
 70
     6
  9
$SURFV
 70
     6
  9
$UCSNAME
  2

  9
$UCSORG
 10
0.0
 20
0.0
 30
0.0
  9
$UCSXDIR
 10
1.0
 20
0.0
 30
0.0
  9
$UCSYDIR
 10
0.0
 20
1.0
 30
0.0
  9
$PUCSNAME
  2

  9
$PUCSORG
 10
0.0
 20
0.0
 30
0.0
  9
$PUCSXDIR
 10
1.0
 20
0.0
 30
0.0
  9
$PUCSYDIR
 10
0.0
 20
1.0
 30
0.0
  9
$USERI1
 70
     0
  9
$USERI2
 70
     0
  9
$USERI3
 70
     0
  9
$USERI4
 70
     0
  9
$USERI5
 70
     0
  9
$USERR1
 40
0.0
  9
$USERR2
 40
0.0
  9
$USERR3
 40
0.0
  9
$USERR4
 40
0.0
  9
$USERR5
 40
0.0
  9
$WORLDVIEW
 70
     1
  9
$SHADEDGE
 70
     3
  9
$SHADEDIF
 70
    70
  9
$TILEMODE
 70
     1
  9
$MAXACTVP
 70
    64
  9
$PLIMCHECK
 70
     0
  9
$PEXTMIN
 10
1.000000000000000E+20
 20
1.000000000000000E+20
 30
1.000000000000000E+20
  9
$PEXTMAX
 10
-1.000000000000000E+20
 20
-1.000000000000000E+20
 30
-1.000000000000000E+20
  9
$PLIMMIN
 10
0.0
 20
0.0
  9
$PLIMMAX
 10
12.0
 20
9.0
  9
$UNITMODE
 70
     0
  9
$VISRETAIN
 70
     1
  9
$PLINEGEN
 70
     0
  9
$PSLTSCALE
 70
     1
  0
ENDSEC
  0
SECTION
  2
TABLES
  0
TABLE
  2
VPORT
 70
     1
  0
VPORT
  2
*ACTIVE
 70
     0
 10
0.0
 20
0.0
 11
1.0
 21
1.0
 12
10.42990654205607
 22
4.5
 13
0.0
 23
0.0
 14
0.5
 24
0.5
 15
0.5
 25
0.5
 16
0.0
 26
0.0
 36
1.0
 17
0.0
 27
0.0
 37
0.0
 40
9.0
 41
1.972972972850329
 42
50.0
 43
0.0
 44
0.0
 50
0.0
 51
0.0
 71
     0
 72
   100
 73
     1
 74
     3
 75
     0
 76
     0
 77
     0
 78
     0
  0
ENDTAB
  0
TABLE
  2
LTYPE
 70
     5
  0
LTYPE
  2
CONTINUOUS
 70
     0
  3
Solid line
 72
    65
 73
     0
 40
0.0
  0
LTYPE
  2
HIDDEN
 70
     0
  3
Hidden line ____ ____ ____ ____ 
 72
    83
 73
     2
 40
0.125
 49
0.25
 49
-0.125
  0
LTYPE
  2
PHANTOM
 70
     0
  3
Phantom line ______  __  __  ______  __  __
 72
    83
 73
     6
 40
0.5
 49
0.625
 49
-0.125
 49
0.125
 49
-0.125
 49
0.125
 49
-0.125
  0
LTYPE
  2
CENTER
 70
     0
  3
Center line ____ _ ____ _ ____ _
 72
    83
 73
     4
 40
0.5
 49
0.625
 49
-0.125
 49
0.125
 49
-0.125
  0
LTYPE
  2
DASHED
 70
     0
  3
Dashed line __ __ __ __
 72
    83
 73
     2
 40
0.25
 49
0.5
 49
-0.25
  0
ENDTAB
  0
TABLE
  2
LAYER
 70
     3
  0
LAYER
  2
0
 70
     0
 62
     7
  6
CONTINUOUS
  0
LAYER
  2
HIDDEN
 70
     0
 62
    -7
  6
HIDDEN
  0
LAYER
  2
VISIBLE
 70
     0
 62
     7
  6
CONTINUOUS
  0
ENDTAB
  0
TABLE
  2
STYLE
 70
     2
  0
STYLE
  2
STANDARD
 70
     0
 40
0.0
 41
1.0
 50
0.0
 71
     0
 42
0.2
  3
txt
  4

  0
STYLE
  2
ODATTFSTYLE
 70
     0
 40
0.0
 41
1.0
 50
0.0
 71
     0
 42
0.2
  3
Verdana.ttf
  4

  0
ENDTAB
  0
TABLE
  2
VIEW
 70
     0
  0
ENDTAB
  0
TABLE
  2
UCS
 70
     0
  0
ENDTAB
  0
TABLE
  2
APPID
 70
     1
  0
APPID
  2
ACAD
 70
     0
  0
ENDTAB
  0
TABLE
  2
DIMSTYLE
 70
     1
  0
DIMSTYLE
  2
STANDARD
 70
     0
  3

  4

  5

  6

  7

 40
1.0
 41
0.18
 42
0.0625
 43
0.38
 44
0.18
 45
0.0
 46
0.0
 47
0.0
 48
0.0
140
0.18
141
0.09
142
0.0
143
25.4
144
1.0
145
0.0
146
1.0
147
0.09
 71
     0
 72
     0
 73
     1
 74
     1
 75
     0
 76
     0
 77
     0
 78
     0
170
     0
171
     2
172
     0
173
     0
174
     0
175
     0
176
     0
177
     0
178
     0
  0
ENDTAB
  0
ENDSEC
  0
SECTION
  2
BLOCKS
  0
BLOCK
  8
0
  2
$MODEL_SPACE
 70
     0
 10
0.0
 20
0.0
 30
0.0
  3
$MODEL_SPACE
  1

  0
ENDBLK
  5
21
  8
0
  0
BLOCK
 67
     1
  8
0
  2
$PAPER_SPACE
 70
     0
 10
0.0
 20
0.0
 30
0.0
  3
$PAPER_SPACE
  1

  0
ENDBLK
  5
1D
 67
     1
  8
0
  0
ENDSEC
  0
SECTION
  2
ENTITIES
  0
POLYLINE
  5
F5403
  8
VISIBLE
 10
0.0
 20
0.0
 30
0.0
 66
     1
 70
     8
  0
VERTEX
  5
10000028
  8
VISIBLE
 10
1.765994145044567
 20
-1.213468030133962
 30
0.125
 70
    32
  0
VERTEX
  5
10000029
  8
VISIBLE
 10
1.767886265269966
 20
-1.300918718109839
 30
0.125
 70
    32
  0
VERTEX
  5
1000002A
  8
VISIBLE
 10
1.769778385495365
 20
-1.385622264055061
 30
0.125
 70
    32
  0
VERTEX
  5
1000002B
  8
VISIBLE
 10
1.771670505720764
 20
-1.464831525938971
 30
0.125
 70
    32
  0
VERTEX
  5
1000002C
  8
VISIBLE
 10
1.773562625946163
 20
-1.535799361730914
 30
0.125
 70
    32
  0
VERTEX
  5
1000002D
  8
VISIBLE
 10
1.774981716115212
 20
-1.5819642250742
 30
0.125
 70
    32
  0
VERTEX
  5
1000002E
  8
VISIBLE
 10
1.776400806284262
 20
-1.620789068304328
 30
0.125
 70
    32
  0
VERTEX
  5
1000002F
  8
VISIBLE
 10
1.777819896453311
 20
-1.651114940877116
 30
0.125
 70
    32
  0
VERTEX
  5
10000030
  8
VISIBLE
 10
1.77923898662236
 20
-1.671782892248378
 30
0.125
 70
    32
  0
VERTEX
  5
10000031
  8
VISIBLE
 10
1.780033677117028
 20
-1.678706382445422
 30
0.125
 70
    32
  0
VERTEX
  5
10000032
  8
VISIBLE
 10
1.78065807679141
 20
-1.681633971873933
 30
0.125
 70
    32
  0
VERTEX
  5
10000033
  8
VISIBLE
 10
1.780894591819584
 20
-1.682142801240939
 30
0.125
 70
    32
  0
VERTEX
  5
10000034
  8
VISIBLE
 10
1.781131106847759
 20
-1.682313603365892
 30
0.125
 70
    32
  0
VERTEX
  5
10000035
  8
VISIBLE
 10
1.781367621875934
 20
-1.682142801240939
 30
0.125
 70
    32
  0
VERTEX
  5
10000036
  8
VISIBLE
 10
1.781604136904108
 20
-1.681633971873933
 30
0.125
 70
    32
  0
VERTEX
  5
10000037
  8
VISIBLE
 10
1.782398827398777
 20
-1.677518541582074
 30
0.125
 70
    32
  0
VERTEX
  5
10000038
  8
VISIBLE
 10
1.783023227073158
 20
-1.671782892248378
 30
0.125
 70
    32
  0
VERTEX
  5
10000039
  8
VISIBLE
 10
1.784442317242207
 20
-1.651114940877116
 30
0.125
 70
    32
  0
VERTEX
  5
1000003A
  8
VISIBLE
 10
1.785861407411257
 20
-1.620789068304329
 30
0.125
 70
    32
  0
VERTEX
  5
1000003B
  8
VISIBLE
 10
1.787280497580306
 20
-1.5819642250742
 30
0.125
 70
    32
  0
VERTEX
  5
1000003C
  8
VISIBLE
 10
1.788699587749355
 20
-1.535799361730914
 30
0.125
 70
    32
  0
VERTEX
  5
1000003D
  8
VISIBLE
 10
1.790591707974754
 20
-1.464831525938971
 30
0.125
 70
    32
  0
VERTEX
  5
1000003E
  8
VISIBLE
 10
1.792483828200153
 20
-1.385622264055061
 30
0.125
 70
    32
  0
VERTEX
  5
1000003F
  8
VISIBLE
 10
1.794375948425553
 20
-1.300918718109839
 30
0.125
 70
    32
  0
VERTEX
  5
10000040
  8
VISIBLE
 10
1.796268068650952
 20
-1.213468030133962
 30
0.125
 70
    32
  0
SEQEND
  5
10000679
  8
VISIBLE
  0
POLYLINE
  5
F5404
  8
VISIBLE
 10
0.0
 20
0.0
 30
0.0
 66
     1
 70
     8
  0
VERTEX
  5
10000043
  8
VISIBLE
 10
1.765994145044567
 20
-1.213468030133962
 30
0.125
 70
    32
  0
VERTEX
  5
10000044
  8
VISIBLE
 10
1.767886265269966
 20
-1.126017342158084
 30
0.125
 70
    32
  0
VERTEX
  5
10000045
  8
VISIBLE
 10
1.769778385495365
 20
-1.041313796212862
 30
0.125
 70
    32
  0
VERTEX
  5
10000046
  8
VISIBLE
 10
1.771670505720764
 20
-0.9621045343289525
 30
0.125
 70
    32
  0
VERTEX
  5
10000047
  8
VISIBLE
 10
1.773562625946163
 20
-0.8911366985370097
 30
0.125
 70
    32
  0
VERTEX
  5
10000048
  8
VISIBLE
 10
1.774981716115212
 20
-0.8449718351937229
 30
0.125
 70
    32
  0
VERTEX
  5
10000049
  8
VISIBLE
 10
1.776400806284262
 20
-0.8061469919635945
 30
0.125
 70
    32
  0
VERTEX
  5
1000004A
  8
VISIBLE
 10
1.777819896453311
 20
-0.7758211193908079
 30
0.125
 70
    32
  0
VERTEX
  5
1000004B
  8
VISIBLE
 10
1.77923898662236
 20
-0.7551531680195454
 30
0.125
 70
    32
  0
VERTEX
  5
1000004C
  8
VISIBLE
 10
1.780033677117028
 20
-0.7482296778225009
 30
0.125
 70
    32
  0
VERTEX
  5
1000004D
  8
VISIBLE
 10
1.78065807679141
 20
-0.7453020883939905
 30
0.125
 70
    32
  0
VERTEX
  5
1000004E
  8
VISIBLE
 10
1.780894591819584
 20
-0.7447932590269842
 30
0.125
 70
    32
  0
VERTEX
  5
1000004F
  8
VISIBLE
 10
1.781131106847759
 20
-0.7446224569020313
 30
0.125
 70
    32
  0
VERTEX
  5
10000050
  8
VISIBLE
 10
1.781367621875934
 20
-0.7447932590269842
 30
0.125
 70
    32
  0
VERTEX
  5
10000051
  8
VISIBLE
 10
1.781604136904109
 20
-0.7453020883939905
 30
0.125
 70
    32
  0
VERTEX
  5
10000052
  8
VISIBLE
 10
1.782398827398777
 20
-0.7494175186858495
 30
0.125
 70
    32
  0
VERTEX
  5
10000053
  8
VISIBLE
 10
1.783023227073159
 20
-0.7551531680195454
 30
0.125
 70
    32
  0
VERTEX
  5
10000054
  8
VISIBLE
 10
1.784442317242207
 20
-0.7758211193908077
 30
0.125
 70
    32
  0
VERTEX
  5
10000055
  8
VISIBLE
 10
1.785861407411257
 20
-0.8061469919635943
 30
0.125
 70
    32
  0
VERTEX
  5
10000056
  8
VISIBLE
 10
1.787280497580306
 20
-0.8449718351937228
 30
0.125
 70
    32
  0
VERTEX
  5
10000057
  8
VISIBLE
 10
1.788699587749355
 20
-0.8911366985370097
 30
0.125
 70
    32
  0
VERTEX
  5
10000058
  8
VISIBLE
 10
1.790591707974754
 20
-0.9621045343289522
 30
0.125
 70
    32
  0
VERTEX
  5
10000059
  8
VISIBLE
 10
1.792483828200153
 20
-1.041313796212862
 30
0.125
 70
    32
  0
VERTEX
  5
1000005A
  8
VISIBLE
 10
1.794375948425553
 20
-1.126017342158084
 30
0.125
 70
    32
  0
VERTEX
  5
1000005B
  8
VISIBLE
 10
1.796268068650952
 20
-1.213468030133962
 30
0.125
 70
    32
  0
SEQEND
  5
1000067A
  8
VISIBLE
  0
POLYLINE
  5
F5405
  8
VISIBLE
 10
0.0
 20
0.0
 30
0.0
 66
     1
 70
     8
  0
VERTEX
  5
1000005E
  8
VISIBLE
 10
2.068733381108412
 20
-1.213468030133961
 30
0.125
 70
    32
  0
VERTEX
  5
1000005F
  8
VISIBLE
 10
2.070625501333811
 20
-1.300918718109839
 30
0.125
 70
    32
  0
VERTEX
  5
10000060
  8
VISIBLE
 10
2.07251762155921
 20
-1.385622264055061
 30
0.125
 70
    32
  0
VERTEX
  5
10000061
  8
VISIBLE
 10
2.074409741784609
 20
-1.464831525938971
 30
0.125
 70
    32
  0
VERTEX
  5
10000062
  8
VISIBLE
 10
2.076301862010008
 20
-1.535799361730914
 30
0.125
 70
    32
  0
VERTEX
  5
10000063
  8
VISIBLE
 10
2.077720952179057
 20
-1.5819642250742
 30
0.125
 70
    32
  0
VERTEX
  5
10000064
  8
VISIBLE
 10
2.079140042348106
 20
-1.620789068304328
 30
0.125
 70
    32
  0
VERTEX
  5
10000065
  8
VISIBLE
 10
2.080559132517156
 20
-1.651114940877116
 30
0.125
 70
    32
  0
VERTEX
  5
10000066
  8
VISIBLE
 10
2.081978222686204
 20
-1.671782892248378
 30
0.125
 70
    32
  0
VERTEX
  5
10000067
  8
VISIBLE
 10
2.082772913180873
 20
-1.678706382445422
 30
0.125
 70
    32
  0
VERTEX
  5
10000068
  8
VISIBLE
 10
2.083397312855254
 20
-1.681633971873933
 30
0.125
 70
    32
  0
VERTEX
  5
10000069
  8
VISIBLE
 10
2.083633827883429
 20
-1.682142801240939
 30
0.125
 70
    32
  0
VERTEX
  5
1000006A
  8
VISIBLE
 10
2.083870342911604
 20
-1.682313603365892
 30
0.125
 70
    32
  0
VERTEX
  5
1000006B
  8
VISIBLE
 10
2.084106857939779
 20
-1.682142801240939
 30
0.125
 70
    32
  0
VERTEX
  5
1000006C
  8
VISIBLE
 10
2.084343372967953
 20
-1.681633971873933
 30
0.125
 70
    32
  0
VERTEX
  5
1000006D
  8
VISIBLE
 10
2.085138063462621
 20
-1.677518541582074
 30
0.125
 70
    32
  0
VERTEX
  5
1000006E
  8
VISIBLE
 10
2.085762463137003
 20
-1.671782892248378
 30
0.125
 70
    32
  0
VERTEX
  5
1000006F
  8
VISIBLE
 10
2.087181553306052
 20
-1.651114940877116
 30
0.125
 70
    32
  0
VERTEX
  5
10000070
  8
VISIBLE
 10
2.088600643475102
 20
-1.620789068304328
 30
0.125
 70
    32
  0
VERTEX
  5
10000071
  8
VISIBLE
 10
2.090019733644151
 20
-1.5819642250742
 30
0.125
 70
    32
  0
VERTEX
  5
10000072
  8
VISIBLE
 10
2.0914388238132
 20
-1.535799361730914
 30
0.125
 70
    32
  0
VERTEX
  5
10000073
  8
VISIBLE
 10
2.093330944038599
 20
-1.464831525938971
 30
0.125
 70
    32
  0
VERTEX
  5
10000074
  8
VISIBLE
 10
2.095223064263998
 20
-1.385622264055061
 30
0.125
 70
    32
  0
VERTEX
  5
10000075
  8
VISIBLE
 10
2.097115184489397
 20
-1.300918718109839
 30
0.125
 70
    32
  0
VERTEX
  5
10000076
  8
VISIBLE
 10
2.099007304714796
 20
-1.213468030133961
 30
0.125
 70
    32
  0
SEQEND
  5
1000067B
  8
VISIBLE
  0
POLYLINE
  5
F5406
  8
VISIBLE
 10
0.0
 20
0.0
 30
0.0
 66
     1
 70
     8
  0
VERTEX
  5
10000079
  8
VISIBLE
 10
2.068733381108412
 20
-1.213468030133961
 30
0.125
 70
    32
  0
VERTEX
  5
1000007A
  8
VISIBLE
 10
2.070625501333811
 20
-1.126017342158084
 30
0.125
 70
    32
  0
VERTEX
  5
1000007B
  8
VISIBLE
 10
2.07251762155921
 20
-1.041313796212862
 30
0.125
 70
    32
  0
VERTEX
  5
1000007C
  8
VISIBLE
 10
2.074409741784609
 20
-0.9621045343289522
 30
0.125
 70
    32
  0
VERTEX
  5
1000007D
  8
VISIBLE
 10
2.076301862010008
 20
-0.8911366985370097
 30
0.125
 70
    32
  0
VERTEX
  5
1000007E
  8
VISIBLE
 10
2.077720952179057
 20
-0.8449718351937228
 30
0.125
 70
    32
  0
VERTEX
  5
1000007F
  8
VISIBLE
 10
2.079140042348106
 20
-0.8061469919635945
 30
0.125
 70
    32
  0
VERTEX
  5
10000080
  8
VISIBLE
 10
2.080559132517156
 20
-0.7758211193908077
 30
0.125
 70
    32
  0
VERTEX
  5
10000081
  8
VISIBLE
 10
2.081978222686204
 20
-0.7551531680195454
 30
0.125
 70
    32
  0
VERTEX
  5
10000082
  8
VISIBLE
 10
2.082772913180873
 20
-0.7482296778225009
 30
0.125
 70
    32
  0
VERTEX
  5
10000083
  8
VISIBLE
 10
2.083397312855254
 20
-0.7453020883939906
 30
0.125
 70
    32
  0
VERTEX
  5
10000084
  8
VISIBLE
 10
2.083633827883429
 20
-0.7447932590269842
 30
0.125
 70
    32
  0
VERTEX
  5
10000085
  8
VISIBLE
 10
2.083870342911604
 20
-0.7446224569020313
 30
0.125
 70
    32
  0
VERTEX
  5
10000086
  8
VISIBLE
 10
2.084106857939779
 20
-0.7447932590269842
 30
0.125
 70
    32
  0
VERTEX
  5
10000087
  8
VISIBLE
 10
2.084343372967953
 20
-0.7453020883939906
 30
0.125
 70
    32
  0
VERTEX
  5
10000088
  8
VISIBLE
 10
2.085138063462621
 20
-0.7494175186858495
 30
0.125
 70
    32
  0
VERTEX
  5
10000089
  8
VISIBLE
 10
2.085762463137003
 20
-0.7551531680195454
 30
0.125
 70
    32
  0
VERTEX
  5
1000008A
  8
VISIBLE
 10
2.087181553306052
 20
-0.7758211193908076
 30
0.125
 70
    32
  0
VERTEX
  5
1000008B
  8
VISIBLE
 10
2.088600643475102
 20
-0.8061469919635945
 30
0.125
 70
    32
  0
VERTEX
  5
1000008C
  8
VISIBLE
 10
2.090019733644151
 20
-0.8449718351937225
 30
0.125
 70
    32
  0
VERTEX
  5
1000008D
  8
VISIBLE
 10
2.0914388238132
 20
-0.8911366985370094
 30
0.125
 70
    32
  0
VERTEX
  5
1000008E
  8
VISIBLE
 10
2.093330944038599
 20
-0.9621045343289519
 30
0.125
 70
    32
  0
VERTEX
  5
1000008F
  8
VISIBLE
 10
2.095223064263998
 20
-1.041313796212862
 30
0.125
 70
    32
  0
VERTEX
  5
10000090
  8
VISIBLE
 10
2.097115184489397
 20
-1.126017342158084
 30
0.125
 70
    32
  0
VERTEX
  5
10000091
  8
VISIBLE
 10
2.099007304714796
 20
-1.213468030133961
 30
0.125
 70
    32
  0
SEQEND
  5
1000067C
  8
VISIBLE
  0
POLYLINE
  5
F5407
  8
VISIBLE
 10
0.0
 20
0.0
 30
0.0
 66
     1
 70
     8
  0
VERTEX
  5
10000094
  8
VISIBLE
 10
1.887089839470105
 20
-1.213468030133961
 30
0.125
 70
    32
  0
VERTEX
  5
10000095
  8
VISIBLE
 10
1.888981959695504
 20
-1.300918718109839
 30
0.125
 70
    32
  0
VERTEX
  5
10000096
  8
VISIBLE
 10
1.890874079920903
 20
-1.385622264055061
 30
0.125
 70
    32
  0
VERTEX
  5
10000097
  8
VISIBLE
 10
1.892766200146302
 20
-1.464831525938971
 30
0.125
 70
    32
  0
VERTEX
  5
10000098
  8
VISIBLE
 10
1.894658320371701
 20
-1.535799361730914
 30
0.125
 70
    32
  0
VERTEX
  5
10000099
  8
VISIBLE
 10
1.896077410540751
 20
-1.5819642250742
 30
0.125
 70
    32
  0
VERTEX
  5
1000009A
  8
VISIBLE
 10
1.897496500709799
 20
-1.620789068304328
 30
0.125
 70
    32
  0
VERTEX
  5
1000009B
  8
VISIBLE
 10
1.898915590878849
 20
-1.651114940877116
 30
0.125
 70
    32
  0
VERTEX
  5
1000009C
  8
VISIBLE
 10
1.900334681047898
 20
-1.671782892248378
 30
0.125
 70
    32
  0
VERTEX
  5
1000009D
  8
VISIBLE
 10
1.901129371542566
 20
-1.678706382445422
 30
0.125
 70
    32
  0
VERTEX
  5
1000009E
  8
VISIBLE
 10
1.901753771216947
 20
-1.681633971873933
 30
0.125
 70
    32
  0
VERTEX
  5
1000009F
  8
VISIBLE
 10
1.901990286245122
 20
-1.682142801240939
 30
0.125
 70
    32
  0
VERTEX
  5
100000A0
  8
VISIBLE
 10
1.902226801273297
 20
-1.682313603365892
 30
0.125
 70
    32
  0
VERTEX
  5
100000A1
  8
VISIBLE
 10
1.902463316301472
 20
-1.682142801240939
 30
0.125
 70
    32
  0
VERTEX
  5
100000A2
  8
VISIBLE
 10
1.902699831329647
 20
-1.681633971873933
 30
0.125
 70
    32
  0
VERTEX
  5
100000A3
  8
VISIBLE
 10
1.903494521824314
 20
-1.677518541582074
 30
0.125
 70
    32
  0
VERTEX
  5
100000A4
  8
VISIBLE
 10
1.904118921498696
 20
-1.671782892248378
 30
0.125
 70
    32
  0
VERTEX
  5
100000A5
  8
VISIBLE
 10
1.905538011667745
 20
-1.651114940877116
 30
0.125
 70
    32
  0
VERTEX
  5
100000A6
  8
VISIBLE
 10
1.906957101836795
 20
-1.620789068304328
 30
0.125
 70
    32
  0
VERTEX
  5
100000A7
  8
VISIBLE
 10
1.908376192005844
 20
-1.5819642250742
 30
0.125
 70
    32
  0
VERTEX
  5
100000A8
  8
VISIBLE
 10
1.909795282174893
 20
-1.535799361730914
 30
0.125
 70
    32
  0
VERTEX
  5
100000A9
  8
VISIBLE
 10
1.911687402400292
 20
-1.464831525938971
 30
0.125
 70
    32
  0
VERTEX
  5
100000AA
  8
VISIBLE
 10
1.913579522625691
 20
-1.385622264055061
 30
0.125
 70
    32
  0
VERTEX
  5
100000AB
  8
VISIBLE
 10
1.91547164285109
 20
-1.300918718109839
 30
0.125
 70
    32
  0
VERTEX
  5
100000AC
  8
VISIBLE
 10
1.917363763076489
 20
-1.213468030133961
 30
0.125
 70
    32
  0
SEQEND
  5
1000067D
  8
VISIBLE
  0
POLYLINE
  5
F5408
  8
VISIBLE
 10
0.0
 20
0.0
 30
0.0
 66
     1
 70
     8
  0
VERTEX
  5
100000AF
  8
VISIBLE
 10
1.887089839470105
 20
-1.213468030133961
 30
0.125
 70
    32
  0
VERTEX
  5
100000B0
  8
VISIBLE
 10
1.888981959695504
 20
-1.126017342158084
 30
0.125
 70
    32
  0
VERTEX
  5
100000B1
  8
VISIBLE
 10
1.890874079920903
 20
-1.041313796212862
 30
0.125
 70
    32
  0
VERTEX
  5
100000B2
  8
VISIBLE
 10
1.892766200146302
 20
-0.9621045343289522
 30
0.125
 70
    32
  0
VERTEX
  5
100000B3
  8
VISIBLE
 10
1.894658320371701
 20
-0.8911366985370097
 30
0.125
 70
    32
  0
VERTEX
  5
100000B4
  8
VISIBLE
 10
1.89607741054075
 20
-0.8449718351937228
 30
0.125
 70
    32
  0
VERTEX
  5
100000B5
  8
VISIBLE
 10
1.897496500709799
 20
-0.8061469919635945
 30
0.125
 70
    32
  0
VERTEX
  5
100000B6
  8
VISIBLE
 10
1.898915590878849
 20
-0.7758211193908077
 30
0.125
 70
    32
  0
VERTEX
  5
100000B7
  8
VISIBLE
 10
1.900334681047898
 20
-0.7551531680195454
 30
0.125
 70
    32
  0
VERTEX
  5
100000B8
  8
VISIBLE
 10
1.901129371542566
 20
-0.7482296778225009
 30
0.125
 70
    32
  0
VERTEX
  5
100000B9
  8
VISIBLE
 10
1.901753771216947
 20
-0.7453020883939906
 30
0.125
 70
    32
  0
VERTEX
  5
100000BA
  8
VISIBLE
 10
1.901990286245122
 20
-0.7447932590269842
 30
0.125
 70
    32
  0
VERTEX
  5
100000BB
  8
VISIBLE
 10
1.902226801273297
 20
-0.7446224569020313
 30
0.125
 70
    32
  0
VERTEX
  5
100000BC
  8
VISIBLE
 10
1.902463316301472
 20
-0.7447932590269842
 30
0.125
 70
    32
  0
VERTEX
  5
100000BD
  8
VISIBLE
 10
1.902699831329647
 20
-0.7453020883939906
 30
0.125
 70
    32
  0
VERTEX
  5
100000BE
  8
VISIBLE
 10
1.903494521824314
 20
-0.7494175186858495
 30
0.125
 70
    32
  0
VERTEX
  5
100000BF
  8
VISIBLE
 10
1.904118921498696
 20
-0.7551531680195454
 30
0.125
 70
    32
  0
VERTEX
  5
100000C0
  8
VISIBLE
 10
1.905538011667745
 20
-0.7758211193908076
 30
0.125
 70
    32
  0
VERTEX
  5
100000C1
  8
VISIBLE
 10
1.906957101836794
 20
-0.8061469919635945
 30
0.125
 70
    32
  0
VERTEX
  5
100000C2
  8
VISIBLE
 10
1.908376192005844
 20
-0.8449718351937225
 30
0.125
 70
    32
  0
VERTEX
  5
100000C3
  8
VISIBLE
 10
1.909795282174893
 20
-0.8911366985370094
 30
0.125
 70
    32
  0
VERTEX
  5
100000C4
  8
VISIBLE
 10
1.911687402400292
 20
-0.9621045343289519
 30
0.125
 70
    32
  0
VERTEX
  5
100000C5
  8
VISIBLE
 10
1.913579522625691
 20
-1.041313796212862
 30
0.125
 70
    32
  0
VERTEX
  5
100000C6
  8
VISIBLE
 10
1.91547164285109
 20
-1.126017342158084
 30
0.125
 70
    32
  0
VERTEX
  5
100000C7
  8
VISIBLE
 10
1.917363763076489
 20
-1.213468030133961
 30
0.125
 70
    32
  0
SEQEND
  5
1000067E
  8
VISIBLE
  0
POLYLINE
  5
F5409
  8
VISIBLE
 10
0.0
 20
0.0
 30
0.0
 66
     1
 70
     8
  0
VERTEX
  5
100000CA
  8
VISIBLE
 10
2.008185533895643
 20
-1.213468030133961
 30
0.125
 70
    32
  0
VERTEX
  5
100000CB
  8
VISIBLE
 10
2.010077654121042
 20
-1.300918718109839
 30
0.125
 70
    32
  0
VERTEX
  5
100000CC
  8
VISIBLE
 10
2.011969774346441
 20
-1.385622264055061
 30
0.125
 70
    32
  0
VERTEX
  5
100000CD
  8
VISIBLE
 10
2.01386189457184
 20
-1.464831525938971
 30
0.125
 70
    32
  0
VERTEX
  5
100000CE
  8
VISIBLE
 10
2.015754014797239
 20
-1.535799361730914
 30
0.125
 70
    32
  0
VERTEX
  5
100000CF
  8
VISIBLE
 10
2.017173104966288
 20
-1.5819642250742
 30
0.125
 70
    32
  0
VERTEX
  5
100000D0
  8
VISIBLE
 10
2.018592195135338
 20
-1.620789068304328
 30
0.125
 70
    32
  0
VERTEX
  5
100000D1
  8
VISIBLE
 10
2.020011285304387
 20
-1.651114940877116
 30
0.125
 70
    32
  0
VERTEX
  5
100000D2
  8
VISIBLE
 10
2.021430375473436
 20
-1.671782892248378
 30
0.125
 70
    32
  0
VERTEX
  5
100000D3
  8
VISIBLE
 10
2.022225065968104
 20
-1.678706382445422
 30
0.125
 70
    32
  0
VERTEX
  5
100000D4
  8
VISIBLE
 10
2.022849465642485
 20
-1.681633971873933
 30
0.125
 70
    32
  0
VERTEX
  5
100000D5
  8
VISIBLE
 10
2.02308598067066
 20
-1.682142801240939
 30
0.125
 70
    32
  0
VERTEX
  5
100000D6
  8
VISIBLE
 10
2.023322495698835
 20
-1.682313603365892
 30
0.125
 70
    32
  0
VERTEX
  5
100000D7
  8
VISIBLE
 10
2.02355901072701
 20
-1.682142801240939
 30
0.125
 70
    32
  0
VERTEX
  5
100000D8
  8
VISIBLE
 10
2.023795525755185
 20
-1.681633971873933
 30
0.125
 70
    32
  0
VERTEX
  5
100000D9
  8
VISIBLE
 10
2.024590216249853
 20
-1.677518541582074
 30
0.125
 70
    32
  0
VERTEX
  5
100000DA
  8
VISIBLE
 10
2.025214615924234
 20
-1.671782892248378
 30
0.125
 70
    32
  0
VERTEX
  5
100000DB
  8
VISIBLE
 10
2.026633706093283
 20
-1.651114940877116
 30
0.125
 70
    32
  0
VERTEX
  5
100000DC
  8
VISIBLE
 10
2.028052796262333
 20
-1.620789068304329
 30
0.125
 70
    32
  0
VERTEX
  5
100000DD
  8
VISIBLE
 10
2.029471886431382
 20
-1.5819642250742
 30
0.125
 70
    32
  0
VERTEX
  5
100000DE
  8
VISIBLE
 10
2.030890976600431
 20
-1.535799361730914
 30
0.125
 70
    32
  0
VERTEX
  5
100000DF
  8
VISIBLE
 10
2.03278309682583
 20
-1.464831525938971
 30
0.125
 70
    32
  0
VERTEX
  5
100000E0
  8
VISIBLE
 10
2.034675217051229
 20
-1.385622264055061
 30
0.125
 70
    32
  0
VERTEX
  5
100000E1
  8
VISIBLE
 10
2.036567337276628
 20
-1.300918718109839
 30
0.125
 70
    32
  0
VERTEX
  5
100000E2
  8
VISIBLE
 10
2.038459457502027
 20
-1.213468030133961
 30
0.125
 70
    32
  0
SEQEND
  5
1000067F
  8
VISIBLE
  0
POLYLINE
  5
F540A
  8
VISIBLE
 10
0.0
 20
0.0
 30
0.0
 66
     1
 70
     8
  0
VERTEX
  5
100000E5
  8
VISIBLE
 10
2.008185533895643
 20
-1.213468030133961
 30
0.125
 70
    32
  0
VERTEX
  5
100000E6
  8
VISIBLE
 10
2.010077654121042
 20
-1.126017342158084
 30
0.125
 70
    32
  0
VERTEX
  5
100000E7
  8
VISIBLE
 10
2.011969774346441
 20
-1.041313796212862
 30
0.125
 70
    32
  0
VERTEX
  5
100000E8
  8
VISIBLE
 10
2.01386189457184
 20
-0.9621045343289522
 30
0.125
 70
    32
  0
VERTEX
  5
100000E9
  8
VISIBLE
 10
2.015754014797239
 20
-0.8911366985370097
 30
0.125
 70
    32
  0
VERTEX
  5
100000EA
  8
VISIBLE
 10
2.017173104966288
 20
-0.8449718351937228
 30
0.125
 70
    32
  0
VERTEX
  5
100000EB
  8
VISIBLE
 10
2.018592195135338
 20
-0.8061469919635945
 30
0.125
 70
    32
  0
VERTEX
  5
100000EC
  8
VISIBLE
 10
2.020011285304387
 20
-0.7758211193908077
 30
0.125
 70
    32
  0
VERTEX
  5
100000ED
  8
VISIBLE
 10
2.021430375473436
 20
-0.7551531680195454
 30
0.125
 70
    32
  0
VERTEX
  5
100000EE
  8
VISIBLE
 10
2.022225065968104
 20
-0.7482296778225009
 30
0.125
 70
    32
  0
VERTEX
  5
100000EF
  8
VISIBLE
 10
2.022849465642485
 20
-0.7453020883939906
 30
0.125
 70
    32
  0
VERTEX
  5
100000F0
  8
VISIBLE
 10
2.02308598067066
 20
-0.7447932590269842
 30
0.125
 70
    32
  0
VERTEX
  5
100000F1
  8
VISIBLE
 10
2.023322495698835
 20
-0.7446224569020313
 30
0.125
 70
    32
  0
VERTEX
  5
100000F2
  8
VISIBLE
 10
2.02355901072701
 20
-0.7447932590269842
 30
0.125
 70
    32
  0
VERTEX
  5
100000F3
  8
VISIBLE
 10
2.023795525755185
 20
-0.7453020883939906
 30
0.125
 70
    32
  0
VERTEX
  5
100000F4
  8
VISIBLE
 10
2.024590216249852
 20
-0.7494175186858495
 30
0.125
 70
    32
  0
VERTEX
  5
100000F5
  8
VISIBLE
 10
2.025214615924234
 20
-0.7551531680195454
 30
0.125
 70
    32
  0
VERTEX
  5
100000F6
  8
VISIBLE
 10
2.026633706093283
 20
-0.7758211193908076
 30
0.125
 70
    32
  0
VERTEX
  5
100000F7
  8
VISIBLE
 10
2.028052796262333
 20
-0.8061469919635945
 30
0.125
 70
    32
  0
VERTEX
  5
100000F8
  8
VISIBLE
 10
2.029471886431382
 20
-0.8449718351937225
 30
0.125
 70
    32
  0
VERTEX
  5
100000F9
  8
VISIBLE
 10
2.030890976600431
 20
-0.8911366985370094
 30
0.125
 70
    32
  0
VERTEX
  5
100000FA
  8
VISIBLE
 10
2.03278309682583
 20
-0.9621045343289519
 30
0.125
 70
    32
  0
VERTEX
  5
100000FB
  8
VISIBLE
 10
2.034675217051229
 20
-1.041313796212862
 30
0.125
 70
    32
  0
VERTEX
  5
100000FC
  8
VISIBLE
 10
2.036567337276628
 20
-1.126017342158084
 30
0.125
 70
    32
  0
VERTEX
  5
100000FD
  8
VISIBLE
 10
2.038459457502027
 20
-1.213468030133961
 30
0.125
 70
    32
  0
SEQEND
  5
10000680
  8
VISIBLE
  0
POLYLINE
  5
F540B
  8
VISIBLE
 10
0.0
 20
0.0
 30
0.0
 66
     1
 70
     8
  0
VERTEX
  5
10000100
  8
VISIBLE
 10
2.189829075533949
 20
-1.213468030133961
 30
0.125
 70
    32
  0
VERTEX
  5
10000101
  8
VISIBLE
 10
2.191721195759349
 20
-1.300918718109839
 30
0.125
 70
    32
  0
VERTEX
  5
10000102
  8
VISIBLE
 10
2.193613315984748
 20
-1.385622264055061
 30
0.125
 70
    32
  0
VERTEX
  5
10000103
  8
VISIBLE
 10
2.195505436210146
 20
-1.464831525938971
 30
0.125
 70
    32
  0
VERTEX
  5
10000104
  8
VISIBLE
 10
2.197397556435546
 20
-1.535799361730914
 30
0.125
 70
    32
  0
VERTEX
  5
10000105
  8
VISIBLE
 10
2.198816646604595
 20
-1.5819642250742
 30
0.125
 70
    32
  0
VERTEX
  5
10000106
  8
VISIBLE
 10
2.200235736773644
 20
-1.620789068304328
 30
0.125
 70
    32
  0
VERTEX
  5
10000107
  8
VISIBLE
 10
2.201654826942693
 20
-1.651114940877115
 30
0.125
 70
    32
  0
VERTEX
  5
10000108
  8
VISIBLE
 10
2.203073917111742
 20
-1.671782892248378
 30
0.125
 70
    32
  0
VERTEX
  5
10000109
  8
VISIBLE
 10
2.20386860760641
 20
-1.678706382445422
 30
0.125
 70
    32
  0
VERTEX
  5
1000010A
  8
VISIBLE
 10
2.204493007280792
 20
-1.681633971873932
 30
0.125
 70
    32
  0
VERTEX
  5
1000010B
  8
VISIBLE
 10
2.204729522308967
 20
-1.682142801240939
 30
0.125
 70
    32
  0
VERTEX
  5
1000010C
  8
VISIBLE
 10
2.204966037337142
 20
-1.682313603365892
 30
0.125
 70
    32
  0
VERTEX
  5
1000010D
  8
VISIBLE
 10
2.205202552365316
 20
-1.682142801240939
 30
0.125
 70
    32
  0
VERTEX
  5
1000010E
  8
VISIBLE
 10
2.205439067393491
 20
-1.681633971873933
 30
0.125
 70
    32
  0
VERTEX
  5
1000010F
  8
VISIBLE
 10
2.206233757888159
 20
-1.677518541582074
 30
0.125
 70
    32
  0
VERTEX
  5
10000110
  8
VISIBLE
 10
2.206858157562541
 20
-1.671782892248378
 30
0.125
 70
    32
  0
VERTEX
  5
10000111
  8
VISIBLE
 10
2.20827724773159
 20
-1.651114940877116
 30
0.125
 70
    32
  0
VERTEX
  5
10000112
  8
VISIBLE
 10
2.209696337900639
 20
-1.620789068304328
 30
0.125
 70
    32
  0
VERTEX
  5
10000113
  8
VISIBLE
 10
2.211115428069689
 20
-1.5819642250742
 30
0.125
 70
    32
  0
VERTEX
  5
10000114
  8
VISIBLE
 10
2.212534518238738
 20
-1.535799361730914
 30
0.125
 70
    32
  0
VERTEX
  5
10000115
  8
VISIBLE
 10
2.214426638464137
 20
-1.464831525938971
 30
0.125
 70
    32
  0
VERTEX
  5
10000116
  8
VISIBLE
 10
2.216318758689535
 20
-1.385622264055061
 30
0.125
 70
    32
  0
VERTEX
  5
10000117
  8
VISIBLE
 10
2.218210878914935
 20
-1.300918718109839
 30
0.125
 70
    32
  0
VERTEX
  5
10000118
  8
VISIBLE
 10
2.220102999140334
 20
-1.213468030133961
 30
0.125
 70
    32
  0
SEQEND
  5
10000681
  8
VISIBLE
  0
POLYLINE
  5
F540C
  8
VISIBLE
 10
0.0
 20
0.0
 30
0.0
 66
     1
 70
     8
  0
VERTEX
  5
1000011B
  8
VISIBLE
 10
2.189829075533949
 20
-1.213468030133961
 30
0.125
 70
    32
  0
VERTEX
  5
1000011C
  8
VISIBLE
 10
2.191721195759349
 20
-1.126017342158084
 30
0.125
 70
    32
  0
VERTEX
  5
1000011D
  8
VISIBLE
 10
2.193613315984748
 20
-1.041313796212862
 30
0.125
 70
    32
  0
VERTEX
  5
1000011E
  8
VISIBLE
 10
2.195505436210146
 20
-0.9621045343289522
 30
0.125
 70
    32
  0
VERTEX
  5
1000011F
  8
VISIBLE
 10
2.197397556435546
 20
-0.8911366985370097
 30
0.125
 70
    32
  0
VERTEX
  5
10000120
  8
VISIBLE
 10
2.198816646604595
 20
-0.8449718351937228
 30
0.125
 70
    32
  0
VERTEX
  5
10000121
  8
VISIBLE
 10
2.200235736773644
 20
-0.8061469919635945
 30
0.125
 70
    32
  0
VERTEX
  5
10000122
  8
VISIBLE
 10
2.201654826942693
 20
-0.7758211193908077
 30
0.125
 70
    32
  0
VERTEX
  5
10000123
  8
VISIBLE
 10
2.203073917111742
 20
-0.7551531680195454
 30
0.125
 70
    32
  0
VERTEX
  5
10000124
  8
VISIBLE
 10
2.20386860760641
 20
-0.7482296778225009
 30
0.125
 70
    32
  0
VERTEX
  5
10000125
  8
VISIBLE
 10
2.204493007280792
 20
-0.7453020883939906
 30
0.125
 70
    32
  0
VERTEX
  5
10000126
  8
VISIBLE
 10
2.204729522308967
 20
-0.7447932590269842
 30
0.125
 70
    32
  0
VERTEX
  5
10000127
  8
VISIBLE
 10
2.204966037337142
 20
-0.7446224569020313
 30
0.125
 70
    32
  0
VERTEX
  5
10000128
  8
VISIBLE
 10
2.205202552365316
 20
-0.7447932590269842
 30
0.125
 70
    32
  0
VERTEX
  5
10000129
  8
VISIBLE
 10
2.205439067393491
 20
-0.7453020883939906
 30
0.125
 70
    32
  0
VERTEX
  5
1000012A
  8
VISIBLE
 10
2.206233757888159
 20
-0.7494175186858495
 30
0.125
 70
    32
  0
VERTEX
  5
1000012B
  8
VISIBLE
 10
2.206858157562541
 20
-0.7551531680195454
 30
0.125
 70
    32
  0
VERTEX
  5
1000012C
  8
VISIBLE
 10
2.20827724773159
 20
-0.7758211193908076
 30
0.125
 70
    32
  0
VERTEX
  5
1000012D
  8
VISIBLE
 10
2.209696337900639
 20
-0.8061469919635945
 30
0.125
 70
    32
  0
VERTEX
  5
1000012E
  8
VISIBLE
 10
2.211115428069689
 20
-0.8449718351937225
 30
0.125
 70
    32
  0
VERTEX
  5
1000012F
  8
VISIBLE
 10
2.212534518238738
 20
-0.8911366985370094
 30
0.125
 70
    32
  0
VERTEX
  5
10000130
  8
VISIBLE
 10
2.214426638464137
 20
-0.9621045343289519
 30
0.125
 70
    32
  0
VERTEX
  5
10000131
  8
VISIBLE
 10
2.216318758689535
 20
-1.041313796212862
 30
0.125
 70
    32
  0
VERTEX
  5
10000132
  8
VISIBLE
 10
2.218210878914935
 20
-1.126017342158084
 30
0.125
 70
    32
  0
VERTEX
  5
10000133
  8
VISIBLE
 10
2.220102999140334
 20
-1.213468030133961
 30
0.125
 70
    32
  0
SEQEND
  5
10000682
  8
VISIBLE
  0
POLYLINE
  5
F540D
  8
VISIBLE
 10
0.0
 20
0.0
 30
0.0
 66
     1
 70
     8
  0
VERTEX
  5
10000136
  8
VISIBLE
 10
2.371472617172256
 20
-1.213468030133962
 30
0.125
 70
    32
  0
VERTEX
  5
10000137
  8
VISIBLE
 10
2.373364737397655
 20
-1.300918718109839
 30
0.125
 70
    32
  0
VERTEX
  5
10000138
  8
VISIBLE
 10
2.375256857623055
 20
-1.385622264055061
 30
0.125
 70
    32
  0
VERTEX
  5
10000139
  8
VISIBLE
 10
2.377148977848453
 20
-1.464831525938971
 30
0.125
 70
    32
  0
VERTEX
  5
1000013A
  8
VISIBLE
 10
2.379041098073853
 20
-1.535799361730914
 30
0.125
 70
    32
  0
VERTEX
  5
1000013B
  8
VISIBLE
 10
2.380460188242902
 20
-1.5819642250742
 30
0.125
 70
    32
  0
VERTEX
  5
1000013C
  8
VISIBLE
 10
2.381879278411951
 20
-1.620789068304328
 30
0.125
 70
    32
  0
VERTEX
  5
1000013D
  8
VISIBLE
 10
2.383298368581
 20
-1.651114940877115
 30
0.125
 70
    32
  0
VERTEX
  5
1000013E
  8
VISIBLE
 10
2.384717458750049
 20
-1.671782892248377
 30
0.125
 70
    32
  0
VERTEX
  5
1000013F
  8
VISIBLE
 10
2.385512149244718
 20
-1.678706382445421
 30
0.125
 70
    32
  0
VERTEX
  5
10000140
  8
VISIBLE
 10
2.386136548919099
 20
-1.681633971873932
 30
0.125
 70
    32
  0
VERTEX
  5
10000141
  8
VISIBLE
 10
2.386373063947274
 20
-1.682142801240939
 30
0.125
 70
    32
  0
VERTEX
  5
10000142
  8
VISIBLE
 10
2.386609578975449
 20
-1.682313603365891
 30
0.125
 70
    32
  0
VERTEX
  5
10000143
  8
VISIBLE
 10
2.386846094003624
 20
-1.682142801240938
 30
0.125
 70
    32
  0
VERTEX
  5
10000144
  8
VISIBLE
 10
2.387082609031798
 20
-1.681633971873932
 30
0.125
 70
    32
  0
VERTEX
  5
10000145
  8
VISIBLE
 10
2.387877299526466
 20
-1.677518541582073
 30
0.125
 70
    32
  0
VERTEX
  5
10000146
  8
VISIBLE
 10
2.388501699200848
 20
-1.671782892248377
 30
0.125
 70
    32
  0
VERTEX
  5
10000147
  8
VISIBLE
 10
2.389920789369897
 20
-1.651114940877115
 30
0.125
 70
    32
  0
VERTEX
  5
10000148
  8
VISIBLE
 10
2.391339879538946
 20
-1.620789068304328
 30
0.125
 70
    32
  0
VERTEX
  5
10000149
  8
VISIBLE
 10
2.392758969707996
 20
-1.5819642250742
 30
0.125
 70
    32
  0
VERTEX
  5
1000014A
  8
VISIBLE
 10
2.394178059877045
 20
-1.535799361730914
 30
0.125
 70
    32
  0
VERTEX
  5
1000014B
  8
VISIBLE
 10
2.396070180102444
 20
-1.464831525938971
 30
0.125
 70
    32
  0
VERTEX
  5
1000014C
  8
VISIBLE
 10
2.397962300327843
 20
-1.385622264055061
 30
0.125
 70
    32
  0
VERTEX
  5
1000014D
  8
VISIBLE
 10
2.399854420553241
 20
-1.300918718109839
 30
0.125
 70
    32
  0
VERTEX
  5
1000014E
  8
VISIBLE
 10
2.401746540778641
 20
-1.213468030133962
 30
0.125
 70
    32
  0
SEQEND
  5
10000683
  8
VISIBLE
  0
POLYLINE
  5
F540E
  8
VISIBLE
 10
0.0
 20
0.0
 30
0.0
 66
     1
 70
     8
  0
VERTEX
  5
10000151
  8
VISIBLE
 10
2.371472617172256
 20
-1.213468030133962
 30
0.125
 70
    32
  0
VERTEX
  5
10000152
  8
VISIBLE
 10
2.373364737397655
 20
-1.126017342158084
 30
0.125
 70
    32
  0
VERTEX
  5
10000153
  8
VISIBLE
 10
2.375256857623055
 20
-1.041313796212862
 30
0.125
 70
    32
  0
VERTEX
  5
10000154
  8
VISIBLE
 10
2.377148977848453
 20
-0.9621045343289526
 30
0.125
 70
    32
  0
VERTEX
  5
10000155
  8
VISIBLE
 10
2.379041098073853
 20
-0.8911366985370099
 30
0.125
 70
    32
  0
VERTEX
  5
10000156
  8
VISIBLE
 10
2.380460188242902
 20
-0.8449718351937231
 30
0.125
 70
    32
  0
VERTEX
  5
10000157
  8
VISIBLE
 10
2.381879278411951
 20
-0.8061469919635947
 30
0.125
 70
    32
  0
VERTEX
  5
10000158
  8
VISIBLE
 10
2.383298368581
 20
-0.775821119390808
 30
0.125
 70
    32
  0
VERTEX
  5
10000159
  8
VISIBLE
 10
2.384717458750049
 20
-0.7551531680195457
 30
0.125
 70
    32
  0
VERTEX
  5
1000015A
  8
VISIBLE
 10
2.385512149244717
 20
-0.7482296778225013
 30
0.125
 70
    32
  0
VERTEX
  5
1000015B
  8
VISIBLE
 10
2.386136548919099
 20
-0.7453020883939909
 30
0.125
 70
    32
  0
VERTEX
  5
1000015C
  8
VISIBLE
 10
2.386373063947274
 20
-0.7447932590269845
 30
0.125
 70
    32
  0
VERTEX
  5
1000015D
  8
VISIBLE
 10
2.386609578975449
 20
-0.7446224569020317
 30
0.125
 70
    32
  0
VERTEX
  5
1000015E
  8
VISIBLE
 10
2.386846094003623
 20
-0.7447932590269845
 30
0.125
 70
    32
  0
VERTEX
  5
1000015F
  8
VISIBLE
 10
2.387082609031798
 20
-0.7453020883939906
 30
0.125
 70
    32
  0
VERTEX
  5
10000160
  8
VISIBLE
 10
2.387877299526466
 20
-0.7494175186858498
 30
0.125
 70
    32
  0
VERTEX
  5
10000161
  8
VISIBLE
 10
2.388501699200848
 20
-0.7551531680195457
 30
0.125
 70
    32
  0
VERTEX
  5
10000162
  8
VISIBLE
 10
2.389920789369897
 20
-0.775821119390808
 30
0.125
 70
    32
  0
VERTEX
  5
10000163
  8
VISIBLE
 10
2.391339879538946
 20
-0.8061469919635945
 30
0.125
 70
    32
  0
VERTEX
  5
10000164
  8
VISIBLE
 10
2.392758969707995
 20
-0.8449718351937228
 30
0.125
 70
    32
  0
VERTEX
  5
10000165
  8
VISIBLE
 10
2.394178059877045
 20
-0.8911366985370097
 30
0.125
 70
    32
  0
VERTEX
  5
10000166
  8
VISIBLE
 10
2.396070180102444
 20
-0.9621045343289522
 30
0.125
 70
    32
  0
VERTEX
  5
10000167
  8
VISIBLE
 10
2.397962300327843
 20
-1.041313796212862
 30
0.125
 70
    32
  0
VERTEX
  5
10000168
  8
VISIBLE
 10
2.399854420553241
 20
-1.126017342158084
 30
0.125
 70
    32
  0
VERTEX
  5
10000169
  8
VISIBLE
 10
2.401746540778641
 20
-1.213468030133962
 30
0.125
 70
    32
  0
SEQEND
  5
10000684
  8
VISIBLE
  0
POLYLINE
  5
F540F
  8
VISIBLE
 10
0.0
 20
0.0
 30
0.0
 66
     1
 70
     8
  0
VERTEX
  5
1000016C
  8
VISIBLE
 10
2.553116158810563
 20
-1.213468030133962
 30
0.125
 70
    32
  0
VERTEX
  5
1000016D
  8
VISIBLE
 10
2.555008279035962
 20
-1.300918718109839
 30
0.125
 70
    32
  0
VERTEX
  5
1000016E
  8
VISIBLE
 10
2.556900399261361
 20
-1.385622264055061
 30
0.125
 70
    32
  0
VERTEX
  5
1000016F
  8
VISIBLE
 10
2.55879251948676
 20
-1.464831525938971
 30
0.125
 70
    32
  0
VERTEX
  5
10000170
  8
VISIBLE
 10
2.560684639712159
 20
-1.535799361730913
 30
0.125
 70
    32
  0
VERTEX
  5
10000171
  8
VISIBLE
 10
2.562103729881209
 20
-1.5819642250742
 30
0.125
 70
    32
  0
VERTEX
  5
10000172
  8
VISIBLE
 10
2.563522820050258
 20
-1.620789068304328
 30
0.125
 70
    32
  0
VERTEX
  5
10000173
  8
VISIBLE
 10
2.564941910219307
 20
-1.651114940877115
 30
0.125
 70
    32
  0
VERTEX
  5
10000174
  8
VISIBLE
 10
2.566361000388356
 20
-1.671782892248377
 30
0.125
 70
    32
  0
VERTEX
  5
10000175
  8
VISIBLE
 10
2.567155690883024
 20
-1.678706382445421
 30
0.125
 70
    32
  0
VERTEX
  5
10000176
  8
VISIBLE
 10
2.567780090557406
 20
-1.681633971873931
 30
0.125
 70
    32
  0
VERTEX
  5
10000177
  8
VISIBLE
 10
2.56801660558558
 20
-1.682142801240938
 30
0.125
 70
    32
  0
VERTEX
  5
10000178
  8
VISIBLE
 10
2.568253120613755
 20
-1.682313603365891
 30
0.125
 70
    32
  0
VERTEX
  5
10000179
  8
VISIBLE
 10
2.56848963564193
 20
-1.682142801240938
 30
0.125
 70
    32
  0
VERTEX
  5
1000017A
  8
VISIBLE
 10
2.568726150670104
 20
-1.681633971873932
 30
0.125
 70
    32
  0
VERTEX
  5
1000017B
  8
VISIBLE
 10
2.569520841164773
 20
-1.677518541582073
 30
0.125
 70
    32
  0
VERTEX
  5
1000017C
  8
VISIBLE
 10
2.570145240839154
 20
-1.671782892248377
 30
0.125
 70
    32
  0
VERTEX
  5
1000017D
  8
VISIBLE
 10
2.571564331008204
 20
-1.651114940877115
 30
0.125
 70
    32
  0
VERTEX
  5
1000017E
  8
VISIBLE
 10
2.572983421177253
 20
-1.620789068304328
 30
0.125
 70
    32
  0
VERTEX
  5
1000017F
  8
VISIBLE
 10
2.574402511346302
 20
-1.5819642250742
 30
0.125
 70
    32
  0
VERTEX
  5
10000180
  8
VISIBLE
 10
2.575821601515352
 20
-1.535799361730914
 30
0.125
 70
    32
  0
VERTEX
  5
10000181
  8
VISIBLE
 10
2.57771372174075
 20
-1.464831525938971
 30
0.125
 70
    32
  0
VERTEX
  5
10000182
  8
VISIBLE
 10
2.579605841966149
 20
-1.385622264055061
 30
0.125
 70
    32
  0
VERTEX
  5
10000183
  8
VISIBLE
 10
2.581497962191548
 20
-1.300918718109839
 30
0.125
 70
    32
  0
VERTEX
  5
10000184
  8
VISIBLE
 10
2.583390082416948
 20
-1.213468030133962
 30
0.125
 70
    32
  0
SEQEND
  5
10000685
  8
VISIBLE
  0
POLYLINE
  5
F5410
  8
VISIBLE
 10
0.0
 20
0.0
 30
0.0
 66
     1
 70
     8
  0
VERTEX
  5
10000187
  8
VISIBLE
 10
2.553116158810563
 20
-1.213468030133962
 30
0.125
 70
    32
  0
VERTEX
  5
10000188
  8
VISIBLE
 10
2.555008279035962
 20
-1.126017342158084
 30
0.125
 70
    32
  0
VERTEX
  5
10000189
  8
VISIBLE
 10
2.556900399261361
 20
-1.041313796212862
 30
0.125
 70
    32
  0
VERTEX
  5
1000018A
  8
VISIBLE
 10
2.55879251948676
 20
-0.9621045343289526
 30
0.125
 70
    32
  0
VERTEX
  5
1000018B
  8
VISIBLE
 10
2.560684639712159
 20
-0.8911366985370099
 30
0.125
 70
    32
  0
VERTEX
  5
1000018C
  8
VISIBLE
 10
2.562103729881209
 20
-0.8449718351937233
 30
0.125
 70
    32
  0
VERTEX
  5
1000018D
  8
VISIBLE
 10
2.563522820050258
 20
-0.806146991963595
 30
0.125
 70
    32
  0
VERTEX
  5
1000018E
  8
VISIBLE
 10
2.564941910219307
 20
-0.7758211193908082
 30
0.125
 70
    32
  0
VERTEX
  5
1000018F
  8
VISIBLE
 10
2.566361000388356
 20
-0.7551531680195461
 30
0.125
 70
    32
  0
VERTEX
  5
10000190
  8
VISIBLE
 10
2.567155690883024
 20
-0.7482296778225015
 30
0.125
 70
    32
  0
VERTEX
  5
10000191
  8
VISIBLE
 10
2.567780090557406
 20
-0.7453020883939911
 30
0.125
 70
    32
  0
VERTEX
  5
10000192
  8
VISIBLE
 10
2.56801660558558
 20
-0.7447932590269848
 30
0.125
 70
    32
  0
VERTEX
  5
10000193
  8
VISIBLE
 10
2.568253120613755
 20
-0.7446224569020319
 30
0.125
 70
    32
  0
VERTEX
  5
10000194
  8
VISIBLE
 10
2.56848963564193
 20
-0.7447932590269848
 30
0.125
 70
    32
  0
VERTEX
  5
10000195
  8
VISIBLE
 10
2.568726150670104
 20
-0.745302088393991
 30
0.125
 70
    32
  0
VERTEX
  5
10000196
  8
VISIBLE
 10
2.569520841164773
 20
-0.7494175186858499
 30
0.125
 70
    32
  0
VERTEX
  5
10000197
  8
VISIBLE
 10
2.570145240839154
 20
-0.7551531680195461
 30
0.125
 70
    32
  0
VERTEX
  5
10000198
  8
VISIBLE
 10
2.571564331008204
 20
-0.7758211193908082
 30
0.125
 70
    32
  0
VERTEX
  5
10000199
  8
VISIBLE
 10
2.572983421177253
 20
-0.8061469919635949
 30
0.125
 70
    32
  0
VERTEX
  5
1000019A
  8
VISIBLE
 10
2.574402511346302
 20
-0.8449718351937231
 30
0.125
 70
    32
  0
VERTEX
  5
1000019B
  8
VISIBLE
 10
2.575821601515352
 20
-0.8911366985370098
 30
0.125
 70
    32
  0
VERTEX
  5
1000019C
  8
VISIBLE
 10
2.57771372174075
 20
-0.9621045343289523
 30
0.125
 70
    32
  0
VERTEX
  5
1000019D
  8
VISIBLE
 10
2.579605841966149
 20
-1.041313796212862
 30
0.125
 70
    32
  0
VERTEX
  5
1000019E
  8
VISIBLE
 10
2.581497962191548
 20
-1.126017342158084
 30
0.125
 70
    32
  0
VERTEX
  5
1000019F
  8
VISIBLE
 10
2.583390082416948
 20
-1.213468030133962
 30
0.125
 70
    32
  0
SEQEND
  5
10000686
  8
VISIBLE
  0
POLYLINE
  5
F5411
  8
VISIBLE
 10
0.0
 20
0.0
 30
0.0
 66
     1
 70
     8
  0
VERTEX
  5
100001A2
  8
VISIBLE
 10
2.250376922746718
 20
-1.213468030133962
 30
0.125
 70
    32
  0
VERTEX
  5
100001A3
  8
VISIBLE
 10
2.252269042972117
 20
-1.300918718109839
 30
0.125
 70
    32
  0
VERTEX
  5
100001A4
  8
VISIBLE
 10
2.254161163197517
 20
-1.385622264055061
 30
0.125
 70
    32
  0
VERTEX
  5
100001A5
  8
VISIBLE
 10
2.256053283422915
 20
-1.464831525938971
 30
0.125
 70
    32
  0
VERTEX
  5
100001A6
  8
VISIBLE
 10
2.257945403648315
 20
-1.535799361730913
 30
0.125
 70
    32
  0
VERTEX
  5
100001A7
  8
VISIBLE
 10
2.259364493817364
 20
-1.5819642250742
 30
0.125
 70
    32
  0
VERTEX
  5
100001A8
  8
VISIBLE
 10
2.260783583986413
 20
-1.620789068304328
 30
0.125
 70
    32
  0
VERTEX
  5
100001A9
  8
VISIBLE
 10
2.262202674155462
 20
-1.651114940877115
 30
0.125
 70
    32
  0
VERTEX
  5
100001AA
  8
VISIBLE
 10
2.263621764324511
 20
-1.671782892248377
 30
0.125
 70
    32
  0
VERTEX
  5
100001AB
  8
VISIBLE
 10
2.264416454819179
 20
-1.678706382445421
 30
0.125
 70
    32
  0
VERTEX
  5
100001AC
  8
VISIBLE
 10
2.265040854493561
 20
-1.681633971873931
 30
0.125
 70
    32
  0
VERTEX
  5
100001AD
  8
VISIBLE
 10
2.265277369521736
 20
-1.682142801240939
 30
0.125
 70
    32
  0
VERTEX
  5
100001AE
  8
VISIBLE
 10
2.265513884549911
 20
-1.682313603365891
 30
0.125
 70
    32
  0
VERTEX
  5
100001AF
  8
VISIBLE
 10
2.265750399578086
 20
-1.682142801240938
 30
0.125
 70
    32
  0
VERTEX
  5
100001B0
  8
VISIBLE
 10
2.26598691460626
 20
-1.681633971873932
 30
0.125
 70
    32
  0
VERTEX
  5
100001B1
  8
VISIBLE
 10
2.266781605100928
 20
-1.677518541582073
 30
0.125
 70
    32
  0
VERTEX
  5
100001B2
  8
VISIBLE
 10
2.26740600477531
 20
-1.671782892248377
 30
0.125
 70
    32
  0
VERTEX
  5
100001B3
  8
VISIBLE
 10
2.268825094944359
 20
-1.651114940877115
 30
0.125
 70
    32
  0
VERTEX
  5
100001B4
  8
VISIBLE
 10
2.270244185113408
 20
-1.620789068304328
 30
0.125
 70
    32
  0
VERTEX
  5
100001B5
  8
VISIBLE
 10
2.271663275282458
 20
-1.5819642250742
 30
0.125
 70
    32
  0
VERTEX
  5
100001B6
  8
VISIBLE
 10
2.273082365451507
 20
-1.535799361730914
 30
0.125
 70
    32
  0
VERTEX
  5
100001B7
  8
VISIBLE
 10
2.274974485676906
 20
-1.464831525938971
 30
0.125
 70
    32
  0
VERTEX
  5
100001B8
  8
VISIBLE
 10
2.276866605902305
 20
-1.385622264055061
 30
0.125
 70
    32
  0
VERTEX
  5
100001B9
  8
VISIBLE
 10
2.278758726127704
 20
-1.300918718109839
 30
0.125
 70
    32
  0
VERTEX
  5
100001BA
  8
VISIBLE
 10
2.280650846353103
 20
-1.213468030133962
 30
0.125
 70
    32
  0
SEQEND
  5
10000687
  8
VISIBLE
  0
POLYLINE
  5
F5412
  8
VISIBLE
 10
0.0
 20
0.0
 30
0.0
 66
     1
 70
     8
  0
VERTEX
  5
100001BD
  8
VISIBLE
 10
2.250376922746718
 20
-1.213468030133962
 30
0.125
 70
    32
  0
VERTEX
  5
100001BE
  8
VISIBLE
 10
2.252269042972117
 20
-1.126017342158084
 30
0.125
 70
    32
  0
VERTEX
  5
100001BF
  8
VISIBLE
 10
2.254161163197517
 20
-1.041313796212862
 30
0.125
 70
    32
  0
VERTEX
  5
100001C0
  8
VISIBLE
 10
2.256053283422915
 20
-0.9621045343289525
 30
0.125
 70
    32
  0
VERTEX
  5
100001C1
  8
VISIBLE
 10
2.257945403648315
 20
-0.8911366985370097
 30
0.125
 70
    32
  0
VERTEX
  5
100001C2
  8
VISIBLE
 10
2.259364493817364
 20
-0.8449718351937229
 30
0.125
 70
    32
  0
VERTEX
  5
100001C3
  8
VISIBLE
 10
2.260783583986413
 20
-0.8061469919635945
 30
0.125
 70
    32
  0
VERTEX
  5
100001C4
  8
VISIBLE
 10
2.262202674155462
 20
-0.7758211193908079
 30
0.125
 70
    32
  0
VERTEX
  5
100001C5
  8
VISIBLE
 10
2.263621764324511
 20
-0.7551531680195454
 30
0.125
 70
    32
  0
VERTEX
  5
100001C6
  8
VISIBLE
 10
2.264416454819179
 20
-0.7482296778225009
 30
0.125
 70
    32
  0
VERTEX
  5
100001C7
  8
VISIBLE
 10
2.265040854493561
 20
-0.7453020883939905
 30
0.125
 70
    32
  0
VERTEX
  5
100001C8
  8
VISIBLE
 10
2.265277369521736
 20
-0.7447932590269842
 30
0.125
 70
    32
  0
VERTEX
  5
100001C9
  8
VISIBLE
 10
2.265513884549911
 20
-0.7446224569020313
 30
0.125
 70
    32
  0
VERTEX
  5
100001CA
  8
VISIBLE
 10
2.265750399578085
 20
-0.7447932590269842
 30
0.125
 70
    32
  0
VERTEX
  5
100001CB
  8
VISIBLE
 10
2.26598691460626
 20
-0.7453020883939905
 30
0.125
 70
    32
  0
VERTEX
  5
100001CC
  8
VISIBLE
 10
2.266781605100928
 20
-0.7494175186858495
 30
0.125
 70
    32
  0
VERTEX
  5
100001CD
  8
VISIBLE
 10
2.267406004775309
 20
-0.7551531680195454
 30
0.125
 70
    32
  0
VERTEX
  5
100001CE
  8
VISIBLE
 10
2.268825094944359
 20
-0.7758211193908077
 30
0.125
 70
    32
  0
VERTEX
  5
100001CF
  8
VISIBLE
 10
2.270244185113408
 20
-0.8061469919635943
 30
0.125
 70
    32
  0
VERTEX
  5
100001D0
  8
VISIBLE
 10
2.271663275282457
 20
-0.8449718351937228
 30
0.125
 70
    32
  0
VERTEX
  5
100001D1
  8
VISIBLE
 10
2.273082365451506
 20
-0.8911366985370097
 30
0.125
 70
    32
  0
VERTEX
  5
100001D2
  8
VISIBLE
 10
2.274974485676906
 20
-0.9621045343289522
 30
0.125
 70
    32
  0
VERTEX
  5
100001D3
  8
VISIBLE
 10
2.276866605902305
 20
-1.041313796212862
 30
0.125
 70
    32
  0
VERTEX
  5
100001D4
  8
VISIBLE
 10
2.278758726127704
 20
-1.126017342158084
 30
0.125
 70
    32
  0
VERTEX
  5
100001D5
  8
VISIBLE
 10
2.280650846353103
 20
-1.213468030133962
 30
0.125
 70
    32
  0
SEQEND
  5
10000688
  8
VISIBLE
  0
POLYLINE
  5
F5413
  8
VISIBLE
 10
0.0
 20
0.0
 30
0.0
 66
     1
 70
     8
  0
VERTEX
  5
100001D8
  8
VISIBLE
 10
2.522842235204179
 20
-1.213468030133962
 30
0.125
 70
    32
  0
VERTEX
  5
100001D9
  8
VISIBLE
 10
2.520950114978779
 20
-1.126017342158084
 30
0.125
 70
    32
  0
VERTEX
  5
100001DA
  8
VISIBLE
 10
2.51905799475338
 20
-1.041313796212862
 30
0.125
 70
    32
  0
VERTEX
  5
100001DB
  8
VISIBLE
 10
2.517165874527982
 20
-0.9621045343289526
 30
0.125
 70
    32
  0
VERTEX
  5
100001DC
  8
VISIBLE
 10
2.515273754302583
 20
-0.8911366985370099
 30
0.125
 70
    32
  0
VERTEX
  5
100001DD
  8
VISIBLE
 10
2.513854664133533
 20
-0.8449718351937233
 30
0.125
 70
    32
  0
VERTEX
  5
100001DE
  8
VISIBLE
 10
2.512435573964484
 20
-0.8061469919635951
 30
0.125
 70
    32
  0
VERTEX
  5
100001DF
  8
VISIBLE
 10
2.511016483795435
 20
-0.7758211193908084
 30
0.125
 70
    32
  0
VERTEX
  5
100001E0
  8
VISIBLE
 10
2.509597393626385
 20
-0.7551531680195461
 30
0.125
 70
    32
  0
VERTEX
  5
100001E1
  8
VISIBLE
 10
2.508802703131718
 20
-0.7482296778225015
 30
0.125
 70
    32
  0
VERTEX
  5
100001E2
  8
VISIBLE
 10
2.508178303457335
 20
-0.7453020883939913
 30
0.125
 70
    32
  0
VERTEX
  5
100001E3
  8
VISIBLE
 10
2.507941788429161
 20
-0.744793259026985
 30
0.125
 70
    32
  0
VERTEX
  5
100001E4
  8
VISIBLE
 10
2.507705273400986
 20
-0.7446224569020321
 30
0.125
 70
    32
  0
VERTEX
  5
100001E5
  8
VISIBLE
 10
2.507468758372811
 20
-0.744793259026985
 30
0.125
 70
    32
  0
VERTEX
  5
100001E6
  8
VISIBLE
 10
2.507232243344636
 20
-0.7453020883939913
 30
0.125
 70
    32
  0
VERTEX
  5
100001E7
  8
VISIBLE
 10
2.506437552849969
 20
-0.7494175186858499
 30
0.125
 70
    32
  0
VERTEX
  5
100001E8
  8
VISIBLE
 10
2.505813153175587
 20
-0.7551531680195461
 30
0.125
 70
    32
  0
VERTEX
  5
100001E9
  8
VISIBLE
 10
2.504394063006538
 20
-0.7758211193908084
 30
0.125
 70
    32
  0
VERTEX
  5
100001EA
  8
VISIBLE
 10
2.502974972837489
 20
-0.8061469919635949
 30
0.125
 70
    32
  0
VERTEX
  5
100001EB
  8
VISIBLE
 10
2.50155588266844
 20
-0.8449718351937231
 30
0.125
 70
    32
  0
VERTEX
  5
100001EC
  8
VISIBLE
 10
2.50013679249939
 20
-0.8911366985370098
 30
0.125
 70
    32
  0
VERTEX
  5
100001ED
  8
VISIBLE
 10
2.498244672273991
 20
-0.9621045343289523
 30
0.125
 70
    32
  0
VERTEX
  5
100001EE
  8
VISIBLE
 10
2.496352552048592
 20
-1.041313796212862
 30
0.125
 70
    32
  0
VERTEX
  5
100001EF
  8
VISIBLE
 10
2.494460431823193
 20
-1.126017342158084
 30
0.125
 70
    32
  0
VERTEX
  5
100001F0
  8
VISIBLE
 10
2.492568311597794
 20
-1.213468030133962
 30
0.125
 70
    32
  0
SEQEND
  5
10000689
  8
VISIBLE
  0
POLYLINE
  5
F5414
  8
VISIBLE
 10
0.0
 20
0.0
 30
0.0
 66
     1
 70
     8
  0
VERTEX
  5
100001F3
  8
VISIBLE
 10
2.522842235204179
 20
-1.213468030133962
 30
0.125
 70
    32
  0
VERTEX
  5
100001F4
  8
VISIBLE
 10
2.520950114978779
 20
-1.300918718109839
 30
0.125
 70
    32
  0
VERTEX
  5
100001F5
  8
VISIBLE
 10
2.51905799475338
 20
-1.385622264055061
 30
0.125
 70
    32
  0
VERTEX
  5
100001F6
  8
VISIBLE
 10
2.517165874527982
 20
-1.464831525938971
 30
0.125
 70
    32
  0
VERTEX
  5
100001F7
  8
VISIBLE
 10
2.515273754302583
 20
-1.535799361730913
 30
0.125
 70
    32
  0
VERTEX
  5
100001F8
  8
VISIBLE
 10
2.513854664133533
 20
-1.5819642250742
 30
0.125
 70
    32
  0
VERTEX
  5
100001F9
  8
VISIBLE
 10
2.512435573964484
 20
-1.620789068304328
 30
0.125
 70
    32
  0
VERTEX
  5
100001FA
  8
VISIBLE
 10
2.511016483795435
 20
-1.651114940877115
 30
0.125
 70
    32
  0
VERTEX
  5
100001FB
  8
VISIBLE
 10
2.509597393626385
 20
-1.671782892248377
 30
0.125
 70
    32
  0
VERTEX
  5
100001FC
  8
VISIBLE
 10
2.508802703131718
 20
-1.678706382445421
 30
0.125
 70
    32
  0
VERTEX
  5
100001FD
  8
VISIBLE
 10
2.508178303457335
 20
-1.681633971873931
 30
0.125
 70
    32
  0
VERTEX
  5
100001FE
  8
VISIBLE
 10
2.507941788429161
 20
-1.682142801240938
 30
0.125
 70
    32
  0
VERTEX
  5
100001FF
  8
VISIBLE
 10
2.507705273400986
 20
-1.682313603365891
 30
0.125
 70
    32
  0
VERTEX
  5
10000200
  8
VISIBLE
 10
2.507468758372811
 20
-1.682142801240938
 30
0.125
 70
    32
  0
VERTEX
  5
10000201
  8
VISIBLE
 10
2.507232243344636
 20
-1.681633971873932
 30
0.125
 70
    32
  0
VERTEX
  5
10000202
  8
VISIBLE
 10
2.506437552849969
 20
-1.677518541582073
 30
0.125
 70
    32
  0
VERTEX
  5
10000203
  8
VISIBLE
 10
2.505813153175587
 20
-1.671782892248377
 30
0.125
 70
    32
  0
VERTEX
  5
10000204
  8
VISIBLE
 10
2.504394063006538
 20
-1.651114940877115
 30
0.125
 70
    32
  0
VERTEX
  5
10000205
  8
VISIBLE
 10
2.502974972837489
 20
-1.620789068304328
 30
0.125
 70
    32
  0
VERTEX
  5
10000206
  8
VISIBLE
 10
2.50155588266844
 20
-1.5819642250742
 30
0.125
 70
    32
  0
VERTEX
  5
10000207
  8
VISIBLE
 10
2.50013679249939
 20
-1.535799361730914
 30
0.125
 70
    32
  0
VERTEX
  5
10000208
  8
VISIBLE
 10
2.498244672273991
 20
-1.464831525938971
 30
0.125
 70
    32
  0
VERTEX
  5
10000209
  8
VISIBLE
 10
2.496352552048592
 20
-1.385622264055061
 30
0.125
 70
    32
  0
VERTEX
  5
1000020A
  8
VISIBLE
 10
2.494460431823193
 20
-1.300918718109839
 30
0.125
 70
    32
  0
VERTEX
  5
1000020B
  8
VISIBLE
 10
2.492568311597794
 20
-1.213468030133962
 30
0.125
 70
    32
  0
SEQEND
  5
1000068A
  8
VISIBLE
  0
POLYLINE
  5
F5415
  8
VISIBLE
 10
0.0
 20
0.0
 30
0.0
 66
     1
 70
     8
  0
VERTEX
  5
1000020E
  8
VISIBLE
 10
2.46229438799141
 20
-1.213468030133962
 30
0.125
 70
    32
  0
VERTEX
  5
1000020F
  8
VISIBLE
 10
2.46040226776601
 20
-1.126017342158084
 30
0.125
 70
    32
  0
VERTEX
  5
10000210
  8
VISIBLE
 10
2.458510147540611
 20
-1.041313796212862
 30
0.125
 70
    32
  0
VERTEX
  5
10000211
  8
VISIBLE
 10
2.456618027315213
 20
-0.9621045343289526
 30
0.125
 70
    32
  0
VERTEX
  5
10000212
  8
VISIBLE
 10
2.454725907089813
 20
-0.8911366985370099
 30
0.125
 70
    32
  0
VERTEX
  5
10000213
  8
VISIBLE
 10
2.453306816920764
 20
-0.8449718351937231
 30
0.125
 70
    32
  0
VERTEX
  5
10000214
  8
VISIBLE
 10
2.451887726751715
 20
-0.8061469919635949
 30
0.125
 70
    32
  0
VERTEX
  5
10000215
  8
VISIBLE
 10
2.450468636582666
 20
-0.7758211193908081
 30
0.125
 70
    32
  0
VERTEX
  5
10000216
  8
VISIBLE
 10
2.449049546413617
 20
-0.7551531680195458
 30
0.125
 70
    32
  0
VERTEX
  5
10000217
  8
VISIBLE
 10
2.448254855918949
 20
-0.7482296778225013
 30
0.125
 70
    32
  0
VERTEX
  5
10000218
  8
VISIBLE
 10
2.447630456244567
 20
-0.745302088393991
 30
0.125
 70
    32
  0
VERTEX
  5
10000219
  8
VISIBLE
 10
2.447393941216392
 20
-0.7447932590269848
 30
0.125
 70
    32
  0
VERTEX
  5
1000021A
  8
VISIBLE
 10
2.447157426188217
 20
-0.7446224569020319
 30
0.125
 70
    32
  0
VERTEX
  5
1000021B
  8
VISIBLE
 10
2.446920911160042
 20
-0.7447932590269848
 30
0.125
 70
    32
  0
VERTEX
  5
1000021C
  8
VISIBLE
 10
2.446684396131868
 20
-0.745302088393991
 30
0.125
 70
    32
  0
VERTEX
  5
1000021D
  8
VISIBLE
 10
2.4458897056372
 20
-0.7494175186858498
 30
0.125
 70
    32
  0
VERTEX
  5
1000021E
  8
VISIBLE
 10
2.445265305962818
 20
-0.7551531680195458
 30
0.125
 70
    32
  0
VERTEX
  5
1000021F
  8
VISIBLE
 10
2.443846215793769
 20
-0.7758211193908081
 30
0.125
 70
    32
  0
VERTEX
  5
10000220
  8
VISIBLE
 10
2.442427125624719
 20
-0.8061469919635947
 30
0.125
 70
    32
  0
VERTEX
  5
10000221
  8
VISIBLE
 10
2.441008035455671
 20
-0.8449718351937229
 30
0.125
 70
    32
  0
VERTEX
  5
10000222
  8
VISIBLE
 10
2.439588945286621
 20
-0.8911366985370097
 30
0.125
 70
    32
  0
VERTEX
  5
10000223
  8
VISIBLE
 10
2.437696825061222
 20
-0.9621045343289522
 30
0.125
 70
    32
  0
VERTEX
  5
10000224
  8
VISIBLE
 10
2.435804704835823
 20
-1.041313796212862
 30
0.125
 70
    32
  0
VERTEX
  5
10000225
  8
VISIBLE
 10
2.433912584610424
 20
-1.126017342158084
 30
0.125
 70
    32
  0
VERTEX
  5
10000226
  8
VISIBLE
 10
2.432020464385025
 20
-1.213468030133962
 30
0.125
 70
    32
  0
SEQEND
  5
1000068B
  8
VISIBLE
  0
POLYLINE
  5
F5416
  8
VISIBLE
 10
0.0
 20
0.0
 30
0.0
 66
     1
 70
     8
  0
VERTEX
  5
10000229
  8
VISIBLE
 10
2.46229438799141
 20
-1.213468030133962
 30
0.125
 70
    32
  0
VERTEX
  5
1000022A
  8
VISIBLE
 10
2.46040226776601
 20
-1.300918718109839
 30
0.125
 70
    32
  0
VERTEX
  5
1000022B
  8
VISIBLE
 10
2.458510147540612
 20
-1.385622264055061
 30
0.125
 70
    32
  0
VERTEX
  5
1000022C
  8
VISIBLE
 10
2.456618027315213
 20
-1.464831525938971
 30
0.125
 70
    32
  0
VERTEX
  5
1000022D
  8
VISIBLE
 10
2.454725907089814
 20
-1.535799361730913
 30
0.125
 70
    32
  0
VERTEX
  5
1000022E
  8
VISIBLE
 10
2.453306816920764
 20
-1.5819642250742
 30
0.125
 70
    32
  0
VERTEX
  5
1000022F
  8
VISIBLE
 10
2.451887726751715
 20
-1.620789068304328
 30
0.125
 70
    32
  0
VERTEX
  5
10000230
  8
VISIBLE
 10
2.450468636582666
 20
-1.651114940877115
 30
0.125
 70
    32
  0
VERTEX
  5
10000231
  8
VISIBLE
 10
2.449049546413617
 20
-1.671782892248377
 30
0.125
 70
    32
  0
VERTEX
  5
10000232
  8
VISIBLE
 10
2.448254855918949
 20
-1.678706382445421
 30
0.125
 70
    32
  0
VERTEX
  5
10000233
  8
VISIBLE
 10
2.447630456244567
 20
-1.681633971873931
 30
0.125
 70
    32
  0
VERTEX
  5
10000234
  8
VISIBLE
 10
2.447393941216393
 20
-1.682142801240938
 30
0.125
 70
    32
  0
VERTEX
  5
10000235
  8
VISIBLE
 10
2.447157426188218
 20
-1.682313603365891
 30
0.125
 70
    32
  0
VERTEX
  5
10000236
  8
VISIBLE
 10
2.446920911160043
 20
-1.682142801240938
 30
0.125
 70
    32
  0
VERTEX
  5
10000237
  8
VISIBLE
 10
2.446684396131868
 20
-1.681633971873931
 30
0.125
 70
    32
  0
VERTEX
  5
10000238
  8
VISIBLE
 10
2.4458897056372
 20
-1.677518541582073
 30
0.125
 70
    32
  0
VERTEX
  5
10000239
  8
VISIBLE
 10
2.445265305962818
 20
-1.671782892248377
 30
0.125
 70
    32
  0
VERTEX
  5
1000023A
  8
VISIBLE
 10
2.443846215793769
 20
-1.651114940877115
 30
0.125
 70
    32
  0
VERTEX
  5
1000023B
  8
VISIBLE
 10
2.44242712562472
 20
-1.620789068304328
 30
0.125
 70
    32
  0
VERTEX
  5
1000023C
  8
VISIBLE
 10
2.441008035455671
 20
-1.5819642250742
 30
0.125
 70
    32
  0
VERTEX
  5
1000023D
  8
VISIBLE
 10
2.439588945286621
 20
-1.535799361730913
 30
0.125
 70
    32
  0
VERTEX
  5
1000023E
  8
VISIBLE
 10
2.437696825061222
 20
-1.464831525938971
 30
0.125
 70
    32
  0
VERTEX
  5
1000023F
  8
VISIBLE
 10
2.435804704835823
 20
-1.385622264055061
 30
0.125
 70
    32
  0
VERTEX
  5
10000240
  8
VISIBLE
 10
2.433912584610424
 20
-1.300918718109839
 30
0.125
 70
    32
  0
VERTEX
  5
10000241
  8
VISIBLE
 10
2.432020464385025
 20
-1.213468030133962
 30
0.125
 70
    32
  0
SEQEND
  5
1000068C
  8
VISIBLE
  0
POLYLINE
  5
F5417
  8
VISIBLE
 10
0.0
 20
0.0
 30
0.0
 66
     1
 70
     8
  0
VERTEX
  5
10000244
  8
VISIBLE
 10
2.341198693565872
 20
-1.213468030133962
 30
0.125
 70
    32
  0
VERTEX
  5
10000245
  8
VISIBLE
 10
2.339306573340473
 20
-1.126017342158084
 30
0.125
 70
    32
  0
VERTEX
  5
10000246
  8
VISIBLE
 10
2.337414453115073
 20
-1.041313796212862
 30
0.125
 70
    32
  0
VERTEX
  5
10000247
  8
VISIBLE
 10
2.335522332889675
 20
-0.9621045343289526
 30
0.125
 70
    32
  0
VERTEX
  5
10000248
  8
VISIBLE
 10
2.333630212664275
 20
-0.8911366985370099
 30
0.125
 70
    32
  0
VERTEX
  5
10000249
  8
VISIBLE
 10
2.332211122495227
 20
-0.8449718351937231
 30
0.125
 70
    32
  0
VERTEX
  5
1000024A
  8
VISIBLE
 10
2.330792032326177
 20
-0.8061469919635947
 30
0.125
 70
    32
  0
VERTEX
  5
1000024B
  8
VISIBLE
 10
2.329372942157128
 20
-0.775821119390808
 30
0.125
 70
    32
  0
VERTEX
  5
1000024C
  8
VISIBLE
 10
2.327953851988078
 20
-0.7551531680195457
 30
0.125
 70
    32
  0
VERTEX
  5
1000024D
  8
VISIBLE
 10
2.327159161493411
 20
-0.7482296778225013
 30
0.125
 70
    32
  0
VERTEX
  5
1000024E
  8
VISIBLE
 10
2.326534761819029
 20
-0.7453020883939909
 30
0.125
 70
    32
  0
VERTEX
  5
1000024F
  8
VISIBLE
 10
2.326298246790854
 20
-0.7447932590269845
 30
0.125
 70
    32
  0
VERTEX
  5
10000250
  8
VISIBLE
 10
2.326061731762679
 20
-0.7446224569020317
 30
0.125
 70
    32
  0
VERTEX
  5
10000251
  8
VISIBLE
 10
2.325825216734505
 20
-0.7447932590269845
 30
0.125
 70
    32
  0
VERTEX
  5
10000252
  8
VISIBLE
 10
2.32558870170633
 20
-0.7453020883939906
 30
0.125
 70
    32
  0
VERTEX
  5
10000253
  8
VISIBLE
 10
2.324794011211663
 20
-0.7494175186858498
 30
0.125
 70
    32
  0
VERTEX
  5
10000254
  8
VISIBLE
 10
2.32416961153728
 20
-0.7551531680195457
 30
0.125
 70
    32
  0
VERTEX
  5
10000255
  8
VISIBLE
 10
2.322750521368231
 20
-0.775821119390808
 30
0.125
 70
    32
  0
VERTEX
  5
10000256
  8
VISIBLE
 10
2.321331431199182
 20
-0.8061469919635945
 30
0.125
 70
    32
  0
VERTEX
  5
10000257
  8
VISIBLE
 10
2.319912341030133
 20
-0.8449718351937228
 30
0.125
 70
    32
  0
VERTEX
  5
10000258
  8
VISIBLE
 10
2.318493250861084
 20
-0.8911366985370097
 30
0.125
 70
    32
  0
VERTEX
  5
10000259
  8
VISIBLE
 10
2.316601130635684
 20
-0.9621045343289522
 30
0.125
 70
    32
  0
VERTEX
  5
1000025A
  8
VISIBLE
 10
2.314709010410286
 20
-1.041313796212862
 30
0.125
 70
    32
  0
VERTEX
  5
1000025B
  8
VISIBLE
 10
2.312816890184886
 20
-1.126017342158084
 30
0.125
 70
    32
  0
VERTEX
  5
1000025C
  8
VISIBLE
 10
2.310924769959487
 20
-1.213468030133962
 30
0.125
 70
    32
  0
SEQEND
  5
1000068D
  8
VISIBLE
  0
POLYLINE
  5
F5418
  8
VISIBLE
 10
0.0
 20
0.0
 30
0.0
 66
     1
 70
     8
  0
VERTEX
  5
1000025F
  8
VISIBLE
 10
2.341198693565872
 20
-1.213468030133962
 30
0.125
 70
    32
  0
VERTEX
  5
10000260
  8
VISIBLE
 10
2.339306573340473
 20
-1.300918718109839
 30
0.125
 70
    32
  0
VERTEX
  5
10000261
  8
VISIBLE
 10
2.337414453115074
 20
-1.385622264055061
 30
0.125
 70
    32
  0
VERTEX
  5
10000262
  8
VISIBLE
 10
2.335522332889675
 20
-1.464831525938971
 30
0.125
 70
    32
  0
VERTEX
  5
10000263
  8
VISIBLE
 10
2.333630212664276
 20
-1.535799361730914
 30
0.125
 70
    32
  0
VERTEX
  5
10000264
  8
VISIBLE
 10
2.332211122495227
 20
-1.5819642250742
 30
0.125
 70
    32
  0
VERTEX
  5
10000265
  8
VISIBLE
 10
2.330792032326177
 20
-1.620789068304328
 30
0.125
 70
    32
  0
VERTEX
  5
10000266
  8
VISIBLE
 10
2.329372942157128
 20
-1.651114940877115
 30
0.125
 70
    32
  0
VERTEX
  5
10000267
  8
VISIBLE
 10
2.327953851988079
 20
-1.671782892248378
 30
0.125
 70
    32
  0
VERTEX
  5
10000268
  8
VISIBLE
 10
2.327159161493412
 20
-1.678706382445421
 30
0.125
 70
    32
  0
VERTEX
  5
10000269
  8
VISIBLE
 10
2.326534761819029
 20
-1.681633971873932
 30
0.125
 70
    32
  0
VERTEX
  5
1000026A
  8
VISIBLE
 10
2.326298246790854
 20
-1.682142801240939
 30
0.125
 70
    32
  0
VERTEX
  5
1000026B
  8
VISIBLE
 10
2.32606173176268
 20
-1.682313603365891
 30
0.125
 70
    32
  0
VERTEX
  5
1000026C
  8
VISIBLE
 10
2.325825216734505
 20
-1.682142801240939
 30
0.125
 70
    32
  0
VERTEX
  5
1000026D
  8
VISIBLE
 10
2.32558870170633
 20
-1.681633971873932
 30
0.125
 70
    32
  0
VERTEX
  5
1000026E
  8
VISIBLE
 10
2.324794011211663
 20
-1.677518541582073
 30
0.125
 70
    32
  0
VERTEX
  5
1000026F
  8
VISIBLE
 10
2.32416961153728
 20
-1.671782892248377
 30
0.125
 70
    32
  0
VERTEX
  5
10000270
  8
VISIBLE
 10
2.322750521368231
 20
-1.651114940877115
 30
0.125
 70
    32
  0
VERTEX
  5
10000271
  8
VISIBLE
 10
2.321331431199182
 20
-1.620789068304328
 30
0.125
 70
    32
  0
VERTEX
  5
10000272
  8
VISIBLE
 10
2.319912341030133
 20
-1.5819642250742
 30
0.125
 70
    32
  0
VERTEX
  5
10000273
  8
VISIBLE
 10
2.318493250861084
 20
-1.535799361730914
 30
0.125
 70
    32
  0
VERTEX
  5
10000274
  8
VISIBLE
 10
2.316601130635684
 20
-1.464831525938971
 30
0.125
 70
    32
  0
VERTEX
  5
10000275
  8
VISIBLE
 10
2.314709010410286
 20
-1.385622264055061
 30
0.125
 70
    32
  0
VERTEX
  5
10000276
  8
VISIBLE
 10
2.312816890184886
 20
-1.300918718109839
 30
0.125
 70
    32
  0
VERTEX
  5
10000277
  8
VISIBLE
 10
2.310924769959487
 20
-1.213468030133962
 30
0.125
 70
    32
  0
SEQEND
  5
1000068E
  8
VISIBLE
  0
POLYLINE
  5
F5419
  8
VISIBLE
 10
0.0
 20
0.0
 30
0.0
 66
     1
 70
     8
  0
VERTEX
  5
1000027A
  8
VISIBLE
 10
1.977911610289258
 20
-1.213468030133961
 30
0.125
 70
    32
  0
VERTEX
  5
1000027B
  8
VISIBLE
 10
1.976019490063859
 20
-1.126017342158084
 30
0.125
 70
    32
  0
VERTEX
  5
1000027C
  8
VISIBLE
 10
1.97412736983846
 20
-1.041313796212862
 30
0.125
 70
    32
  0
VERTEX
  5
1000027D
  8
VISIBLE
 10
1.972235249613061
 20
-0.9621045343289522
 30
0.125
 70
    32
  0
VERTEX
  5
1000027E
  8
VISIBLE
 10
1.970343129387662
 20
-0.8911366985370097
 30
0.125
 70
    32
  0
VERTEX
  5
1000027F
  8
VISIBLE
 10
1.968924039218613
 20
-0.8449718351937228
 30
0.125
 70
    32
  0
VERTEX
  5
10000280
  8
VISIBLE
 10
1.967504949049564
 20
-0.8061469919635945
 30
0.125
 70
    32
  0
VERTEX
  5
10000281
  8
VISIBLE
 10
1.966085858880514
 20
-0.7758211193908077
 30
0.125
 70
    32
  0
VERTEX
  5
10000282
  8
VISIBLE
 10
1.964666768711465
 20
-0.7551531680195454
 30
0.125
 70
    32
  0
VERTEX
  5
10000283
  8
VISIBLE
 10
1.963872078216798
 20
-0.7482296778225009
 30
0.125
 70
    32
  0
VERTEX
  5
10000284
  8
VISIBLE
 10
1.963247678542416
 20
-0.7453020883939906
 30
0.125
 70
    32
  0
VERTEX
  5
10000285
  8
VISIBLE
 10
1.963011163514241
 20
-0.7447932590269842
 30
0.125
 70
    32
  0
VERTEX
  5
10000286
  8
VISIBLE
 10
1.962774648486066
 20
-0.7446224569020313
 30
0.125
 70
    32
  0
VERTEX
  5
10000287
  8
VISIBLE
 10
1.962538133457891
 20
-0.7447932590269842
 30
0.125
 70
    32
  0
VERTEX
  5
10000288
  8
VISIBLE
 10
1.962301618429716
 20
-0.7453020883939906
 30
0.125
 70
    32
  0
VERTEX
  5
10000289
  8
VISIBLE
 10
1.961506927935049
 20
-0.7494175186858495
 30
0.125
 70
    32
  0
VERTEX
  5
1000028A
  8
VISIBLE
 10
1.960882528260667
 20
-0.7551531680195454
 30
0.125
 70
    32
  0
VERTEX
  5
1000028B
  8
VISIBLE
 10
1.959463438091618
 20
-0.7758211193908076
 30
0.125
 70
    32
  0
VERTEX
  5
1000028C
  8
VISIBLE
 10
1.958044347922568
 20
-0.8061469919635945
 30
0.125
 70
    32
  0
VERTEX
  5
1000028D
  8
VISIBLE
 10
1.956625257753519
 20
-0.8449718351937225
 30
0.125
 70
    32
  0
VERTEX
  5
1000028E
  8
VISIBLE
 10
1.95520616758447
 20
-0.8911366985370094
 30
0.125
 70
    32
  0
VERTEX
  5
1000028F
  8
VISIBLE
 10
1.953314047359071
 20
-0.9621045343289519
 30
0.125
 70
    32
  0
VERTEX
  5
10000290
  8
VISIBLE
 10
1.951421927133672
 20
-1.041313796212862
 30
0.125
 70
    32
  0
VERTEX
  5
10000291
  8
VISIBLE
 10
1.949529806908273
 20
-1.126017342158084
 30
0.125
 70
    32
  0
VERTEX
  5
10000292
  8
VISIBLE
 10
1.947637686682874
 20
-1.213468030133961
 30
0.125
 70
    32
  0
SEQEND
  5
1000068F
  8
VISIBLE
  0
POLYLINE
  5
F541A
  8
VISIBLE
 10
0.0
 20
0.0
 30
0.0
 66
     1
 70
     8
  0
VERTEX
  5
10000295
  8
VISIBLE
 10
1.977911610289258
 20
-1.213468030133961
 30
0.125
 70
    32
  0
VERTEX
  5
10000296
  8
VISIBLE
 10
1.976019490063859
 20
-1.300918718109839
 30
0.125
 70
    32
  0
VERTEX
  5
10000297
  8
VISIBLE
 10
1.97412736983846
 20
-1.385622264055061
 30
0.125
 70
    32
  0
VERTEX
  5
10000298
  8
VISIBLE
 10
1.972235249613061
 20
-1.464831525938971
 30
0.125
 70
    32
  0
VERTEX
  5
10000299
  8
VISIBLE
 10
1.970343129387662
 20
-1.535799361730914
 30
0.125
 70
    32
  0
VERTEX
  5
1000029A
  8
VISIBLE
 10
1.968924039218613
 20
-1.5819642250742
 30
0.125
 70
    32
  0
VERTEX
  5
1000029B
  8
VISIBLE
 10
1.967504949049564
 20
-1.620789068304328
 30
0.125
 70
    32
  0
VERTEX
  5
1000029C
  8
VISIBLE
 10
1.966085858880514
 20
-1.651114940877116
 30
0.125
 70
    32
  0
VERTEX
  5
1000029D
  8
VISIBLE
 10
1.964666768711465
 20
-1.671782892248378
 30
0.125
 70
    32
  0
VERTEX
  5
1000029E
  8
VISIBLE
 10
1.963872078216798
 20
-1.678706382445422
 30
0.125
 70
    32
  0
VERTEX
  5
1000029F
  8
VISIBLE
 10
1.963247678542416
 20
-1.681633971873933
 30
0.125
 70
    32
  0
VERTEX
  5
100002A0
  8
VISIBLE
 10
1.963011163514241
 20
-1.682142801240939
 30
0.125
 70
    32
  0
VERTEX
  5
100002A1
  8
VISIBLE
 10
1.962774648486066
 20
-1.682313603365892
 30
0.125
 70
    32
  0
VERTEX
  5
100002A2
  8
VISIBLE
 10
1.962538133457891
 20
-1.682142801240939
 30
0.125
 70
    32
  0
VERTEX
  5
100002A3
  8
VISIBLE
 10
1.962301618429716
 20
-1.681633971873933
 30
0.125
 70
    32
  0
VERTEX
  5
100002A4
  8
VISIBLE
 10
1.961506927935049
 20
-1.677518541582074
 30
0.125
 70
    32
  0
VERTEX
  5
100002A5
  8
VISIBLE
 10
1.960882528260667
 20
-1.671782892248378
 30
0.125
 70
    32
  0
VERTEX
  5
100002A6
  8
VISIBLE
 10
1.959463438091618
 20
-1.651114940877116
 30
0.125
 70
    32
  0
VERTEX
  5
100002A7
  8
VISIBLE
 10
1.958044347922568
 20
-1.620789068304328
 30
0.125
 70
    32
  0
VERTEX
  5
100002A8
  8
VISIBLE
 10
1.956625257753519
 20
-1.5819642250742
 30
0.125
 70
    32
  0
VERTEX
  5
100002A9
  8
VISIBLE
 10
1.95520616758447
 20
-1.535799361730914
 30
0.125
 70
    32
  0
VERTEX
  5
100002AA
  8
VISIBLE
 10
1.953314047359071
 20
-1.464831525938971
 30
0.125
 70
    32
  0
VERTEX
  5
100002AB
  8
VISIBLE
 10
1.951421927133672
 20
-1.385622264055061
 30
0.125
 70
    32
  0
VERTEX
  5
100002AC
  8
VISIBLE
 10
1.949529806908273
 20
-1.300918718109839
 30
0.125
 70
    32
  0
VERTEX
  5
100002AD
  8
VISIBLE
 10
1.947637686682874
 20
-1.213468030133961
 30
0.125
 70
    32
  0
SEQEND
  5
10000690
  8
VISIBLE
  0
POLYLINE
  5
F541B
  8
VISIBLE
 10
0.0
 20
0.0
 30
0.0
 66
     1
 70
     8
  0
VERTEX
  5
100002B0
  8
VISIBLE
 10
2.159555151927565
 20
-1.213468030133961
 30
0.125
 70
    32
  0
VERTEX
  5
100002B1
  8
VISIBLE
 10
2.157663031702166
 20
-1.126017342158084
 30
0.125
 70
    32
  0
VERTEX
  5
100002B2
  8
VISIBLE
 10
2.155770911476767
 20
-1.041313796212862
 30
0.125
 70
    32
  0
VERTEX
  5
100002B3
  8
VISIBLE
 10
2.153878791251368
 20
-0.9621045343289522
 30
0.125
 70
    32
  0
VERTEX
  5
100002B4
  8
VISIBLE
 10
2.151986671025969
 20
-0.8911366985370097
 30
0.125
 70
    32
  0
VERTEX
  5
100002B5
  8
VISIBLE
 10
2.15056758085692
 20
-0.8449718351937228
 30
0.125
 70
    32
  0
VERTEX
  5
100002B6
  8
VISIBLE
 10
2.14914849068787
 20
-0.8061469919635945
 30
0.125
 70
    32
  0
VERTEX
  5
100002B7
  8
VISIBLE
 10
2.147729400518821
 20
-0.7758211193908077
 30
0.125
 70
    32
  0
VERTEX
  5
100002B8
  8
VISIBLE
 10
2.146310310349772
 20
-0.7551531680195454
 30
0.125
 70
    32
  0
VERTEX
  5
100002B9
  8
VISIBLE
 10
2.145515619855104
 20
-0.7482296778225009
 30
0.125
 70
    32
  0
VERTEX
  5
100002BA
  8
VISIBLE
 10
2.144891220180722
 20
-0.7453020883939906
 30
0.125
 70
    32
  0
VERTEX
  5
100002BB
  8
VISIBLE
 10
2.144654705152548
 20
-0.7447932590269842
 30
0.125
 70
    32
  0
VERTEX
  5
100002BC
  8
VISIBLE
 10
2.144418190124373
 20
-0.7446224569020313
 30
0.125
 70
    32
  0
VERTEX
  5
100002BD
  8
VISIBLE
 10
2.144181675096198
 20
-0.7447932590269842
 30
0.125
 70
    32
  0
VERTEX
  5
100002BE
  8
VISIBLE
 10
2.143945160068023
 20
-0.7453020883939906
 30
0.125
 70
    32
  0
VERTEX
  5
100002BF
  8
VISIBLE
 10
2.143150469573356
 20
-0.7494175186858495
 30
0.125
 70
    32
  0
VERTEX
  5
100002C0
  8
VISIBLE
 10
2.142526069898973
 20
-0.7551531680195454
 30
0.125
 70
    32
  0
VERTEX
  5
100002C1
  8
VISIBLE
 10
2.141106979729924
 20
-0.7758211193908076
 30
0.125
 70
    32
  0
VERTEX
  5
100002C2
  8
VISIBLE
 10
2.139687889560875
 20
-0.8061469919635945
 30
0.125
 70
    32
  0
VERTEX
  5
100002C3
  8
VISIBLE
 10
2.138268799391826
 20
-0.8449718351937225
 30
0.125
 70
    32
  0
VERTEX
  5
100002C4
  8
VISIBLE
 10
2.136849709222777
 20
-0.8911366985370094
 30
0.125
 70
    32
  0
VERTEX
  5
100002C5
  8
VISIBLE
 10
2.134957588997378
 20
-0.9621045343289519
 30
0.125
 70
    32
  0
VERTEX
  5
100002C6
  8
VISIBLE
 10
2.133065468771979
 20
-1.041313796212862
 30
0.125
 70
    32
  0
VERTEX
  5
100002C7
  8
VISIBLE
 10
2.13117334854658
 20
-1.126017342158084
 30
0.125
 70
    32
  0
VERTEX
  5
100002C8
  8
VISIBLE
 10
2.12928122832118
 20
-1.213468030133961
 30
0.125
 70
    32
  0
SEQEND
  5
10000691
  8
VISIBLE
  0
POLYLINE
  5
F541C
  8
VISIBLE
 10
0.0
 20
0.0
 30
0.0
 66
     1
 70
     8
  0
VERTEX
  5
100002CB
  8
VISIBLE
 10
2.159555151927565
 20
-1.213468030133961
 30
0.125
 70
    32
  0
VERTEX
  5
100002CC
  8
VISIBLE
 10
2.157663031702166
 20
-1.300918718109839
 30
0.125
 70
    32
  0
VERTEX
  5
100002CD
  8
VISIBLE
 10
2.155770911476767
 20
-1.385622264055061
 30
0.125
 70
    32
  0
VERTEX
  5
100002CE
  8
VISIBLE
 10
2.153878791251368
 20
-1.464831525938971
 30
0.125
 70
    32
  0
VERTEX
  5
100002CF
  8
VISIBLE
 10
2.151986671025969
 20
-1.535799361730914
 30
0.125
 70
    32
  0
VERTEX
  5
100002D0
  8
VISIBLE
 10
2.15056758085692
 20
-1.5819642250742
 30
0.125
 70
    32
  0
VERTEX
  5
100002D1
  8
VISIBLE
 10
2.14914849068787
 20
-1.620789068304328
 30
0.125
 70
    32
  0
VERTEX
  5
100002D2
  8
VISIBLE
 10
2.147729400518821
 20
-1.651114940877115
 30
0.125
 70
    32
  0
VERTEX
  5
100002D3
  8
VISIBLE
 10
2.146310310349772
 20
-1.671782892248378
 30
0.125
 70
    32
  0
VERTEX
  5
100002D4
  8
VISIBLE
 10
2.145515619855104
 20
-1.678706382445422
 30
0.125
 70
    32
  0
VERTEX
  5
100002D5
  8
VISIBLE
 10
2.144891220180722
 20
-1.681633971873932
 30
0.125
 70
    32
  0
VERTEX
  5
100002D6
  8
VISIBLE
 10
2.144654705152548
 20
-1.682142801240939
 30
0.125
 70
    32
  0
VERTEX
  5
100002D7
  8
VISIBLE
 10
2.144418190124373
 20
-1.682313603365892
 30
0.125
 70
    32
  0
VERTEX
  5
100002D8
  8
VISIBLE
 10
2.144181675096198
 20
-1.682142801240939
 30
0.125
 70
    32
  0
VERTEX
  5
100002D9
  8
VISIBLE
 10
2.143945160068023
 20
-1.681633971873933
 30
0.125
 70
    32
  0
VERTEX
  5
100002DA
  8
VISIBLE
 10
2.143150469573355
 20
-1.677518541582074
 30
0.125
 70
    32
  0
VERTEX
  5
100002DB
  8
VISIBLE
 10
2.142526069898973
 20
-1.671782892248378
 30
0.125
 70
    32
  0
VERTEX
  5
100002DC
  8
VISIBLE
 10
2.141106979729924
 20
-1.651114940877116
 30
0.125
 70
    32
  0
VERTEX
  5
100002DD
  8
VISIBLE
 10
2.139687889560875
 20
-1.620789068304328
 30
0.125
 70
    32
  0
VERTEX
  5
100002DE
  8
VISIBLE
 10
2.138268799391826
 20
-1.5819642250742
 30
0.125
 70
    32
  0
VERTEX
  5
100002DF
  8
VISIBLE
 10
2.136849709222777
 20
-1.535799361730914
 30
0.125
 70
    32
  0
VERTEX
  5
100002E0
  8
VISIBLE
 10
2.134957588997378
 20
-1.464831525938971
 30
0.125
 70
    32
  0
VERTEX
  5
100002E1
  8
VISIBLE
 10
2.133065468771979
 20
-1.385622264055061
 30
0.125
 70
    32
  0
VERTEX
  5
100002E2
  8
VISIBLE
 10
2.13117334854658
 20
-1.300918718109839
 30
0.125
 70
    32
  0
VERTEX
  5
100002E3
  8
VISIBLE
 10
2.12928122832118
 20
-1.213468030133961
 30
0.125
 70
    32
  0
SEQEND
  5
10000692
  8
VISIBLE
  0
POLYLINE
  5
F541D
  8
VISIBLE
 10
0.0
 20
0.0
 30
0.0
 66
     1
 70
     8
  0
VERTEX
  5
100002E6
  8
VISIBLE
 10
1.856815915863721
 20
-1.213468030133961
 30
0.125
 70
    32
  0
VERTEX
  5
100002E7
  8
VISIBLE
 10
1.854923795638322
 20
-1.126017342158084
 30
0.125
 70
    32
  0
VERTEX
  5
100002E8
  8
VISIBLE
 10
1.853031675412923
 20
-1.041313796212862
 30
0.125
 70
    32
  0
VERTEX
  5
100002E9
  8
VISIBLE
 10
1.851139555187524
 20
-0.962104534328952
 30
0.125
 70
    32
  0
VERTEX
  5
100002EA
  8
VISIBLE
 10
1.849247434962124
 20
-0.8911366985370092
 30
0.125
 70
    32
  0
VERTEX
  5
100002EB
  8
VISIBLE
 10
1.847828344793075
 20
-0.8449718351937222
 30
0.125
 70
    32
  0
VERTEX
  5
100002EC
  8
VISIBLE
 10
1.846409254624026
 20
-0.8061469919635942
 30
0.125
 70
    32
  0
VERTEX
  5
100002ED
  8
VISIBLE
 10
1.844990164454977
 20
-0.7758211193908073
 30
0.125
 70
    32
  0
VERTEX
  5
100002EE
  8
VISIBLE
 10
1.843571074285927
 20
-0.755153168019545
 30
0.125
 70
    32
  0
VERTEX
  5
100002EF
  8
VISIBLE
 10
1.84277638379126
 20
-0.7482296778225004
 30
0.125
 70
    32
  0
VERTEX
  5
100002F0
  8
VISIBLE
 10
1.842151984116878
 20
-0.7453020883939901
 30
0.125
 70
    32
  0
VERTEX
  5
100002F1
  8
VISIBLE
 10
1.841915469088703
 20
-0.7447932590269838
 30
0.125
 70
    32
  0
VERTEX
  5
100002F2
  8
VISIBLE
 10
1.841678954060529
 20
-0.7446224569020309
 30
0.125
 70
    32
  0
VERTEX
  5
100002F3
  8
VISIBLE
 10
1.841442439032354
 20
-0.7447932590269838
 30
0.125
 70
    32
  0
VERTEX
  5
100002F4
  8
VISIBLE
 10
1.841205924004178
 20
-0.74530208839399
 30
0.125
 70
    32
  0
VERTEX
  5
100002F5
  8
VISIBLE
 10
1.840411233509511
 20
-0.7494175186858489
 30
0.125
 70
    32
  0
VERTEX
  5
100002F6
  8
VISIBLE
 10
1.83978683383513
 20
-0.755153168019545
 30
0.125
 70
    32
  0
VERTEX
  5
100002F7
  8
VISIBLE
 10
1.83836774366608
 20
-0.7758211193908074
 30
0.125
 70
    32
  0
VERTEX
  5
100002F8
  8
VISIBLE
 10
1.836948653497031
 20
-0.8061469919635942
 30
0.125
 70
    32
  0
VERTEX
  5
100002F9
  8
VISIBLE
 10
1.835529563327982
 20
-0.8449718351937225
 30
0.125
 70
    32
  0
VERTEX
  5
100002FA
  8
VISIBLE
 10
1.834110473158932
 20
-0.8911366985370093
 30
0.125
 70
    32
  0
VERTEX
  5
100002FB
  8
VISIBLE
 10
1.832218352933533
 20
-0.9621045343289519
 30
0.125
 70
    32
  0
VERTEX
  5
100002FC
  8
VISIBLE
 10
1.830326232708134
 20
-1.041313796212862
 30
0.125
 70
    32
  0
VERTEX
  5
100002FD
  8
VISIBLE
 10
1.828434112482735
 20
-1.126017342158084
 30
0.125
 70
    32
  0
VERTEX
  5
100002FE
  8
VISIBLE
 10
1.826541992257336
 20
-1.213468030133962
 30
0.125
 70
    32
  0
SEQEND
  5
10000693
  8
VISIBLE
  0
POLYLINE
  5
F541E
  8
VISIBLE
 10
0.0
 20
0.0
 30
0.0
 66
     1
 70
     8
  0
VERTEX
  5
10000301
  8
VISIBLE
 10
1.856815915863721
 20
-1.213468030133961
 30
0.125
 70
    32
  0
VERTEX
  5
10000302
  8
VISIBLE
 10
1.854923795638321
 20
-1.300918718109839
 30
0.125
 70
    32
  0
VERTEX
  5
10000303
  8
VISIBLE
 10
1.853031675412922
 20
-1.385622264055061
 30
0.125
 70
    32
  0
VERTEX
  5
10000304
  8
VISIBLE
 10
1.851139555187523
 20
-1.464831525938971
 30
0.125
 70
    32
  0
VERTEX
  5
10000305
  8
VISIBLE
 10
1.849247434962124
 20
-1.535799361730914
 30
0.125
 70
    32
  0
VERTEX
  5
10000306
  8
VISIBLE
 10
1.847828344793075
 20
-1.5819642250742
 30
0.125
 70
    32
  0
VERTEX
  5
10000307
  8
VISIBLE
 10
1.846409254624026
 20
-1.620789068304328
 30
0.125
 70
    32
  0
VERTEX
  5
10000308
  8
VISIBLE
 10
1.844990164454976
 20
-1.651114940877116
 30
0.125
 70
    32
  0
VERTEX
  5
10000309
  8
VISIBLE
 10
1.843571074285927
 20
-1.671782892248378
 30
0.125
 70
    32
  0
VERTEX
  5
1000030A
  8
VISIBLE
 10
1.842776383791259
 20
-1.678706382445422
 30
0.125
 70
    32
  0
VERTEX
  5
1000030B
  8
VISIBLE
 10
1.842151984116878
 20
-1.681633971873933
 30
0.125
 70
    32
  0
VERTEX
  5
1000030C
  8
VISIBLE
 10
1.841915469088703
 20
-1.682142801240939
 30
0.125
 70
    32
  0
VERTEX
  5
1000030D
  8
VISIBLE
 10
1.841678954060528
 20
-1.682313603365892
 30
0.125
 70
    32
  0
VERTEX
  5
1000030E
  8
VISIBLE
 10
1.841442439032354
 20
-1.682142801240939
 30
0.125
 70
    32
  0
VERTEX
  5
1000030F
  8
VISIBLE
 10
1.841205924004178
 20
-1.681633971873933
 30
0.125
 70
    32
  0
VERTEX
  5
10000310
  8
VISIBLE
 10
1.840411233509511
 20
-1.677518541582074
 30
0.125
 70
    32
  0
VERTEX
  5
10000311
  8
VISIBLE
 10
1.839786833835129
 20
-1.671782892248378
 30
0.125
 70
    32
  0
VERTEX
  5
10000312
  8
VISIBLE
 10
1.83836774366608
 20
-1.651114940877116
 30
0.125
 70
    32
  0
VERTEX
  5
10000313
  8
VISIBLE
 10
1.836948653497031
 20
-1.620789068304329
 30
0.125
 70
    32
  0
VERTEX
  5
10000314
  8
VISIBLE
 10
1.835529563327981
 20
-1.581964225074201
 30
0.125
 70
    32
  0
VERTEX
  5
10000315
  8
VISIBLE
 10
1.834110473158932
 20
-1.535799361730914
 30
0.125
 70
    32
  0
VERTEX
  5
10000316
  8
VISIBLE
 10
1.832218352933533
 20
-1.464831525938971
 30
0.125
 70
    32
  0
VERTEX
  5
10000317
  8
VISIBLE
 10
1.830326232708134
 20
-1.385622264055061
 30
0.125
 70
    32
  0
VERTEX
  5
10000318
  8
VISIBLE
 10
1.828434112482735
 20
-1.300918718109839
 30
0.125
 70
    32
  0
VERTEX
  5
10000319
  8
VISIBLE
 10
1.826541992257336
 20
-1.213468030133962
 30
0.125
 70
    32
  0
SEQEND
  5
10000694
  8
VISIBLE
  0
LINE
  5
F541F
  8
VISIBLE
 10
1.24867503449241
 20
-0.7134680301339612
 30
0.125
 11
1.735720221438183
 21
-0.713468030133961
 31
0.125
  0
LINE
  5
F5420
  8
VISIBLE
 10
1.24867503449241
 20
-0.7134680301339612
 30
0.125
 11
1.24867503449241
 21
-0.9634680301339613
 31
0.125
  0
LINE
  5
F5421
  8
VISIBLE
 10
1.24867503449241
 20
-0.9634680301339613
 30
0.125
 11
1.37367503449241
 21
-0.963468030133961
 31
0.125
  0
LINE
  5
F5422
  8
VISIBLE
 10
1.37367503449241
 20
-0.963468030133961
 30
0.125
 11
1.37367503449241
 21
-1.144468030133961
 31
0.125
  0
LINE
  5
F5423
  8
VISIBLE
 10
1.37367503449241
 20
-1.144468030133961
 30
0.125
 11
1.457682028556432
 21
-1.144468030133961
 31
0.125
  0
LINE
  5
F5424
  8
VISIBLE
 10
1.457682028556432
 20
-1.144468030133961
 30
0.125
 11
1.457682028556432
 21
-1.057218030133961
 31
0.125
  0
LINE
  5
F5425
  8
VISIBLE
 10
1.457682028556432
 20
-1.057218030133961
 30
0.125
 11
1.567057028556432
 21
-1.057218030133961
 31
0.125
  0
LINE
  5
F5426
  8
VISIBLE
 10
1.567057028556432
 20
-1.057218030133961
 30
0.125
 11
1.567057028556432
 21
-1.144468030133961
 31
0.125
  0
LINE
  5
F5427
  8
VISIBLE
 10
1.567057028556432
 20
-1.144468030133961
 30
0.125
 11
1.62367503449241
 21
-1.144468030133961
 31
0.125
  0
LINE
  5
F5428
  8
VISIBLE
 10
1.62367503449241
 20
-1.282468030133962
 30
0.125
 11
1.62367503449241
 21
-1.144468030133961
 31
0.125
  0
LINE
  5
F5429
  8
VISIBLE
 10
1.567057028556432
 20
-1.282468030133962
 30
0.125
 11
1.62367503449241
 21
-1.282468030133962
 31
0.125
  0
LINE
  5
F542A
  8
VISIBLE
 10
1.567057028556432
 20
-1.369718030133962
 30
0.125
 11
1.567057028556432
 21
-1.282468030133962
 31
0.125
  0
LINE
  5
F542B
  8
VISIBLE
 10
1.457682028556432
 20
-1.369718030133962
 30
0.125
 11
1.567057028556432
 21
-1.369718030133962
 31
0.125
  0
LINE
  5
F542C
  8
VISIBLE
 10
1.457682028556432
 20
-1.282468030133962
 30
0.125
 11
1.457682028556432
 21
-1.369718030133962
 31
0.125
  0
LINE
  5
F542D
  8
VISIBLE
 10
1.37367503449241
 20
-1.282468030133962
 30
0.125
 11
1.457682028556432
 21
-1.282468030133962
 31
0.125
  0
LINE
  5
F542E
  8
VISIBLE
 10
1.37367503449241
 20
-1.463468030133962
 30
0.125
 11
1.37367503449241
 21
-1.282468030133962
 31
0.125
  0
LINE
  5
F542F
  8
VISIBLE
 10
1.24867503449241
 20
-1.463468030133962
 30
0.125
 11
1.37367503449241
 21
-1.463468030133962
 31
0.125
  0
LINE
  5
F5430
  8
VISIBLE
 10
1.24867503449241
 20
-1.713468030133962
 30
0.125
 11
1.24867503449241
 21
-1.463468030133962
 31
0.125
  0
LINE
  5
F5431
  8
VISIBLE
 10
1.24867503449241
 20
-1.713468030133962
 30
0.125
 11
1.735720221438183
 21
-1.713468030133962
 31
0.125
  0
POLYLINE
  5
F5432
  8
VISIBLE
 10
0.0
 20
0.0
 30
0.0
 66
     1
 70
     8
  0
VERTEX
  5
10000342
  8
VISIBLE
 10
1.735720221438183
 20
-1.713468030133962
 30
0.125
 70
    32
  0
VERTEX
  5
10000343
  8
VISIBLE
 10
1.737612341663581
 20
-1.633076428571463
 30
0.125
 70
    32
  0
VERTEX
  5
10000344
  8
VISIBLE
 10
1.73950446188898
 20
-1.555210217633963
 30
0.125
 70
    32
  0
VERTEX
  5
10000345
  8
VISIBLE
 10
1.74139658211438
 20
-1.482394787946463
 30
0.125
 70
    32
  0
VERTEX
  5
10000346
  8
VISIBLE
 10
1.743288702339779
 20
-1.417155530133962
 30
0.125
 70
    32
  0
VERTEX
  5
10000347
  8
VISIBLE
 10
1.744707792508828
 20
-1.374717129865408
 30
0.125
 70
    32
  0
VERTEX
  5
10000348
  8
VISIBLE
 10
1.746126882677877
 20
-1.339026257673025
 30
0.125
 70
    32
  0
VERTEX
  5
10000349
  8
VISIBLE
 10
1.747545972846926
 20
-1.311148312726735
 30
0.125
 70
    32
  0
VERTEX
  5
1000034A
  8
VISIBLE
 10
1.748965063015976
 20
-1.292148694196462
 30
0.125
 70
    32
  0
VERTEX
  5
1000034B
  8
VISIBLE
 10
1.749759753510644
 20
-1.285784073423025
 30
0.125
 70
    32
  0
VERTEX
  5
1000034C
  8
VISIBLE
 10
1.750384153185025
 20
-1.283092801252126
 30
0.125
 70
    32
  0
VERTEX
  5
1000034D
  8
VISIBLE
 10
1.7506206682132
 20
-1.282625044980764
 30
0.125
 70
    32
  0
VERTEX
  5
1000034E
  8
VISIBLE
 10
1.750857183241375
 20
-1.282468030133962
 30
0.125
 70
    32
  0
VERTEX
  5
1000034F
  8
VISIBLE
 10
1.75109369826955
 20
-1.282625044980764
 30
0.125
 70
    32
  0
VERTEX
  5
10000350
  8
VISIBLE
 10
1.751330213297725
 20
-1.283092801252126
 30
0.125
 70
    32
  0
VERTEX
  5
10000351
  8
VISIBLE
 10
1.752124903792392
 20
-1.286876030863454
 30
0.125
 70
    32
  0
VERTEX
  5
10000352
  8
VISIBLE
 10
1.752749303466774
 20
-1.292148694196462
 30
0.125
 70
    32
  0
VERTEX
  5
10000353
  8
VISIBLE
 10
1.754168393635823
 20
-1.311148312726735
 30
0.125
 70
    32
  0
VERTEX
  5
10000354
  8
VISIBLE
 10
1.755587483804873
 20
-1.339026257673025
 30
0.125
 70
    32
  0
VERTEX
  5
10000355
  8
VISIBLE
 10
1.757006573973922
 20
-1.374717129865407
 30
0.125
 70
    32
  0
VERTEX
  5
10000356
  8
VISIBLE
 10
1.758425664142971
 20
-1.417155530133962
 30
0.125
 70
    32
  0
VERTEX
  5
10000357
  8
VISIBLE
 10
1.76031778436837
 20
-1.482394787946462
 30
0.125
 70
    32
  0
VERTEX
  5
10000358
  8
VISIBLE
 10
1.762209904593769
 20
-1.555210217633962
 30
0.125
 70
    32
  0
VERTEX
  5
10000359
  8
VISIBLE
 10
1.764102024819168
 20
-1.633076428571463
 30
0.125
 70
    32
  0
VERTEX
  5
1000035A
  8
VISIBLE
 10
1.765994145044567
 20
-1.713468030133962
 30
0.125
 70
    32
  0
SEQEND
  5
10000695
  8
VISIBLE
  0
LINE
  5
F5433
  8
VISIBLE
 10
1.765994145044567
 20
-1.713468030133962
 30
0.125
 11
1.796268068650952
 21
-1.713468030133962
 31
0.125
  0
POLYLINE
  5
F5434
  8
VISIBLE
 10
0.0
 20
0.0
 30
0.0
 66
     1
 70
     8
  0
VERTEX
  5
1000035F
  8
VISIBLE
 10
1.826541992257336
 20
-1.713468030133962
 30
0.125
 70
    32
  0
VERTEX
  5
10000360
  8
VISIBLE
 10
1.824649872031937
 20
-1.633076428571463
 30
0.125
 70
    32
  0
VERTEX
  5
10000361
  8
VISIBLE
 10
1.822757751806538
 20
-1.555210217633962
 30
0.125
 70
    32
  0
VERTEX
  5
10000362
  8
VISIBLE
 10
1.820865631581139
 20
-1.482394787946462
 30
0.125
 70
    32
  0
VERTEX
  5
10000363
  8
VISIBLE
 10
1.81897351135574
 20
-1.417155530133962
 30
0.125
 70
    32
  0
VERTEX
  5
10000364
  8
VISIBLE
 10
1.817554421186691
 20
-1.374717129865407
 30
0.125
 70
    32
  0
VERTEX
  5
10000365
  8
VISIBLE
 10
1.816135331017642
 20
-1.339026257673025
 30
0.125
 70
    32
  0
VERTEX
  5
10000366
  8
VISIBLE
 10
1.814716240848592
 20
-1.311148312726735
 30
0.125
 70
    32
  0
VERTEX
  5
10000367
  8
VISIBLE
 10
1.813297150679543
 20
-1.292148694196462
 30
0.125
 70
    32
  0
VERTEX
  5
10000368
  8
VISIBLE
 10
1.812502460184875
 20
-1.285784073423025
 30
0.125
 70
    32
  0
VERTEX
  5
10000369
  8
VISIBLE
 10
1.811878060510493
 20
-1.283092801252126
 30
0.125
 70
    32
  0
VERTEX
  5
1000036A
  8
VISIBLE
 10
1.811641545482319
 20
-1.282625044980764
 30
0.125
 70
    32
  0
VERTEX
  5
1000036B
  8
VISIBLE
 10
1.811405030454144
 20
-1.282468030133962
 30
0.125
 70
    32
  0
VERTEX
  5
1000036C
  8
VISIBLE
 10
1.811168515425969
 20
-1.282625044980764
 30
0.125
 70
    32
  0
VERTEX
  5
1000036D
  8
VISIBLE
 10
1.810932000397794
 20
-1.283092801252126
 30
0.125
 70
    32
  0
VERTEX
  5
1000036E
  8
VISIBLE
 10
1.810137309903126
 20
-1.286876030863454
 30
0.125
 70
    32
  0
VERTEX
  5
1000036F
  8
VISIBLE
 10
1.809512910228744
 20
-1.292148694196462
 30
0.125
 70
    32
  0
VERTEX
  5
10000370
  8
VISIBLE
 10
1.808093820059695
 20
-1.311148312726735
 30
0.125
 70
    32
  0
VERTEX
  5
10000371
  8
VISIBLE
 10
1.806674729890646
 20
-1.339026257673025
 30
0.125
 70
    32
  0
VERTEX
  5
10000372
  8
VISIBLE
 10
1.805255639721597
 20
-1.374717129865408
 30
0.125
 70
    32
  0
VERTEX
  5
10000373
  8
VISIBLE
 10
1.803836549552547
 20
-1.417155530133962
 30
0.125
 70
    32
  0
VERTEX
  5
10000374
  8
VISIBLE
 10
1.801944429327148
 20
-1.482394787946463
 30
0.125
 70
    32
  0
VERTEX
  5
10000375
  8
VISIBLE
 10
1.800052309101749
 20
-1.555210217633963
 30
0.125
 70
    32
  0
VERTEX
  5
10000376
  8
VISIBLE
 10
1.79816018887635
 20
-1.633076428571463
 30
0.125
 70
    32
  0
VERTEX
  5
10000377
  8
VISIBLE
 10
1.796268068650952
 20
-1.713468030133962
 30
0.125
 70
    32
  0
SEQEND
  5
10000696
  8
VISIBLE
  0
LINE
  5
F5435
  8
VISIBLE
 10
1.826541992257336
 20
-1.713468030133962
 30
0.125
 11
1.856815915863721
 21
-1.713468030133962
 31
0.125
  0
POLYLINE
  5
F5436
  8
VISIBLE
 10
0.0
 20
0.0
 30
0.0
 66
     1
 70
     8
  0
VERTEX
  5
1000037C
  8
VISIBLE
 10
1.856815915863721
 20
-1.713468030133962
 30
0.125
 70
    32
  0
VERTEX
  5
1000037D
  8
VISIBLE
 10
1.858708036089119
 20
-1.633076428571463
 30
0.125
 70
    32
  0
VERTEX
  5
1000037E
  8
VISIBLE
 10
1.860600156314518
 20
-1.555210217633962
 30
0.125
 70
    32
  0
VERTEX
  5
1000037F
  8
VISIBLE
 10
1.862492276539917
 20
-1.482394787946462
 30
0.125
 70
    32
  0
VERTEX
  5
10000380
  8
VISIBLE
 10
1.864384396765316
 20
-1.417155530133962
 30
0.125
 70
    32
  0
VERTEX
  5
10000381
  8
VISIBLE
 10
1.865803486934366
 20
-1.374717129865407
 30
0.125
 70
    32
  0
VERTEX
  5
10000382
  8
VISIBLE
 10
1.867222577103415
 20
-1.339026257673025
 30
0.125
 70
    32
  0
VERTEX
  5
10000383
  8
VISIBLE
 10
1.868641667272464
 20
-1.311148312726735
 30
0.125
 70
    32
  0
VERTEX
  5
10000384
  8
VISIBLE
 10
1.870060757441513
 20
-1.292148694196462
 30
0.125
 70
    32
  0
VERTEX
  5
10000385
  8
VISIBLE
 10
1.870855447936181
 20
-1.285784073423025
 30
0.125
 70
    32
  0
VERTEX
  5
10000386
  8
VISIBLE
 10
1.871479847610563
 20
-1.283092801252126
 30
0.125
 70
    32
  0
VERTEX
  5
10000387
  8
VISIBLE
 10
1.871716362638738
 20
-1.282625044980764
 30
0.125
 70
    32
  0
VERTEX
  5
10000388
  8
VISIBLE
 10
1.871952877666913
 20
-1.282468030133962
 30
0.125
 70
    32
  0
VERTEX
  5
10000389
  8
VISIBLE
 10
1.872189392695088
 20
-1.282625044980764
 30
0.125
 70
    32
  0
VERTEX
  5
1000038A
  8
VISIBLE
 10
1.872425907723262
 20
-1.283092801252126
 30
0.125
 70
    32
  0
VERTEX
  5
1000038B
  8
VISIBLE
 10
1.87322059821793
 20
-1.286876030863454
 30
0.125
 70
    32
  0
VERTEX
  5
1000038C
  8
VISIBLE
 10
1.873844997892312
 20
-1.292148694196462
 30
0.125
 70
    32
  0
VERTEX
  5
1000038D
  8
VISIBLE
 10
1.875264088061361
 20
-1.311148312726735
 30
0.125
 70
    32
  0
VERTEX
  5
1000038E
  8
VISIBLE
 10
1.876683178230411
 20
-1.339026257673025
 30
0.125
 70
    32
  0
VERTEX
  5
1000038F
  8
VISIBLE
 10
1.87810226839946
 20
-1.374717129865408
 30
0.125
 70
    32
  0
VERTEX
  5
10000390
  8
VISIBLE
 10
1.879521358568509
 20
-1.417155530133962
 30
0.125
 70
    32
  0
VERTEX
  5
10000391
  8
VISIBLE
 10
1.881413478793908
 20
-1.482394787946463
 30
0.125
 70
    32
  0
VERTEX
  5
10000392
  8
VISIBLE
 10
1.883305599019307
 20
-1.555210217633963
 30
0.125
 70
    32
  0
VERTEX
  5
10000393
  8
VISIBLE
 10
1.885197719244706
 20
-1.633076428571463
 30
0.125
 70
    32
  0
VERTEX
  5
10000394
  8
VISIBLE
 10
1.887089839470105
 20
-1.713468030133962
 30
0.125
 70
    32
  0
SEQEND
  5
10000697
  8
VISIBLE
  0
LINE
  5
F5437
  8
VISIBLE
 10
1.917363763076489
 20
-1.713468030133962
 30
0.125
 11
1.887089839470105
 21
-1.713468030133962
 31
0.125
  0
POLYLINE
  5
F5438
  8
VISIBLE
 10
0.0
 20
0.0
 30
0.0
 66
     1
 70
     8
  0
VERTEX
  5
10000399
  8
VISIBLE
 10
1.947637686682874
 20
-1.713468030133962
 30
0.125
 70
    32
  0
VERTEX
  5
1000039A
  8
VISIBLE
 10
1.945745566457475
 20
-1.633076428571463
 30
0.125
 70
    32
  0
VERTEX
  5
1000039B
  8
VISIBLE
 10
1.943853446232076
 20
-1.555210217633962
 30
0.125
 70
    32
  0
VERTEX
  5
1000039C
  8
VISIBLE
 10
1.941961326006677
 20
-1.482394787946462
 30
0.125
 70
    32
  0
VERTEX
  5
1000039D
  8
VISIBLE
 10
1.940069205781278
 20
-1.417155530133962
 30
0.125
 70
    32
  0
VERTEX
  5
1000039E
  8
VISIBLE
 10
1.938650115612229
 20
-1.374717129865407
 30
0.125
 70
    32
  0
VERTEX
  5
1000039F
  8
VISIBLE
 10
1.937231025443179
 20
-1.339026257673025
 30
0.125
 70
    32
  0
VERTEX
  5
100003A0
  8
VISIBLE
 10
1.93581193527413
 20
-1.311148312726735
 30
0.125
 70
    32
  0
VERTEX
  5
100003A1
  8
VISIBLE
 10
1.934392845105081
 20
-1.292148694196462
 30
0.125
 70
    32
  0
VERTEX
  5
100003A2
  8
VISIBLE
 10
1.933598154610413
 20
-1.285784073423025
 30
0.125
 70
    32
  0
VERTEX
  5
100003A3
  8
VISIBLE
 10
1.932973754936031
 20
-1.283092801252126
 30
0.125
 70
    32
  0
VERTEX
  5
100003A4
  8
VISIBLE
 10
1.932737239907856
 20
-1.282625044980764
 30
0.125
 70
    32
  0
VERTEX
  5
100003A5
  8
VISIBLE
 10
1.932500724879681
 20
-1.282468030133962
 30
0.125
 70
    32
  0
VERTEX
  5
100003A6
  8
VISIBLE
 10
1.932264209851507
 20
-1.282625044980764
 30
0.125
 70
    32
  0
VERTEX
  5
100003A7
  8
VISIBLE
 10
1.932027694823332
 20
-1.283092801252126
 30
0.125
 70
    32
  0
VERTEX
  5
100003A8
  8
VISIBLE
 10
1.931233004328665
 20
-1.286876030863454
 30
0.125
 70
    32
  0
VERTEX
  5
100003A9
  8
VISIBLE
 10
1.930608604654282
 20
-1.292148694196462
 30
0.125
 70
    32
  0
VERTEX
  5
100003AA
  8
VISIBLE
 10
1.929189514485233
 20
-1.311148312726735
 30
0.125
 70
    32
  0
VERTEX
  5
100003AB
  8
VISIBLE
 10
1.927770424316184
 20
-1.339026257673025
 30
0.125
 70
    32
  0
VERTEX
  5
100003AC
  8
VISIBLE
 10
1.926351334147135
 20
-1.374717129865407
 30
0.125
 70
    32
  0
VERTEX
  5
100003AD
  8
VISIBLE
 10
1.924932243978085
 20
-1.417155530133962
 30
0.125
 70
    32
  0
VERTEX
  5
100003AE
  8
VISIBLE
 10
1.923040123752686
 20
-1.482394787946462
 30
0.125
 70
    32
  0
VERTEX
  5
100003AF
  8
VISIBLE
 10
1.921148003527287
 20
-1.555210217633962
 30
0.125
 70
    32
  0
VERTEX
  5
100003B0
  8
VISIBLE
 10
1.919255883301888
 20
-1.633076428571463
 30
0.125
 70
    32
  0
VERTEX
  5
100003B1
  8
VISIBLE
 10
1.917363763076489
 20
-1.713468030133962
 30
0.125
 70
    32
  0
SEQEND
  5
10000698
  8
VISIBLE
  0
LINE
  5
F5439
  8
VISIBLE
 10
1.947637686682874
 20
-1.713468030133962
 30
0.125
 11
1.977911610289258
 21
-1.713468030133962
 31
0.125
  0
POLYLINE
  5
F543A
  8
VISIBLE
 10
0.0
 20
0.0
 30
0.0
 66
     1
 70
     8
  0
VERTEX
  5
100003B6
  8
VISIBLE
 10
1.977911610289258
 20
-1.713468030133962
 30
0.125
 70
    32
  0
VERTEX
  5
100003B7
  8
VISIBLE
 10
1.979803730514657
 20
-1.633076428571463
 30
0.125
 70
    32
  0
VERTEX
  5
100003B8
  8
VISIBLE
 10
1.981695850740057
 20
-1.555210217633962
 30
0.125
 70
    32
  0
VERTEX
  5
100003B9
  8
VISIBLE
 10
1.983587970965455
 20
-1.482394787946462
 30
0.125
 70
    32
  0
VERTEX
  5
100003BA
  8
VISIBLE
 10
1.985480091190854
 20
-1.417155530133962
 30
0.125
 70
    32
  0
VERTEX
  5
100003BB
  8
VISIBLE
 10
1.986899181359903
 20
-1.374717129865407
 30
0.125
 70
    32
  0
VERTEX
  5
100003BC
  8
VISIBLE
 10
1.988318271528953
 20
-1.339026257673025
 30
0.125
 70
    32
  0
VERTEX
  5
100003BD
  8
VISIBLE
 10
1.989737361698002
 20
-1.311148312726735
 30
0.125
 70
    32
  0
VERTEX
  5
100003BE
  8
VISIBLE
 10
1.991156451867051
 20
-1.292148694196462
 30
0.125
 70
    32
  0
VERTEX
  5
100003BF
  8
VISIBLE
 10
1.991951142361719
 20
-1.285784073423024
 30
0.125
 70
    32
  0
VERTEX
  5
100003C0
  8
VISIBLE
 10
1.992575542036101
 20
-1.283092801252126
 30
0.125
 70
    32
  0
VERTEX
  5
100003C1
  8
VISIBLE
 10
1.992812057064276
 20
-1.282625044980764
 30
0.125
 70
    32
  0
VERTEX
  5
100003C2
  8
VISIBLE
 10
1.99304857209245
 20
-1.282468030133962
 30
0.125
 70
    32
  0
VERTEX
  5
100003C3
  8
VISIBLE
 10
1.993285087120625
 20
-1.282625044980764
 30
0.125
 70
    32
  0
VERTEX
  5
100003C4
  8
VISIBLE
 10
1.9935216021488
 20
-1.283092801252126
 30
0.125
 70
    32
  0
VERTEX
  5
100003C5
  8
VISIBLE
 10
1.994316292643467
 20
-1.286876030863454
 30
0.125
 70
    32
  0
VERTEX
  5
100003C6
  8
VISIBLE
 10
1.99494069231785
 20
-1.292148694196462
 30
0.125
 70
    32
  0
VERTEX
  5
100003C7
  8
VISIBLE
 10
1.996359782486899
 20
-1.311148312726735
 30
0.125
 70
    32
  0
VERTEX
  5
100003C8
  8
VISIBLE
 10
1.997778872655948
 20
-1.339026257673025
 30
0.125
 70
    32
  0
VERTEX
  5
100003C9
  8
VISIBLE
 10
1.999197962824998
 20
-1.374717129865407
 30
0.125
 70
    32
  0
VERTEX
  5
100003CA
  8
VISIBLE
 10
2.000617052994047
 20
-1.417155530133962
 30
0.125
 70
    32
  0
VERTEX
  5
100003CB
  8
VISIBLE
 10
2.002509173219446
 20
-1.482394787946462
 30
0.125
 70
    32
  0
VERTEX
  5
100003CC
  8
VISIBLE
 10
2.004401293444845
 20
-1.555210217633962
 30
0.125
 70
    32
  0
VERTEX
  5
100003CD
  8
VISIBLE
 10
2.006293413670244
 20
-1.633076428571463
 30
0.125
 70
    32
  0
VERTEX
  5
100003CE
  8
VISIBLE
 10
2.008185533895643
 20
-1.713468030133962
 30
0.125
 70
    32
  0
SEQEND
  5
10000699
  8
VISIBLE
  0
LINE
  5
F543B
  8
VISIBLE
 10
2.008185533895643
 20
-1.713468030133962
 30
0.125
 11
2.038459457502027
 21
-1.713468030133962
 31
0.125
  0
POLYLINE
  5
F543C
  8
VISIBLE
 10
0.0
 20
0.0
 30
0.0
 66
     1
 70
     8
  0
VERTEX
  5
100003D3
  8
VISIBLE
 10
2.068733381108412
 20
-1.713468030133962
 30
0.125
 70
    32
  0
VERTEX
  5
100003D4
  8
VISIBLE
 10
2.066841260883013
 20
-1.633076428571463
 30
0.125
 70
    32
  0
VERTEX
  5
100003D5
  8
VISIBLE
 10
2.064949140657614
 20
-1.555210217633962
 30
0.125
 70
    32
  0
VERTEX
  5
100003D6
  8
VISIBLE
 10
2.063057020432215
 20
-1.482394787946462
 30
0.125
 70
    32
  0
VERTEX
  5
100003D7
  8
VISIBLE
 10
2.061164900206816
 20
-1.417155530133962
 30
0.125
 70
    32
  0
VERTEX
  5
100003D8
  8
VISIBLE
 10
2.059745810037766
 20
-1.374717129865407
 30
0.125
 70
    32
  0
VERTEX
  5
100003D9
  8
VISIBLE
 10
2.058326719868717
 20
-1.339026257673025
 30
0.125
 70
    32
  0
VERTEX
  5
100003DA
  8
VISIBLE
 10
2.056907629699668
 20
-1.311148312726735
 30
0.125
 70
    32
  0
VERTEX
  5
100003DB
  8
VISIBLE
 10
2.055488539530619
 20
-1.292148694196462
 30
0.125
 70
    32
  0
VERTEX
  5
100003DC
  8
VISIBLE
 10
2.054693849035951
 20
-1.285784073423025
 30
0.125
 70
    32
  0
VERTEX
  5
100003DD
  8
VISIBLE
 10
2.054069449361569
 20
-1.283092801252126
 30
0.125
 70
    32
  0
VERTEX
  5
100003DE
  8
VISIBLE
 10
2.053832934333394
 20
-1.282625044980764
 30
0.125
 70
    32
  0
VERTEX
  5
100003DF
  8
VISIBLE
 10
2.05359641930522
 20
-1.282468030133962
 30
0.125
 70
    32
  0
VERTEX
  5
100003E0
  8
VISIBLE
 10
2.053359904277045
 20
-1.282625044980764
 30
0.125
 70
    32
  0
VERTEX
  5
100003E1
  8
VISIBLE
 10
2.05312338924887
 20
-1.283092801252126
 30
0.125
 70
    32
  0
VERTEX
  5
100003E2
  8
VISIBLE
 10
2.052328698754202
 20
-1.286876030863454
 30
0.125
 70
    32
  0
VERTEX
  5
100003E3
  8
VISIBLE
 10
2.05170429907982
 20
-1.292148694196462
 30
0.125
 70
    32
  0
VERTEX
  5
100003E4
  8
VISIBLE
 10
2.050285208910771
 20
-1.311148312726735
 30
0.125
 70
    32
  0
VERTEX
  5
100003E5
  8
VISIBLE
 10
2.048866118741722
 20
-1.339026257673025
 30
0.125
 70
    32
  0
VERTEX
  5
100003E6
  8
VISIBLE
 10
2.047447028572672
 20
-1.374717129865408
 30
0.125
 70
    32
  0
VERTEX
  5
100003E7
  8
VISIBLE
 10
2.046027938403623
 20
-1.417155530133962
 30
0.125
 70
    32
  0
VERTEX
  5
100003E8
  8
VISIBLE
 10
2.044135818178224
 20
-1.482394787946463
 30
0.125
 70
    32
  0
VERTEX
  5
100003E9
  8
VISIBLE
 10
2.042243697952825
 20
-1.555210217633963
 30
0.125
 70
    32
  0
VERTEX
  5
100003EA
  8
VISIBLE
 10
2.040351577727426
 20
-1.633076428571463
 30
0.125
 70
    32
  0
VERTEX
  5
100003EB
  8
VISIBLE
 10
2.038459457502027
 20
-1.713468030133962
 30
0.125
 70
    32
  0
SEQEND
  5
1000069A
  8
VISIBLE
  0
LINE
  5
F543D
  8
VISIBLE
 10
2.099007304714796
 20
-1.713468030133962
 30
0.125
 11
2.068733381108412
 21
-1.713468030133962
 31
0.125
  0
POLYLINE
  5
F543E
  8
VISIBLE
 10
0.0
 20
0.0
 30
0.0
 66
     1
 70
     8
  0
VERTEX
  5
100003F0
  8
VISIBLE
 10
2.099007304714796
 20
-1.713468030133962
 30
0.125
 70
    32
  0
VERTEX
  5
100003F1
  8
VISIBLE
 10
2.100899424940195
 20
-1.633076428571463
 30
0.125
 70
    32
  0
VERTEX
  5
100003F2
  8
VISIBLE
 10
2.102791545165594
 20
-1.555210217633962
 30
0.125
 70
    32
  0
VERTEX
  5
100003F3
  8
VISIBLE
 10
2.104683665390993
 20
-1.482394787946462
 30
0.125
 70
    32
  0
VERTEX
  5
100003F4
  8
VISIBLE
 10
2.106575785616392
 20
-1.417155530133962
 30
0.125
 70
    32
  0
VERTEX
  5
100003F5
  8
VISIBLE
 10
2.107994875785442
 20
-1.374717129865407
 30
0.125
 70
    32
  0
VERTEX
  5
100003F6
  8
VISIBLE
 10
2.109413965954491
 20
-1.339026257673025
 30
0.125
 70
    32
  0
VERTEX
  5
100003F7
  8
VISIBLE
 10
2.11083305612354
 20
-1.311148312726735
 30
0.125
 70
    32
  0
VERTEX
  5
100003F8
  8
VISIBLE
 10
2.112252146292589
 20
-1.292148694196462
 30
0.125
 70
    32
  0
VERTEX
  5
100003F9
  8
VISIBLE
 10
2.113046836787257
 20
-1.285784073423025
 30
0.125
 70
    32
  0
VERTEX
  5
100003FA
  8
VISIBLE
 10
2.113671236461639
 20
-1.283092801252126
 30
0.125
 70
    32
  0
VERTEX
  5
100003FB
  8
VISIBLE
 10
2.113907751489813
 20
-1.282625044980764
 30
0.125
 70
    32
  0
VERTEX
  5
100003FC
  8
VISIBLE
 10
2.114144266517988
 20
-1.282468030133962
 30
0.125
 70
    32
  0
VERTEX
  5
100003FD
  8
VISIBLE
 10
2.114380781546163
 20
-1.282625044980764
 30
0.125
 70
    32
  0
VERTEX
  5
100003FE
  8
VISIBLE
 10
2.114617296574338
 20
-1.283092801252126
 30
0.125
 70
    32
  0
VERTEX
  5
100003FF
  8
VISIBLE
 10
2.115411987069006
 20
-1.286876030863454
 30
0.125
 70
    32
  0
VERTEX
  5
10000400
  8
VISIBLE
 10
2.116036386743388
 20
-1.292148694196462
 30
0.125
 70
    32
  0
VERTEX
  5
10000401
  8
VISIBLE
 10
2.117455476912437
 20
-1.311148312726735
 30
0.125
 70
    32
  0
VERTEX
  5
10000402
  8
VISIBLE
 10
2.118874567081486
 20
-1.339026257673025
 30
0.125
 70
    32
  0
VERTEX
  5
10000403
  8
VISIBLE
 10
2.120293657250536
 20
-1.374717129865408
 30
0.125
 70
    32
  0
VERTEX
  5
10000404
  8
VISIBLE
 10
2.121712747419585
 20
-1.417155530133962
 30
0.125
 70
    32
  0
VERTEX
  5
10000405
  8
VISIBLE
 10
2.123604867644984
 20
-1.482394787946463
 30
0.125
 70
    32
  0
VERTEX
  5
10000406
  8
VISIBLE
 10
2.125496987870383
 20
-1.555210217633963
 30
0.125
 70
    32
  0
VERTEX
  5
10000407
  8
VISIBLE
 10
2.127389108095782
 20
-1.633076428571463
 30
0.125
 70
    32
  0
VERTEX
  5
10000408
  8
VISIBLE
 10
2.12928122832118
 20
-1.713468030133962
 30
0.125
 70
    32
  0
SEQEND
  5
1000069B
  8
VISIBLE
  0
LINE
  5
F543F
  8
VISIBLE
 10
2.159555151927565
 20
-1.713468030133962
 30
0.125
 11
2.12928122832118
 21
-1.713468030133962
 31
0.125
  0
POLYLINE
  5
F5440
  8
VISIBLE
 10
0.0
 20
0.0
 30
0.0
 66
     1
 70
     8
  0
VERTEX
  5
1000040D
  8
VISIBLE
 10
2.189829075533949
 20
-1.713468030133962
 30
0.125
 70
    32
  0
VERTEX
  5
1000040E
  8
VISIBLE
 10
2.187936955308551
 20
-1.633076428571463
 30
0.125
 70
    32
  0
VERTEX
  5
1000040F
  8
VISIBLE
 10
2.186044835083151
 20
-1.555210217633963
 30
0.125
 70
    32
  0
VERTEX
  5
10000410
  8
VISIBLE
 10
2.184152714857752
 20
-1.482394787946462
 30
0.125
 70
    32
  0
VERTEX
  5
10000411
  8
VISIBLE
 10
2.182260594632353
 20
-1.417155530133962
 30
0.125
 70
    32
  0
VERTEX
  5
10000412
  8
VISIBLE
 10
2.180841504463304
 20
-1.374717129865408
 30
0.125
 70
    32
  0
VERTEX
  5
10000413
  8
VISIBLE
 10
2.179422414294255
 20
-1.339026257673025
 30
0.125
 70
    32
  0
VERTEX
  5
10000414
  8
VISIBLE
 10
2.178003324125206
 20
-1.311148312726735
 30
0.125
 70
    32
  0
VERTEX
  5
10000415
  8
VISIBLE
 10
2.176584233956157
 20
-1.292148694196462
 30
0.125
 70
    32
  0
VERTEX
  5
10000416
  8
VISIBLE
 10
2.175789543461489
 20
-1.285784073423025
 30
0.125
 70
    32
  0
VERTEX
  5
10000417
  8
VISIBLE
 10
2.175165143787107
 20
-1.283092801252126
 30
0.125
 70
    32
  0
VERTEX
  5
10000418
  8
VISIBLE
 10
2.174928628758932
 20
-1.282625044980764
 30
0.125
 70
    32
  0
VERTEX
  5
10000419
  8
VISIBLE
 10
2.174692113730757
 20
-1.282468030133962
 30
0.125
 70
    32
  0
VERTEX
  5
1000041A
  8
VISIBLE
 10
2.174455598702582
 20
-1.282625044980764
 30
0.125
 70
    32
  0
VERTEX
  5
1000041B
  8
VISIBLE
 10
2.174219083674408
 20
-1.283092801252126
 30
0.125
 70
    32
  0
VERTEX
  5
1000041C
  8
VISIBLE
 10
2.17342439317974
 20
-1.286876030863454
 30
0.125
 70
    32
  0
VERTEX
  5
1000041D
  8
VISIBLE
 10
2.172799993505358
 20
-1.292148694196462
 30
0.125
 70
    32
  0
VERTEX
  5
1000041E
  8
VISIBLE
 10
2.171380903336309
 20
-1.311148312726735
 30
0.125
 70
    32
  0
VERTEX
  5
1000041F
  8
VISIBLE
 10
2.16996181316726
 20
-1.339026257673025
 30
0.125
 70
    32
  0
VERTEX
  5
10000420
  8
VISIBLE
 10
2.168542722998211
 20
-1.374717129865407
 30
0.125
 70
    32
  0
VERTEX
  5
10000421
  8
VISIBLE
 10
2.167123632829161
 20
-1.417155530133962
 30
0.125
 70
    32
  0
VERTEX
  5
10000422
  8
VISIBLE
 10
2.165231512603762
 20
-1.482394787946462
 30
0.125
 70
    32
  0
VERTEX
  5
10000423
  8
VISIBLE
 10
2.163339392378363
 20
-1.555210217633962
 30
0.125
 70
    32
  0
VERTEX
  5
10000424
  8
VISIBLE
 10
2.161447272152964
 20
-1.633076428571463
 30
0.125
 70
    32
  0
VERTEX
  5
10000425
  8
VISIBLE
 10
2.159555151927565
 20
-1.713468030133962
 30
0.125
 70
    32
  0
SEQEND
  5
1000069C
  8
VISIBLE
  0
LINE
  5
F5441
  8
VISIBLE
 10
2.189829075533949
 20
-1.713468030133962
 30
0.125
 11
2.220102999140334
 21
-1.713468030133962
 31
0.125
  0
POLYLINE
  5
F5442
  8
VISIBLE
 10
0.0
 20
0.0
 30
0.0
 66
     1
 70
     8
  0
VERTEX
  5
1000042A
  8
VISIBLE
 10
2.220102999140334
 20
-1.713468030133962
 30
0.125
 70
    32
  0
VERTEX
  5
1000042B
  8
VISIBLE
 10
2.221995119365733
 20
-1.633076428571463
 30
0.125
 70
    32
  0
VERTEX
  5
1000042C
  8
VISIBLE
 10
2.223887239591132
 20
-1.555210217633963
 30
0.125
 70
    32
  0
VERTEX
  5
1000042D
  8
VISIBLE
 10
2.225779359816531
 20
-1.482394787946463
 30
0.125
 70
    32
  0
VERTEX
  5
1000042E
  8
VISIBLE
 10
2.22767148004193
 20
-1.417155530133962
 30
0.125
 70
    32
  0
VERTEX
  5
1000042F
  8
VISIBLE
 10
2.22909057021098
 20
-1.374717129865408
 30
0.125
 70
    32
  0
VERTEX
  5
10000430
  8
VISIBLE
 10
2.230509660380029
 20
-1.339026257673025
 30
0.125
 70
    32
  0
VERTEX
  5
10000431
  8
VISIBLE
 10
2.231928750549078
 20
-1.311148312726735
 30
0.125
 70
    32
  0
VERTEX
  5
10000432
  8
VISIBLE
 10
2.233347840718127
 20
-1.292148694196462
 30
0.125
 70
    32
  0
VERTEX
  5
10000433
  8
VISIBLE
 10
2.234142531212794
 20
-1.285784073423025
 30
0.125
 70
    32
  0
VERTEX
  5
10000434
  8
VISIBLE
 10
2.234766930887176
 20
-1.283092801252126
 30
0.125
 70
    32
  0
VERTEX
  5
10000435
  8
VISIBLE
 10
2.235003445915351
 20
-1.282625044980764
 30
0.125
 70
    32
  0
VERTEX
  5
10000436
  8
VISIBLE
 10
2.235239960943526
 20
-1.282468030133962
 30
0.125
 70
    32
  0
VERTEX
  5
10000437
  8
VISIBLE
 10
2.235476475971701
 20
-1.282625044980764
 30
0.125
 70
    32
  0
VERTEX
  5
10000438
  8
VISIBLE
 10
2.235712990999876
 20
-1.283092801252126
 30
0.125
 70
    32
  0
VERTEX
  5
10000439
  8
VISIBLE
 10
2.236507681494543
 20
-1.286876030863454
 30
0.125
 70
    32
  0
VERTEX
  5
1000043A
  8
VISIBLE
 10
2.237132081168926
 20
-1.292148694196462
 30
0.125
 70
    32
  0
VERTEX
  5
1000043B
  8
VISIBLE
 10
2.238551171337975
 20
-1.311148312726735
 30
0.125
 70
    32
  0
VERTEX
  5
1000043C
  8
VISIBLE
 10
2.239970261507024
 20
-1.339026257673025
 30
0.125
 70
    32
  0
VERTEX
  5
1000043D
  8
VISIBLE
 10
2.241389351676073
 20
-1.374717129865407
 30
0.125
 70
    32
  0
VERTEX
  5
1000043E
  8
VISIBLE
 10
2.242808441845122
 20
-1.417155530133962
 30
0.125
 70
    32
  0
VERTEX
  5
1000043F
  8
VISIBLE
 10
2.244700562070521
 20
-1.482394787946462
 30
0.125
 70
    32
  0
VERTEX
  5
10000440
  8
VISIBLE
 10
2.246592682295921
 20
-1.555210217633962
 30
0.125
 70
    32
  0
VERTEX
  5
10000441
  8
VISIBLE
 10
2.24848480252132
 20
-1.633076428571463
 30
0.125
 70
    32
  0
VERTEX
  5
10000442
  8
VISIBLE
 10
2.250376922746718
 20
-1.713468030133962
 30
0.125
 70
    32
  0
SEQEND
  5
1000069D
  8
VISIBLE
  0
LINE
  5
F5443
  8
VISIBLE
 10
2.250376922746718
 20
-1.713468030133962
 30
0.125
 11
2.280650846353103
 21
-1.713468030133962
 31
0.125
  0
POLYLINE
  5
F5444
  8
VISIBLE
 10
0.0
 20
0.0
 30
0.0
 66
     1
 70
     8
  0
VERTEX
  5
10000447
  8
VISIBLE
 10
2.310924769959488
 20
-1.713468030133962
 30
0.125
 70
    32
  0
VERTEX
  5
10000448
  8
VISIBLE
 10
2.309032649734089
 20
-1.633076428571463
 30
0.125
 70
    32
  0
VERTEX
  5
10000449
  8
VISIBLE
 10
2.30714052950869
 20
-1.555210217633962
 30
0.125
 70
    32
  0
VERTEX
  5
1000044A
  8
VISIBLE
 10
2.305248409283291
 20
-1.482394787946462
 30
0.125
 70
    32
  0
VERTEX
  5
1000044B
  8
VISIBLE
 10
2.303356289057891
 20
-1.417155530133961
 30
0.125
 70
    32
  0
VERTEX
  5
1000044C
  8
VISIBLE
 10
2.301937198888842
 20
-1.374717129865407
 30
0.125
 70
    32
  0
VERTEX
  5
1000044D
  8
VISIBLE
 10
2.300518108719793
 20
-1.339026257673024
 30
0.125
 70
    32
  0
VERTEX
  5
1000044E
  8
VISIBLE
 10
2.299099018550744
 20
-1.311148312726735
 30
0.125
 70
    32
  0
VERTEX
  5
1000044F
  8
VISIBLE
 10
2.297679928381694
 20
-1.292148694196461
 30
0.125
 70
    32
  0
VERTEX
  5
10000450
  8
VISIBLE
 10
2.296885237887027
 20
-1.285784073423024
 30
0.125
 70
    32
  0
VERTEX
  5
10000451
  8
VISIBLE
 10
2.296260838212645
 20
-1.283092801252125
 30
0.125
 70
    32
  0
VERTEX
  5
10000452
  8
VISIBLE
 10
2.29602432318447
 20
-1.282625044980762
 30
0.125
 70
    32
  0
VERTEX
  5
10000453
  8
VISIBLE
 10
2.295787808156295
 20
-1.282468030133961
 30
0.125
 70
    32
  0
VERTEX
  5
10000454
  8
VISIBLE
 10
2.29555129312812
 20
-1.282625044980763
 30
0.125
 70
    32
  0
VERTEX
  5
10000455
  8
VISIBLE
 10
2.295314778099945
 20
-1.283092801252125
 30
0.125
 70
    32
  0
VERTEX
  5
10000456
  8
VISIBLE
 10
2.294520087605278
 20
-1.286876030863453
 30
0.125
 70
    32
  0
VERTEX
  5
10000457
  8
VISIBLE
 10
2.293895687930896
 20
-1.292148694196462
 30
0.125
 70
    32
  0
VERTEX
  5
10000458
  8
VISIBLE
 10
2.292476597761847
 20
-1.311148312726735
 30
0.125
 70
    32
  0
VERTEX
  5
10000459
  8
VISIBLE
 10
2.291057507592798
 20
-1.339026257673024
 30
0.125
 70
    32
  0
VERTEX
  5
1000045A
  8
VISIBLE
 10
2.289638417423748
 20
-1.374717129865407
 30
0.125
 70
    32
  0
VERTEX
  5
1000045B
  8
VISIBLE
 10
2.288219327254699
 20
-1.417155530133962
 30
0.125
 70
    32
  0
VERTEX
  5
1000045C
  8
VISIBLE
 10
2.286327207029299
 20
-1.482394787946462
 30
0.125
 70
    32
  0
VERTEX
  5
1000045D
  8
VISIBLE
 10
2.284435086803901
 20
-1.555210217633962
 30
0.125
 70
    32
  0
VERTEX
  5
1000045E
  8
VISIBLE
 10
2.282542966578502
 20
-1.633076428571463
 30
0.125
 70
    32
  0
VERTEX
  5
1000045F
  8
VISIBLE
 10
2.280650846353103
 20
-1.713468030133962
 30
0.125
 70
    32
  0
SEQEND
  5
1000069E
  8
VISIBLE
  0
LINE
  5
F5445
  8
VISIBLE
 10
2.310924769959488
 20
-1.713468030133962
 30
0.125
 11
2.341198693565872
 21
-1.713468030133962
 31
0.125
  0
POLYLINE
  5
F5446
  8
VISIBLE
 10
0.0
 20
0.0
 30
0.0
 66
     1
 70
     8
  0
VERTEX
  5
10000464
  8
VISIBLE
 10
2.341198693565872
 20
-1.713468030133962
 30
0.125
 70
    32
  0
VERTEX
  5
10000465
  8
VISIBLE
 10
2.343090813791271
 20
-1.633076428571462
 30
0.125
 70
    32
  0
VERTEX
  5
10000466
  8
VISIBLE
 10
2.34498293401667
 20
-1.555210217633962
 30
0.125
 70
    32
  0
VERTEX
  5
10000467
  8
VISIBLE
 10
2.346875054242069
 20
-1.482394787946462
 30
0.125
 70
    32
  0
VERTEX
  5
10000468
  8
VISIBLE
 10
2.348767174467468
 20
-1.417155530133962
 30
0.125
 70
    32
  0
VERTEX
  5
10000469
  8
VISIBLE
 10
2.350186264636517
 20
-1.374717129865407
 30
0.125
 70
    32
  0
VERTEX
  5
1000046A
  8
VISIBLE
 10
2.351605354805566
 20
-1.339026257673024
 30
0.125
 70
    32
  0
VERTEX
  5
1000046B
  8
VISIBLE
 10
2.353024444974616
 20
-1.311148312726735
 30
0.125
 70
    32
  0
VERTEX
  5
1000046C
  8
VISIBLE
 10
2.354443535143665
 20
-1.292148694196462
 30
0.125
 70
    32
  0
VERTEX
  5
1000046D
  8
VISIBLE
 10
2.355238225638332
 20
-1.285784073423024
 30
0.125
 70
    32
  0
VERTEX
  5
1000046E
  8
VISIBLE
 10
2.355862625312714
 20
-1.283092801252126
 30
0.125
 70
    32
  0
VERTEX
  5
1000046F
  8
VISIBLE
 10
2.356099140340889
 20
-1.282625044980763
 30
0.125
 70
    32
  0
VERTEX
  5
10000470
  8
VISIBLE
 10
2.356335655369064
 20
-1.282468030133961
 30
0.125
 70
    32
  0
VERTEX
  5
10000471
  8
VISIBLE
 10
2.356572170397239
 20
-1.282625044980763
 30
0.125
 70
    32
  0
VERTEX
  5
10000472
  8
VISIBLE
 10
2.356808685425413
 20
-1.283092801252126
 30
0.125
 70
    32
  0
VERTEX
  5
10000473
  8
VISIBLE
 10
2.357603375920081
 20
-1.286876030863454
 30
0.125
 70
    32
  0
VERTEX
  5
10000474
  8
VISIBLE
 10
2.358227775594463
 20
-1.292148694196462
 30
0.125
 70
    32
  0
VERTEX
  5
10000475
  8
VISIBLE
 10
2.359646865763513
 20
-1.311148312726735
 30
0.125
 70
    32
  0
VERTEX
  5
10000476
  8
VISIBLE
 10
2.361065955932562
 20
-1.339026257673024
 30
0.125
 70
    32
  0
VERTEX
  5
10000477
  8
VISIBLE
 10
2.362485046101611
 20
-1.374717129865407
 30
0.125
 70
    32
  0
VERTEX
  5
10000478
  8
VISIBLE
 10
2.36390413627066
 20
-1.417155530133962
 30
0.125
 70
    32
  0
VERTEX
  5
10000479
  8
VISIBLE
 10
2.36579625649606
 20
-1.482394787946462
 30
0.125
 70
    32
  0
VERTEX
  5
1000047A
  8
VISIBLE
 10
2.367688376721458
 20
-1.555210217633962
 30
0.125
 70
    32
  0
VERTEX
  5
1000047B
  8
VISIBLE
 10
2.369580496946857
 20
-1.633076428571462
 30
0.125
 70
    32
  0
VERTEX
  5
1000047C
  8
VISIBLE
 10
2.371472617172257
 20
-1.713468030133962
 30
0.125
 70
    32
  0
SEQEND
  5
1000069F
  8
VISIBLE
  0
LINE
  5
F5447
  8
VISIBLE
 10
2.371472617172257
 20
-1.713468030133962
 30
0.125
 11
2.401746540778641
 21
-1.713468030133962
 31
0.125
  0
POLYLINE
  5
F5448
  8
VISIBLE
 10
0.0
 20
0.0
 30
0.0
 66
     1
 70
     8
  0
VERTEX
  5
10000481
  8
VISIBLE
 10
2.432020464385026
 20
-1.713468030133962
 30
0.125
 70
    32
  0
VERTEX
  5
10000482
  8
VISIBLE
 10
2.430128344159626
 20
-1.633076428571462
 30
0.125
 70
    32
  0
VERTEX
  5
10000483
  8
VISIBLE
 10
2.428236223934227
 20
-1.555210217633962
 30
0.125
 70
    32
  0
VERTEX
  5
10000484
  8
VISIBLE
 10
2.426344103708828
 20
-1.482394787946462
 30
0.125
 70
    32
  0
VERTEX
  5
10000485
  8
VISIBLE
 10
2.424451983483429
 20
-1.417155530133962
 30
0.125
 70
    32
  0
VERTEX
  5
10000486
  8
VISIBLE
 10
2.42303289331438
 20
-1.374717129865407
 30
0.125
 70
    32
  0
VERTEX
  5
10000487
  8
VISIBLE
 10
2.421613803145331
 20
-1.339026257673024
 30
0.125
 70
    32
  0
VERTEX
  5
10000488
  8
VISIBLE
 10
2.420194712976282
 20
-1.311148312726735
 30
0.125
 70
    32
  0
VERTEX
  5
10000489
  8
VISIBLE
 10
2.418775622807232
 20
-1.292148694196462
 30
0.125
 70
    32
  0
VERTEX
  5
1000048A
  8
VISIBLE
 10
2.417980932312564
 20
-1.285784073423024
 30
0.125
 70
    32
  0
VERTEX
  5
1000048B
  8
VISIBLE
 10
2.417356532638183
 20
-1.283092801252126
 30
0.125
 70
    32
  0
VERTEX
  5
1000048C
  8
VISIBLE
 10
2.417120017610008
 20
-1.282625044980763
 30
0.125
 70
    32
  0
VERTEX
  5
1000048D
  8
VISIBLE
 10
2.416883502581833
 20
-1.282468030133962
 30
0.125
 70
    32
  0
VERTEX
  5
1000048E
  8
VISIBLE
 10
2.416646987553658
 20
-1.282625044980763
 30
0.125
 70
    32
  0
VERTEX
  5
1000048F
  8
VISIBLE
 10
2.416410472525483
 20
-1.283092801252126
 30
0.125
 70
    32
  0
VERTEX
  5
10000490
  8
VISIBLE
 10
2.415615782030816
 20
-1.286876030863454
 30
0.125
 70
    32
  0
VERTEX
  5
10000491
  8
VISIBLE
 10
2.414991382356434
 20
-1.292148694196462
 30
0.125
 70
    32
  0
VERTEX
  5
10000492
  8
VISIBLE
 10
2.413572292187385
 20
-1.311148312726735
 30
0.125
 70
    32
  0
VERTEX
  5
10000493
  8
VISIBLE
 10
2.412153202018335
 20
-1.339026257673024
 30
0.125
 70
    32
  0
VERTEX
  5
10000494
  8
VISIBLE
 10
2.410734111849286
 20
-1.374717129865407
 30
0.125
 70
    32
  0
VERTEX
  5
10000495
  8
VISIBLE
 10
2.409315021680237
 20
-1.417155530133962
 30
0.125
 70
    32
  0
VERTEX
  5
10000496
  8
VISIBLE
 10
2.407422901454838
 20
-1.482394787946462
 30
0.125
 70
    32
  0
VERTEX
  5
10000497
  8
VISIBLE
 10
2.405530781229439
 20
-1.555210217633962
 30
0.125
 70
    32
  0
VERTEX
  5
10000498
  8
VISIBLE
 10
2.40363866100404
 20
-1.633076428571462
 30
0.125
 70
    32
  0
VERTEX
  5
10000499
  8
VISIBLE
 10
2.401746540778641
 20
-1.713468030133962
 30
0.125
 70
    32
  0
SEQEND
  5
100006A0
  8
VISIBLE
  0
LINE
  5
F5449
  8
VISIBLE
 10
2.432020464385026
 20
-1.713468030133962
 30
0.125
 11
2.46229438799141
 21
-1.713468030133962
 31
0.125
  0
POLYLINE
  5
F544A
  8
VISIBLE
 10
0.0
 20
0.0
 30
0.0
 66
     1
 70
     8
  0
VERTEX
  5
1000049E
  8
VISIBLE
 10
2.46229438799141
 20
-1.713468030133962
 30
0.125
 70
    32
  0
VERTEX
  5
1000049F
  8
VISIBLE
 10
2.464186508216809
 20
-1.633076428571462
 30
0.125
 70
    32
  0
VERTEX
  5
100004A0
  8
VISIBLE
 10
2.466078628442208
 20
-1.555210217633962
 30
0.125
 70
    32
  0
VERTEX
  5
100004A1
  8
VISIBLE
 10
2.467970748667607
 20
-1.482394787946462
 30
0.125
 70
    32
  0
VERTEX
  5
100004A2
  8
VISIBLE
 10
2.469862868893006
 20
-1.417155530133962
 30
0.125
 70
    32
  0
VERTEX
  5
100004A3
  8
VISIBLE
 10
2.471281959062055
 20
-1.374717129865407
 30
0.125
 70
    32
  0
VERTEX
  5
100004A4
  8
VISIBLE
 10
2.472701049231104
 20
-1.339026257673024
 30
0.125
 70
    32
  0
VERTEX
  5
100004A5
  8
VISIBLE
 10
2.474120139400153
 20
-1.311148312726735
 30
0.125
 70
    32
  0
VERTEX
  5
100004A6
  8
VISIBLE
 10
2.475539229569203
 20
-1.292148694196461
 30
0.125
 70
    32
  0
VERTEX
  5
100004A7
  8
VISIBLE
 10
2.476333920063871
 20
-1.285784073423024
 30
0.125
 70
    32
  0
VERTEX
  5
100004A8
  8
VISIBLE
 10
2.476958319738252
 20
-1.283092801252125
 30
0.125
 70
    32
  0
VERTEX
  5
100004A9
  8
VISIBLE
 10
2.477194834766427
 20
-1.282625044980763
 30
0.125
 70
    32
  0
VERTEX
  5
100004AA
  8
VISIBLE
 10
2.477431349794602
 20
-1.282468030133961
 30
0.125
 70
    32
  0
VERTEX
  5
100004AB
  8
VISIBLE
 10
2.477667864822777
 20
-1.282625044980763
 30
0.125
 70
    32
  0
VERTEX
  5
100004AC
  8
VISIBLE
 10
2.477904379850951
 20
-1.283092801252125
 30
0.125
 70
    32
  0
VERTEX
  5
100004AD
  8
VISIBLE
 10
2.478699070345619
 20
-1.286876030863453
 30
0.125
 70
    32
  0
VERTEX
  5
100004AE
  8
VISIBLE
 10
2.479323470020001
 20
-1.292148694196461
 30
0.125
 70
    32
  0
VERTEX
  5
100004AF
  8
VISIBLE
 10
2.48074256018905
 20
-1.311148312726735
 30
0.125
 70
    32
  0
VERTEX
  5
100004B0
  8
VISIBLE
 10
2.4821616503581
 20
-1.339026257673024
 30
0.125
 70
    32
  0
VERTEX
  5
100004B1
  8
VISIBLE
 10
2.483580740527149
 20
-1.374717129865407
 30
0.125
 70
    32
  0
VERTEX
  5
100004B2
  8
VISIBLE
 10
2.484999830696198
 20
-1.417155530133962
 30
0.125
 70
    32
  0
VERTEX
  5
100004B3
  8
VISIBLE
 10
2.486891950921597
 20
-1.482394787946462
 30
0.125
 70
    32
  0
VERTEX
  5
100004B4
  8
VISIBLE
 10
2.488784071146997
 20
-1.555210217633962
 30
0.125
 70
    32
  0
VERTEX
  5
100004B5
  8
VISIBLE
 10
2.490676191372396
 20
-1.633076428571462
 30
0.125
 70
    32
  0
VERTEX
  5
100004B6
  8
VISIBLE
 10
2.492568311597794
 20
-1.713468030133962
 30
0.125
 70
    32
  0
SEQEND
  5
100006A1
  8
VISIBLE
  0
LINE
  5
F544B
  8
VISIBLE
 10
2.492568311597794
 20
-1.713468030133962
 30
0.125
 11
2.522842235204179
 21
-1.713468030133962
 31
0.125
  0
POLYLINE
  5
F544C
  8
VISIBLE
 10
0.0
 20
0.0
 30
0.0
 66
     1
 70
     8
  0
VERTEX
  5
100004BB
  8
VISIBLE
 10
2.553116158810563
 20
-1.713468030133962
 30
0.125
 70
    32
  0
VERTEX
  5
100004BC
  8
VISIBLE
 10
2.551224038585164
 20
-1.633076428571462
 30
0.125
 70
    32
  0
VERTEX
  5
100004BD
  8
VISIBLE
 10
2.549331918359765
 20
-1.555210217633962
 30
0.125
 70
    32
  0
VERTEX
  5
100004BE
  8
VISIBLE
 10
2.547439798134366
 20
-1.482394787946461
 30
0.125
 70
    32
  0
VERTEX
  5
100004BF
  8
VISIBLE
 10
2.545547677908967
 20
-1.417155530133961
 30
0.125
 70
    32
  0
VERTEX
  5
100004C0
  8
VISIBLE
 10
2.544128587739918
 20
-1.374717129865406
 30
0.125
 70
    32
  0
VERTEX
  5
100004C1
  8
VISIBLE
 10
2.542709497570868
 20
-1.339026257673023
 30
0.125
 70
    32
  0
VERTEX
  5
100004C2
  8
VISIBLE
 10
2.541290407401819
 20
-1.311148312726735
 30
0.125
 70
    32
  0
VERTEX
  5
100004C3
  8
VISIBLE
 10
2.53987131723277
 20
-1.292148694196461
 30
0.125
 70
    32
  0
VERTEX
  5
100004C4
  8
VISIBLE
 10
2.539076626738102
 20
-1.285784073423023
 30
0.125
 70
    32
  0
VERTEX
  5
100004C5
  8
VISIBLE
 10
2.53845222706372
 20
-1.283092801252125
 30
0.125
 70
    32
  0
VERTEX
  5
100004C6
  8
VISIBLE
 10
2.538215712035545
 20
-1.282625044980762
 30
0.125
 70
    32
  0
VERTEX
  5
100004C7
  8
VISIBLE
 10
2.537979197007371
 20
-1.282468030133961
 30
0.125
 70
    32
  0
VERTEX
  5
100004C8
  8
VISIBLE
 10
2.537742681979196
 20
-1.282625044980762
 30
0.125
 70
    32
  0
VERTEX
  5
100004C9
  8
VISIBLE
 10
2.537506166951021
 20
-1.283092801252125
 30
0.125
 70
    32
  0
VERTEX
  5
100004CA
  8
VISIBLE
 10
2.536711476456353
 20
-1.286876030863453
 30
0.125
 70
    32
  0
VERTEX
  5
100004CB
  8
VISIBLE
 10
2.536087076781972
 20
-1.292148694196461
 30
0.125
 70
    32
  0
VERTEX
  5
100004CC
  8
VISIBLE
 10
2.534667986612922
 20
-1.311148312726735
 30
0.125
 70
    32
  0
VERTEX
  5
100004CD
  8
VISIBLE
 10
2.533248896443873
 20
-1.339026257673024
 30
0.125
 70
    32
  0
VERTEX
  5
100004CE
  8
VISIBLE
 10
2.531829806274824
 20
-1.374717129865407
 30
0.125
 70
    32
  0
VERTEX
  5
100004CF
  8
VISIBLE
 10
2.530410716105775
 20
-1.417155530133962
 30
0.125
 70
    32
  0
VERTEX
  5
100004D0
  8
VISIBLE
 10
2.528518595880376
 20
-1.482394787946462
 30
0.125
 70
    32
  0
VERTEX
  5
100004D1
  8
VISIBLE
 10
2.526626475654976
 20
-1.555210217633962
 30
0.125
 70
    32
  0
VERTEX
  5
100004D2
  8
VISIBLE
 10
2.524734355429577
 20
-1.633076428571462
 30
0.125
 70
    32
  0
VERTEX
  5
100004D3
  8
VISIBLE
 10
2.522842235204179
 20
-1.713468030133962
 30
0.125
 70
    32
  0
SEQEND
  5
100006A2
  8
VISIBLE
  0
LINE
  5
F544D
  8
VISIBLE
 10
2.553116158810563
 20
-1.713468030133962
 30
0.125
 11
2.583390082416948
 21
-1.713468030133962
 31
0.125
  0
POLYLINE
  5
F544E
  8
VISIBLE
 10
0.0
 20
0.0
 30
0.0
 66
     1
 70
     8
  0
VERTEX
  5
100004D8
  8
VISIBLE
 10
2.583390082416948
 20
-0.713468030133961
 30
0.125
 70
    32
  0
VERTEX
  5
100004D9
  8
VISIBLE
 10
2.600093402329107
 20
-0.9001346968006279
 30
0.125
 70
    32
  0
VERTEX
  5
100004DA
  8
VISIBLE
 10
2.611913718272166
 20
-1.086801363467295
 30
0.125
 70
    32
  0
VERTEX
  5
100004DB
  8
VISIBLE
 10
2.61402207920908
 20
-1.273468030133962
 30
0.125
 70
    32
  0
VERTEX
  5
100004DC
  8
VISIBLE
 10
2.607758983025498
 20
-1.420134696800628
 30
0.125
 70
    32
  0
VERTEX
  5
100004DD
  8
VISIBLE
 10
2.596758803545362
 20
-1.566801363467295
 30
0.125
 70
    32
  0
VERTEX
  5
100004DE
  8
VISIBLE
 10
2.583390082416948
 20
-1.713468030133962
 30
0.125
 70
    32
  0
SEQEND
  5
100006A3
  8
VISIBLE
  0
LINE
  5
F544F
  8
VISIBLE
 10
2.583390082416948
 20
-0.713468030133961
 30
0.125
 11
2.553116158810563
 21
-0.713468030133961
 31
0.125
  0
POLYLINE
  5
F5450
  8
VISIBLE
 10
0.0
 20
0.0
 30
0.0
 66
     1
 70
     8
  0
VERTEX
  5
100004E3
  8
VISIBLE
 10
2.553116158810563
 20
-0.713468030133961
 30
0.125
 70
    32
  0
VERTEX
  5
100004E4
  8
VISIBLE
 10
2.551224038585164
 20
-0.7938596316964609
 30
0.125
 70
    32
  0
VERTEX
  5
100004E5
  8
VISIBLE
 10
2.549331918359765
 20
-0.8717258426339609
 30
0.125
 70
    32
  0
VERTEX
  5
100004E6
  8
VISIBLE
 10
2.547439798134366
 20
-0.944541272321461
 30
0.125
 70
    32
  0
VERTEX
  5
100004E7
  8
VISIBLE
 10
2.545547677908967
 20
-1.009780530133961
 30
0.125
 70
    32
  0
VERTEX
  5
100004E8
  8
VISIBLE
 10
2.544128587739918
 20
-1.052218930402516
 30
0.125
 70
    32
  0
VERTEX
  5
100004E9
  8
VISIBLE
 10
2.542709497570868
 20
-1.087909802594899
 30
0.125
 70
    32
  0
VERTEX
  5
100004EA
  8
VISIBLE
 10
2.541290407401819
 20
-1.115787747541188
 30
0.125
 70
    32
  0
VERTEX
  5
100004EB
  8
VISIBLE
 10
2.53987131723277
 20
-1.134787366071462
 30
0.125
 70
    32
  0
VERTEX
  5
100004EC
  8
VISIBLE
 10
2.539076626738102
 20
-1.141151986844899
 30
0.125
 70
    32
  0
VERTEX
  5
100004ED
  8
VISIBLE
 10
2.53845222706372
 20
-1.143843259015798
 30
0.125
 70
    32
  0
VERTEX
  5
100004EE
  8
VISIBLE
 10
2.538215712035546
 20
-1.14431101528716
 30
0.125
 70
    32
  0
VERTEX
  5
100004EF
  8
VISIBLE
 10
2.537979197007371
 20
-1.144468030133962
 30
0.125
 70
    32
  0
VERTEX
  5
100004F0
  8
VISIBLE
 10
2.537742681979196
 20
-1.14431101528716
 30
0.125
 70
    32
  0
VERTEX
  5
100004F1
  8
VISIBLE
 10
2.537506166951021
 20
-1.143843259015798
 30
0.125
 70
    32
  0
VERTEX
  5
100004F2
  8
VISIBLE
 10
2.536711476456353
 20
-1.14006002940447
 30
0.125
 70
    32
  0
VERTEX
  5
100004F3
  8
VISIBLE
 10
2.536087076781972
 20
-1.134787366071462
 30
0.125
 70
    32
  0
VERTEX
  5
100004F4
  8
VISIBLE
 10
2.534667986612922
 20
-1.115787747541188
 30
0.125
 70
    32
  0
VERTEX
  5
100004F5
  8
VISIBLE
 10
2.533248896443873
 20
-1.087909802594899
 30
0.125
 70
    32
  0
VERTEX
  5
100004F6
  8
VISIBLE
 10
2.531829806274824
 20
-1.052218930402516
 30
0.125
 70
    32
  0
VERTEX
  5
100004F7
  8
VISIBLE
 10
2.530410716105775
 20
-1.009780530133961
 30
0.125
 70
    32
  0
VERTEX
  5
100004F8
  8
VISIBLE
 10
2.528518595880376
 20
-0.9445412723214613
 30
0.125
 70
    32
  0
VERTEX
  5
100004F9
  8
VISIBLE
 10
2.526626475654976
 20
-0.8717258426339609
 30
0.125
 70
    32
  0
VERTEX
  5
100004FA
  8
VISIBLE
 10
2.524734355429577
 20
-0.7938596316964609
 30
0.125
 70
    32
  0
VERTEX
  5
100004FB
  8
VISIBLE
 10
2.522842235204179
 20
-0.713468030133961
 30
0.125
 70
    32
  0
SEQEND
  5
100006A4
  8
VISIBLE
  0
LINE
  5
F5451
  8
VISIBLE
 10
2.522842235204179
 20
-0.713468030133961
 30
0.125
 11
2.492568311597794
 21
-0.713468030133961
 31
0.125
  0
POLYLINE
  5
F5452
  8
VISIBLE
 10
0.0
 20
0.0
 30
0.0
 66
     1
 70
     8
  0
VERTEX
  5
10000500
  8
VISIBLE
 10
2.46229438799141
 20
-0.713468030133961
 30
0.125
 70
    32
  0
VERTEX
  5
10000501
  8
VISIBLE
 10
2.464186508216808
 20
-0.7938596316964609
 30
0.125
 70
    32
  0
VERTEX
  5
10000502
  8
VISIBLE
 10
2.466078628442208
 20
-0.8717258426339609
 30
0.125
 70
    32
  0
VERTEX
  5
10000503
  8
VISIBLE
 10
2.467970748667607
 20
-0.9445412723214613
 30
0.125
 70
    32
  0
VERTEX
  5
10000504
  8
VISIBLE
 10
2.469862868893006
 20
-1.009780530133961
 30
0.125
 70
    32
  0
VERTEX
  5
10000505
  8
VISIBLE
 10
2.471281959062055
 20
-1.052218930402516
 30
0.125
 70
    32
  0
VERTEX
  5
10000506
  8
VISIBLE
 10
2.472701049231104
 20
-1.087909802594899
 30
0.125
 70
    32
  0
VERTEX
  5
10000507
  8
VISIBLE
 10
2.474120139400153
 20
-1.115787747541188
 30
0.125
 70
    32
  0
VERTEX
  5
10000508
  8
VISIBLE
 10
2.475539229569203
 20
-1.134787366071462
 30
0.125
 70
    32
  0
VERTEX
  5
10000509
  8
VISIBLE
 10
2.476333920063871
 20
-1.141151986844899
 30
0.125
 70
    32
  0
VERTEX
  5
1000050A
  8
VISIBLE
 10
2.476958319738252
 20
-1.143843259015798
 30
0.125
 70
    32
  0
VERTEX
  5
1000050B
  8
VISIBLE
 10
2.477194834766427
 20
-1.14431101528716
 30
0.125
 70
    32
  0
VERTEX
  5
1000050C
  8
VISIBLE
 10
2.477431349794602
 20
-1.144468030133962
 30
0.125
 70
    32
  0
VERTEX
  5
1000050D
  8
VISIBLE
 10
2.477667864822777
 20
-1.14431101528716
 30
0.125
 70
    32
  0
VERTEX
  5
1000050E
  8
VISIBLE
 10
2.477904379850951
 20
-1.143843259015798
 30
0.125
 70
    32
  0
VERTEX
  5
1000050F
  8
VISIBLE
 10
2.478699070345619
 20
-1.14006002940447
 30
0.125
 70
    32
  0
VERTEX
  5
10000510
  8
VISIBLE
 10
2.479323470020001
 20
-1.134787366071462
 30
0.125
 70
    32
  0
VERTEX
  5
10000511
  8
VISIBLE
 10
2.48074256018905
 20
-1.115787747541188
 30
0.125
 70
    32
  0
VERTEX
  5
10000512
  8
VISIBLE
 10
2.4821616503581
 20
-1.087909802594899
 30
0.125
 70
    32
  0
VERTEX
  5
10000513
  8
VISIBLE
 10
2.483580740527149
 20
-1.052218930402516
 30
0.125
 70
    32
  0
VERTEX
  5
10000514
  8
VISIBLE
 10
2.484999830696198
 20
-1.009780530133961
 30
0.125
 70
    32
  0
VERTEX
  5
10000515
  8
VISIBLE
 10
2.486891950921597
 20
-0.9445412723214613
 30
0.125
 70
    32
  0
VERTEX
  5
10000516
  8
VISIBLE
 10
2.488784071146996
 20
-0.8717258426339609
 30
0.125
 70
    32
  0
VERTEX
  5
10000517
  8
VISIBLE
 10
2.490676191372395
 20
-0.7938596316964609
 30
0.125
 70
    32
  0
VERTEX
  5
10000518
  8
VISIBLE
 10
2.492568311597794
 20
-0.713468030133961
 30
0.125
 70
    32
  0
SEQEND
  5
100006A5
  8
VISIBLE
  0
LINE
  5
F5453
  8
VISIBLE
 10
2.432020464385025
 20
-0.713468030133961
 30
0.125
 11
2.46229438799141
 21
-0.713468030133961
 31
0.125
  0
POLYLINE
  5
F5454
  8
VISIBLE
 10
0.0
 20
0.0
 30
0.0
 66
     1
 70
     8
  0
VERTEX
  5
1000051D
  8
VISIBLE
 10
2.432020464385025
 20
-0.713468030133961
 30
0.125
 70
    32
  0
VERTEX
  5
1000051E
  8
VISIBLE
 10
2.430128344159626
 20
-0.7938596316964611
 30
0.125
 70
    32
  0
VERTEX
  5
1000051F
  8
VISIBLE
 10
2.428236223934227
 20
-0.8717258426339609
 30
0.125
 70
    32
  0
VERTEX
  5
10000520
  8
VISIBLE
 10
2.426344103708828
 20
-0.9445412723214613
 30
0.125
 70
    32
  0
VERTEX
  5
10000521
  8
VISIBLE
 10
2.424451983483429
 20
-1.009780530133961
 30
0.125
 70
    32
  0
VERTEX
  5
10000522
  8
VISIBLE
 10
2.42303289331438
 20
-1.052218930402516
 30
0.125
 70
    32
  0
VERTEX
  5
10000523
  8
VISIBLE
 10
2.421613803145331
 20
-1.087909802594899
 30
0.125
 70
    32
  0
VERTEX
  5
10000524
  8
VISIBLE
 10
2.420194712976281
 20
-1.115787747541188
 30
0.125
 70
    32
  0
VERTEX
  5
10000525
  8
VISIBLE
 10
2.418775622807232
 20
-1.134787366071462
 30
0.125
 70
    32
  0
VERTEX
  5
10000526
  8
VISIBLE
 10
2.417980932312565
 20
-1.141151986844899
 30
0.125
 70
    32
  0
VERTEX
  5
10000527
  8
VISIBLE
 10
2.417356532638183
 20
-1.143843259015797
 30
0.125
 70
    32
  0
VERTEX
  5
10000528
  8
VISIBLE
 10
2.417120017610008
 20
-1.14431101528716
 30
0.125
 70
    32
  0
VERTEX
  5
10000529
  8
VISIBLE
 10
2.416883502581833
 20
-1.144468030133962
 30
0.125
 70
    32
  0
VERTEX
  5
1000052A
  8
VISIBLE
 10
2.416646987553658
 20
-1.14431101528716
 30
0.125
 70
    32
  0
VERTEX
  5
1000052B
  8
VISIBLE
 10
2.416410472525484
 20
-1.143843259015797
 30
0.125
 70
    32
  0
VERTEX
  5
1000052C
  8
VISIBLE
 10
2.415615782030816
 20
-1.140060029404469
 30
0.125
 70
    32
  0
VERTEX
  5
1000052D
  8
VISIBLE
 10
2.414991382356434
 20
-1.134787366071462
 30
0.125
 70
    32
  0
VERTEX
  5
1000052E
  8
VISIBLE
 10
2.413572292187385
 20
-1.115787747541188
 30
0.125
 70
    32
  0
VERTEX
  5
1000052F
  8
VISIBLE
 10
2.412153202018336
 20
-1.087909802594899
 30
0.125
 70
    32
  0
VERTEX
  5
10000530
  8
VISIBLE
 10
2.410734111849286
 20
-1.052218930402516
 30
0.125
 70
    32
  0
VERTEX
  5
10000531
  8
VISIBLE
 10
2.409315021680237
 20
-1.009780530133961
 30
0.125
 70
    32
  0
VERTEX
  5
10000532
  8
VISIBLE
 10
2.407422901454837
 20
-0.9445412723214613
 30
0.125
 70
    32
  0
VERTEX
  5
10000533
  8
VISIBLE
 10
2.405530781229439
 20
-0.8717258426339609
 30
0.125
 70
    32
  0
VERTEX
  5
10000534
  8
VISIBLE
 10
2.403638661004039
 20
-0.7938596316964611
 30
0.125
 70
    32
  0
VERTEX
  5
10000535
  8
VISIBLE
 10
2.401746540778641
 20
-0.713468030133961
 30
0.125
 70
    32
  0
SEQEND
  5
100006A6
  8
VISIBLE
  0
LINE
  5
F5455
  8
VISIBLE
 10
2.371472617172256
 20
-0.713468030133961
 30
0.125
 11
2.401746540778641
 21
-0.713468030133961
 31
0.125
  0
POLYLINE
  5
F5456
  8
VISIBLE
 10
0.0
 20
0.0
 30
0.0
 66
     1
 70
     8
  0
VERTEX
  5
1000053A
  8
VISIBLE
 10
2.341198693565872
 20
-0.713468030133961
 30
0.125
 70
    32
  0
VERTEX
  5
1000053B
  8
VISIBLE
 10
2.343090813791271
 20
-0.7938596316964609
 30
0.125
 70
    32
  0
VERTEX
  5
1000053C
  8
VISIBLE
 10
2.34498293401667
 20
-0.8717258426339609
 30
0.125
 70
    32
  0
VERTEX
  5
1000053D
  8
VISIBLE
 10
2.346875054242069
 20
-0.9445412723214613
 30
0.125
 70
    32
  0
VERTEX
  5
1000053E
  8
VISIBLE
 10
2.348767174467468
 20
-1.009780530133961
 30
0.125
 70
    32
  0
VERTEX
  5
1000053F
  8
VISIBLE
 10
2.350186264636517
 20
-1.052218930402516
 30
0.125
 70
    32
  0
VERTEX
  5
10000540
  8
VISIBLE
 10
2.351605354805566
 20
-1.087909802594899
 30
0.125
 70
    32
  0
VERTEX
  5
10000541
  8
VISIBLE
 10
2.353024444974616
 20
-1.115787747541188
 30
0.125
 70
    32
  0
VERTEX
  5
10000542
  8
VISIBLE
 10
2.354443535143665
 20
-1.134787366071462
 30
0.125
 70
    32
  0
VERTEX
  5
10000543
  8
VISIBLE
 10
2.355238225638332
 20
-1.141151986844899
 30
0.125
 70
    32
  0
VERTEX
  5
10000544
  8
VISIBLE
 10
2.355862625312714
 20
-1.143843259015798
 30
0.125
 70
    32
  0
VERTEX
  5
10000545
  8
VISIBLE
 10
2.356099140340889
 20
-1.14431101528716
 30
0.125
 70
    32
  0
VERTEX
  5
10000546
  8
VISIBLE
 10
2.356335655369064
 20
-1.144468030133962
 30
0.125
 70
    32
  0
VERTEX
  5
10000547
  8
VISIBLE
 10
2.356572170397239
 20
-1.14431101528716
 30
0.125
 70
    32
  0
VERTEX
  5
10000548
  8
VISIBLE
 10
2.356808685425413
 20
-1.143843259015798
 30
0.125
 70
    32
  0
VERTEX
  5
10000549
  8
VISIBLE
 10
2.357603375920081
 20
-1.14006002940447
 30
0.125
 70
    32
  0
VERTEX
  5
1000054A
  8
VISIBLE
 10
2.358227775594463
 20
-1.134787366071462
 30
0.125
 70
    32
  0
VERTEX
  5
1000054B
  8
VISIBLE
 10
2.359646865763512
 20
-1.115787747541188
 30
0.125
 70
    32
  0
VERTEX
  5
1000054C
  8
VISIBLE
 10
2.361065955932562
 20
-1.087909802594899
 30
0.125
 70
    32
  0
VERTEX
  5
1000054D
  8
VISIBLE
 10
2.362485046101611
 20
-1.052218930402516
 30
0.125
 70
    32
  0
VERTEX
  5
1000054E
  8
VISIBLE
 10
2.36390413627066
 20
-1.009780530133961
 30
0.125
 70
    32
  0
VERTEX
  5
1000054F
  8
VISIBLE
 10
2.365796256496059
 20
-0.9445412723214613
 30
0.125
 70
    32
  0
VERTEX
  5
10000550
  8
VISIBLE
 10
2.367688376721458
 20
-0.8717258426339609
 30
0.125
 70
    32
  0
VERTEX
  5
10000551
  8
VISIBLE
 10
2.369580496946857
 20
-0.7938596316964609
 30
0.125
 70
    32
  0
VERTEX
  5
10000552
  8
VISIBLE
 10
2.371472617172256
 20
-0.713468030133961
 30
0.125
 70
    32
  0
SEQEND
  5
100006A7
  8
VISIBLE
  0
LINE
  5
F5457
  8
VISIBLE
 10
2.341198693565872
 20
-0.713468030133961
 30
0.125
 11
2.310924769959487
 21
-0.713468030133961
 31
0.125
  0
POLYLINE
  5
F5458
  8
VISIBLE
 10
0.0
 20
0.0
 30
0.0
 66
     1
 70
     8
  0
VERTEX
  5
10000557
  8
VISIBLE
 10
2.310924769959487
 20
-0.713468030133961
 30
0.125
 70
    32
  0
VERTEX
  5
10000558
  8
VISIBLE
 10
2.309032649734089
 20
-0.7938596316964609
 30
0.125
 70
    32
  0
VERTEX
  5
10000559
  8
VISIBLE
 10
2.307140529508689
 20
-0.8717258426339609
 30
0.125
 70
    32
  0
VERTEX
  5
1000055A
  8
VISIBLE
 10
2.30524840928329
 20
-0.9445412723214613
 30
0.125
 70
    32
  0
VERTEX
  5
1000055B
  8
VISIBLE
 10
2.303356289057891
 20
-1.009780530133961
 30
0.125
 70
    32
  0
VERTEX
  5
1000055C
  8
VISIBLE
 10
2.301937198888842
 20
-1.052218930402516
 30
0.125
 70
    32
  0
VERTEX
  5
1000055D
  8
VISIBLE
 10
2.300518108719793
 20
-1.087909802594899
 30
0.125
 70
    32
  0
VERTEX
  5
1000055E
  8
VISIBLE
 10
2.299099018550744
 20
-1.115787747541188
 30
0.125
 70
    32
  0
VERTEX
  5
1000055F
  8
VISIBLE
 10
2.297679928381694
 20
-1.134787366071462
 30
0.125
 70
    32
  0
VERTEX
  5
10000560
  8
VISIBLE
 10
2.296885237887027
 20
-1.141151986844899
 30
0.125
 70
    32
  0
VERTEX
  5
10000561
  8
VISIBLE
 10
2.296260838212645
 20
-1.143843259015798
 30
0.125
 70
    32
  0
VERTEX
  5
10000562
  8
VISIBLE
 10
2.29602432318447
 20
-1.14431101528716
 30
0.125
 70
    32
  0
VERTEX
  5
10000563
  8
VISIBLE
 10
2.295787808156295
 20
-1.144468030133962
 30
0.125
 70
    32
  0
VERTEX
  5
10000564
  8
VISIBLE
 10
2.29555129312812
 20
-1.14431101528716
 30
0.125
 70
    32
  0
VERTEX
  5
10000565
  8
VISIBLE
 10
2.295314778099945
 20
-1.143843259015798
 30
0.125
 70
    32
  0
VERTEX
  5
10000566
  8
VISIBLE
 10
2.294520087605278
 20
-1.14006002940447
 30
0.125
 70
    32
  0
VERTEX
  5
10000567
  8
VISIBLE
 10
2.293895687930896
 20
-1.134787366071462
 30
0.125
 70
    32
  0
VERTEX
  5
10000568
  8
VISIBLE
 10
2.292476597761847
 20
-1.115787747541188
 30
0.125
 70
    32
  0
VERTEX
  5
10000569
  8
VISIBLE
 10
2.291057507592797
 20
-1.087909802594899
 30
0.125
 70
    32
  0
VERTEX
  5
1000056A
  8
VISIBLE
 10
2.289638417423748
 20
-1.052218930402516
 30
0.125
 70
    32
  0
VERTEX
  5
1000056B
  8
VISIBLE
 10
2.288219327254699
 20
-1.009780530133961
 30
0.125
 70
    32
  0
VERTEX
  5
1000056C
  8
VISIBLE
 10
2.286327207029299
 20
-0.9445412723214613
 30
0.125
 70
    32
  0
VERTEX
  5
1000056D
  8
VISIBLE
 10
2.284435086803901
 20
-0.8717258426339609
 30
0.125
 70
    32
  0
VERTEX
  5
1000056E
  8
VISIBLE
 10
2.282542966578502
 20
-0.7938596316964609
 30
0.125
 70
    32
  0
VERTEX
  5
1000056F
  8
VISIBLE
 10
2.280650846353103
 20
-0.713468030133961
 30
0.125
 70
    32
  0
SEQEND
  5
100006A8
  8
VISIBLE
  0
LINE
  5
F5459
  8
VISIBLE
 10
2.250376922746718
 20
-0.713468030133961
 30
0.125
 11
2.280650846353103
 21
-0.713468030133961
 31
0.125
  0
POLYLINE
  5
F545A
  8
VISIBLE
 10
0.0
 20
0.0
 30
0.0
 66
     1
 70
     8
  0
VERTEX
  5
10000574
  8
VISIBLE
 10
2.220102999140334
 20
-0.713468030133961
 30
0.125
 70
    32
  0
VERTEX
  5
10000575
  8
VISIBLE
 10
2.221995119365733
 20
-0.7938596316964609
 30
0.125
 70
    32
  0
VERTEX
  5
10000576
  8
VISIBLE
 10
2.223887239591132
 20
-0.8717258426339609
 30
0.125
 70
    32
  0
VERTEX
  5
10000577
  8
VISIBLE
 10
2.225779359816531
 20
-0.9445412723214609
 30
0.125
 70
    32
  0
VERTEX
  5
10000578
  8
VISIBLE
 10
2.22767148004193
 20
-1.009780530133961
 30
0.125
 70
    32
  0
VERTEX
  5
10000579
  8
VISIBLE
 10
2.22909057021098
 20
-1.052218930402516
 30
0.125
 70
    32
  0
VERTEX
  5
1000057A
  8
VISIBLE
 10
2.230509660380029
 20
-1.087909802594899
 30
0.125
 70
    32
  0
VERTEX
  5
1000057B
  8
VISIBLE
 10
2.231928750549078
 20
-1.115787747541188
 30
0.125
 70
    32
  0
VERTEX
  5
1000057C
  8
VISIBLE
 10
2.233347840718127
 20
-1.134787366071461
 30
0.125
 70
    32
  0
VERTEX
  5
1000057D
  8
VISIBLE
 10
2.234142531212794
 20
-1.141151986844899
 30
0.125
 70
    32
  0
VERTEX
  5
1000057E
  8
VISIBLE
 10
2.234766930887176
 20
-1.143843259015797
 30
0.125
 70
    32
  0
VERTEX
  5
1000057F
  8
VISIBLE
 10
2.235003445915351
 20
-1.14431101528716
 30
0.125
 70
    32
  0
VERTEX
  5
10000580
  8
VISIBLE
 10
2.235239960943526
 20
-1.144468030133961
 30
0.125
 70
    32
  0
VERTEX
  5
10000581
  8
VISIBLE
 10
2.235476475971701
 20
-1.14431101528716
 30
0.125
 70
    32
  0
VERTEX
  5
10000582
  8
VISIBLE
 10
2.235712990999876
 20
-1.143843259015797
 30
0.125
 70
    32
  0
VERTEX
  5
10000583
  8
VISIBLE
 10
2.236507681494543
 20
-1.140060029404469
 30
0.125
 70
    32
  0
VERTEX
  5
10000584
  8
VISIBLE
 10
2.237132081168926
 20
-1.134787366071461
 30
0.125
 70
    32
  0
VERTEX
  5
10000585
  8
VISIBLE
 10
2.238551171337975
 20
-1.115787747541188
 30
0.125
 70
    32
  0
VERTEX
  5
10000586
  8
VISIBLE
 10
2.239970261507024
 20
-1.087909802594899
 30
0.125
 70
    32
  0
VERTEX
  5
10000587
  8
VISIBLE
 10
2.241389351676073
 20
-1.052218930402516
 30
0.125
 70
    32
  0
VERTEX
  5
10000588
  8
VISIBLE
 10
2.242808441845122
 20
-1.009780530133961
 30
0.125
 70
    32
  0
VERTEX
  5
10000589
  8
VISIBLE
 10
2.244700562070521
 20
-0.9445412723214609
 30
0.125
 70
    32
  0
VERTEX
  5
1000058A
  8
VISIBLE
 10
2.246592682295921
 20
-0.8717258426339609
 30
0.125
 70
    32
  0
VERTEX
  5
1000058B
  8
VISIBLE
 10
2.24848480252132
 20
-0.7938596316964609
 30
0.125
 70
    32
  0
VERTEX
  5
1000058C
  8
VISIBLE
 10
2.250376922746718
 20
-0.713468030133961
 30
0.125
 70
    32
  0
SEQEND
  5
100006A9
  8
VISIBLE
  0
LINE
  5
F545B
  8
VISIBLE
 10
2.189829075533949
 20
-0.713468030133961
 30
0.125
 11
2.220102999140334
 21
-0.713468030133961
 31
0.125
  0
POLYLINE
  5
F545C
  8
VISIBLE
 10
0.0
 20
0.0
 30
0.0
 66
     1
 70
     8
  0
VERTEX
  5
10000591
  8
VISIBLE
 10
2.189829075533949
 20
-0.713468030133961
 30
0.125
 70
    32
  0
VERTEX
  5
10000592
  8
VISIBLE
 10
2.187936955308551
 20
-0.7938596316964609
 30
0.125
 70
    32
  0
VERTEX
  5
10000593
  8
VISIBLE
 10
2.186044835083151
 20
-0.8717258426339609
 30
0.125
 70
    32
  0
VERTEX
  5
10000594
  8
VISIBLE
 10
2.184152714857752
 20
-0.944541272321461
 30
0.125
 70
    32
  0
VERTEX
  5
10000595
  8
VISIBLE
 10
2.182260594632353
 20
-1.009780530133961
 30
0.125
 70
    32
  0
VERTEX
  5
10000596
  8
VISIBLE
 10
2.180841504463304
 20
-1.052218930402516
 30
0.125
 70
    32
  0
VERTEX
  5
10000597
  8
VISIBLE
 10
2.179422414294255
 20
-1.087909802594899
 30
0.125
 70
    32
  0
VERTEX
  5
10000598
  8
VISIBLE
 10
2.178003324125206
 20
-1.115787747541188
 30
0.125
 70
    32
  0
VERTEX
  5
10000599
  8
VISIBLE
 10
2.176584233956157
 20
-1.134787366071461
 30
0.125
 70
    32
  0
VERTEX
  5
1000059A
  8
VISIBLE
 10
2.175789543461489
 20
-1.141151986844899
 30
0.125
 70
    32
  0
VERTEX
  5
1000059B
  8
VISIBLE
 10
2.175165143787107
 20
-1.143843259015797
 30
0.125
 70
    32
  0
VERTEX
  5
1000059C
  8
VISIBLE
 10
2.174928628758932
 20
-1.14431101528716
 30
0.125
 70
    32
  0
VERTEX
  5
1000059D
  8
VISIBLE
 10
2.174692113730757
 20
-1.144468030133961
 30
0.125
 70
    32
  0
VERTEX
  5
1000059E
  8
VISIBLE
 10
2.174455598702582
 20
-1.14431101528716
 30
0.125
 70
    32
  0
VERTEX
  5
1000059F
  8
VISIBLE
 10
2.174219083674407
 20
-1.143843259015797
 30
0.125
 70
    32
  0
VERTEX
  5
100005A0
  8
VISIBLE
 10
2.17342439317974
 20
-1.140060029404469
 30
0.125
 70
    32
  0
VERTEX
  5
100005A1
  8
VISIBLE
 10
2.172799993505358
 20
-1.134787366071461
 30
0.125
 70
    32
  0
VERTEX
  5
100005A2
  8
VISIBLE
 10
2.171380903336309
 20
-1.115787747541188
 30
0.125
 70
    32
  0
VERTEX
  5
100005A3
  8
VISIBLE
 10
2.16996181316726
 20
-1.087909802594899
 30
0.125
 70
    32
  0
VERTEX
  5
100005A4
  8
VISIBLE
 10
2.168542722998211
 20
-1.052218930402516
 30
0.125
 70
    32
  0
VERTEX
  5
100005A5
  8
VISIBLE
 10
2.167123632829161
 20
-1.009780530133961
 30
0.125
 70
    32
  0
VERTEX
  5
100005A6
  8
VISIBLE
 10
2.165231512603762
 20
-0.944541272321461
 30
0.125
 70
    32
  0
VERTEX
  5
100005A7
  8
VISIBLE
 10
2.163339392378363
 20
-0.8717258426339609
 30
0.125
 70
    32
  0
VERTEX
  5
100005A8
  8
VISIBLE
 10
2.161447272152964
 20
-0.7938596316964609
 30
0.125
 70
    32
  0
VERTEX
  5
100005A9
  8
VISIBLE
 10
2.159555151927565
 20
-0.713468030133961
 30
0.125
 70
    32
  0
SEQEND
  5
100006AA
  8
VISIBLE
  0
LINE
  5
F545D
  8
VISIBLE
 10
2.159555151927565
 20
-0.713468030133961
 30
0.125
 11
2.12928122832118
 21
-0.713468030133961
 31
0.125
  0
POLYLINE
  5
F545E
  8
VISIBLE
 10
0.0
 20
0.0
 30
0.0
 66
     1
 70
     8
  0
VERTEX
  5
100005AE
  8
VISIBLE
 10
2.099007304714796
 20
-0.713468030133961
 30
0.125
 70
    32
  0
VERTEX
  5
100005AF
  8
VISIBLE
 10
2.100899424940195
 20
-0.7938596316964609
 30
0.125
 70
    32
  0
VERTEX
  5
100005B0
  8
VISIBLE
 10
2.102791545165594
 20
-0.8717258426339609
 30
0.125
 70
    32
  0
VERTEX
  5
100005B1
  8
VISIBLE
 10
2.104683665390993
 20
-0.9445412723214609
 30
0.125
 70
    32
  0
VERTEX
  5
100005B2
  8
VISIBLE
 10
2.106575785616392
 20
-1.009780530133961
 30
0.125
 70
    32
  0
VERTEX
  5
100005B3
  8
VISIBLE
 10
2.107994875785442
 20
-1.052218930402516
 30
0.125
 70
    32
  0
VERTEX
  5
100005B4
  8
VISIBLE
 10
2.109413965954491
 20
-1.087909802594899
 30
0.125
 70
    32
  0
VERTEX
  5
100005B5
  8
VISIBLE
 10
2.11083305612354
 20
-1.115787747541188
 30
0.125
 70
    32
  0
VERTEX
  5
100005B6
  8
VISIBLE
 10
2.112252146292589
 20
-1.134787366071461
 30
0.125
 70
    32
  0
VERTEX
  5
100005B7
  8
VISIBLE
 10
2.113046836787257
 20
-1.141151986844899
 30
0.125
 70
    32
  0
VERTEX
  5
100005B8
  8
VISIBLE
 10
2.113671236461639
 20
-1.143843259015797
 30
0.125
 70
    32
  0
VERTEX
  5
100005B9
  8
VISIBLE
 10
2.113907751489813
 20
-1.14431101528716
 30
0.125
 70
    32
  0
VERTEX
  5
100005BA
  8
VISIBLE
 10
2.114144266517988
 20
-1.144468030133961
 30
0.125
 70
    32
  0
VERTEX
  5
100005BB
  8
VISIBLE
 10
2.114380781546163
 20
-1.14431101528716
 30
0.125
 70
    32
  0
VERTEX
  5
100005BC
  8
VISIBLE
 10
2.114617296574338
 20
-1.143843259015797
 30
0.125
 70
    32
  0
VERTEX
  5
100005BD
  8
VISIBLE
 10
2.115411987069006
 20
-1.140060029404469
 30
0.125
 70
    32
  0
VERTEX
  5
100005BE
  8
VISIBLE
 10
2.116036386743388
 20
-1.134787366071461
 30
0.125
 70
    32
  0
VERTEX
  5
100005BF
  8
VISIBLE
 10
2.117455476912437
 20
-1.115787747541188
 30
0.125
 70
    32
  0
VERTEX
  5
100005C0
  8
VISIBLE
 10
2.118874567081486
 20
-1.087909802594899
 30
0.125
 70
    32
  0
VERTEX
  5
100005C1
  8
VISIBLE
 10
2.120293657250536
 20
-1.052218930402516
 30
0.125
 70
    32
  0
VERTEX
  5
100005C2
  8
VISIBLE
 10
2.121712747419585
 20
-1.009780530133961
 30
0.125
 70
    32
  0
VERTEX
  5
100005C3
  8
VISIBLE
 10
2.123604867644984
 20
-0.9445412723214609
 30
0.125
 70
    32
  0
VERTEX
  5
100005C4
  8
VISIBLE
 10
2.125496987870383
 20
-0.8717258426339609
 30
0.125
 70
    32
  0
VERTEX
  5
100005C5
  8
VISIBLE
 10
2.127389108095782
 20
-0.7938596316964609
 30
0.125
 70
    32
  0
VERTEX
  5
100005C6
  8
VISIBLE
 10
2.12928122832118
 20
-0.713468030133961
 30
0.125
 70
    32
  0
SEQEND
  5
100006AB
  8
VISIBLE
  0
LINE
  5
F545F
  8
VISIBLE
 10
2.099007304714796
 20
-0.713468030133961
 30
0.125
 11
2.068733381108412
 21
-0.713468030133961
 31
0.125
  0
POLYLINE
  5
F5460
  8
VISIBLE
 10
0.0
 20
0.0
 30
0.0
 66
     1
 70
     8
  0
VERTEX
  5
100005CB
  8
VISIBLE
 10
2.068733381108412
 20
-0.713468030133961
 30
0.125
 70
    32
  0
VERTEX
  5
100005CC
  8
VISIBLE
 10
2.066841260883013
 20
-0.7938596316964609
 30
0.125
 70
    32
  0
VERTEX
  5
100005CD
  8
VISIBLE
 10
2.064949140657614
 20
-0.8717258426339609
 30
0.125
 70
    32
  0
VERTEX
  5
100005CE
  8
VISIBLE
 10
2.063057020432215
 20
-0.9445412723214609
 30
0.125
 70
    32
  0
VERTEX
  5
100005CF
  8
VISIBLE
 10
2.061164900206816
 20
-1.009780530133961
 30
0.125
 70
    32
  0
VERTEX
  5
100005D0
  8
VISIBLE
 10
2.059745810037766
 20
-1.052218930402516
 30
0.125
 70
    32
  0
VERTEX
  5
100005D1
  8
VISIBLE
 10
2.058326719868717
 20
-1.087909802594899
 30
0.125
 70
    32
  0
VERTEX
  5
100005D2
  8
VISIBLE
 10
2.056907629699668
 20
-1.115787747541188
 30
0.125
 70
    32
  0
VERTEX
  5
100005D3
  8
VISIBLE
 10
2.055488539530619
 20
-1.134787366071461
 30
0.125
 70
    32
  0
VERTEX
  5
100005D4
  8
VISIBLE
 10
2.054693849035951
 20
-1.141151986844899
 30
0.125
 70
    32
  0
VERTEX
  5
100005D5
  8
VISIBLE
 10
2.054069449361569
 20
-1.143843259015797
 30
0.125
 70
    32
  0
VERTEX
  5
100005D6
  8
VISIBLE
 10
2.053832934333394
 20
-1.14431101528716
 30
0.125
 70
    32
  0
VERTEX
  5
100005D7
  8
VISIBLE
 10
2.05359641930522
 20
-1.144468030133961
 30
0.125
 70
    32
  0
VERTEX
  5
100005D8
  8
VISIBLE
 10
2.053359904277045
 20
-1.14431101528716
 30
0.125
 70
    32
  0
VERTEX
  5
100005D9
  8
VISIBLE
 10
2.05312338924887
 20
-1.143843259015797
 30
0.125
 70
    32
  0
VERTEX
  5
100005DA
  8
VISIBLE
 10
2.052328698754202
 20
-1.140060029404469
 30
0.125
 70
    32
  0
VERTEX
  5
100005DB
  8
VISIBLE
 10
2.05170429907982
 20
-1.134787366071461
 30
0.125
 70
    32
  0
VERTEX
  5
100005DC
  8
VISIBLE
 10
2.050285208910771
 20
-1.115787747541188
 30
0.125
 70
    32
  0
VERTEX
  5
100005DD
  8
VISIBLE
 10
2.048866118741722
 20
-1.087909802594899
 30
0.125
 70
    32
  0
VERTEX
  5
100005DE
  8
VISIBLE
 10
2.047447028572672
 20
-1.052218930402516
 30
0.125
 70
    32
  0
VERTEX
  5
100005DF
  8
VISIBLE
 10
2.046027938403623
 20
-1.009780530133961
 30
0.125
 70
    32
  0
VERTEX
  5
100005E0
  8
VISIBLE
 10
2.044135818178224
 20
-0.9445412723214609
 30
0.125
 70
    32
  0
VERTEX
  5
100005E1
  8
VISIBLE
 10
2.042243697952825
 20
-0.8717258426339609
 30
0.125
 70
    32
  0
VERTEX
  5
100005E2
  8
VISIBLE
 10
2.040351577727426
 20
-0.7938596316964609
 30
0.125
 70
    32
  0
VERTEX
  5
100005E3
  8
VISIBLE
 10
2.038459457502027
 20
-0.713468030133961
 30
0.125
 70
    32
  0
SEQEND
  5
100006AC
  8
VISIBLE
  0
LINE
  5
F5461
  8
VISIBLE
 10
2.008185533895643
 20
-0.713468030133961
 30
0.125
 11
2.038459457502027
 21
-0.713468030133961
 31
0.125
  0
POLYLINE
  5
F5462
  8
VISIBLE
 10
0.0
 20
0.0
 30
0.0
 66
     1
 70
     8
  0
VERTEX
  5
100005E8
  8
VISIBLE
 10
1.977911610289258
 20
-0.713468030133961
 30
0.125
 70
    32
  0
VERTEX
  5
100005E9
  8
VISIBLE
 10
1.979803730514657
 20
-0.7938596316964609
 30
0.125
 70
    32
  0
VERTEX
  5
100005EA
  8
VISIBLE
 10
1.981695850740057
 20
-0.8717258426339609
 30
0.125
 70
    32
  0
VERTEX
  5
100005EB
  8
VISIBLE
 10
1.983587970965455
 20
-0.9445412723214609
 30
0.125
 70
    32
  0
VERTEX
  5
100005EC
  8
VISIBLE
 10
1.985480091190855
 20
-1.009780530133961
 30
0.125
 70
    32
  0
VERTEX
  5
100005ED
  8
VISIBLE
 10
1.986899181359904
 20
-1.052218930402516
 30
0.125
 70
    32
  0
VERTEX
  5
100005EE
  8
VISIBLE
 10
1.988318271528953
 20
-1.087909802594899
 30
0.125
 70
    32
  0
VERTEX
  5
100005EF
  8
VISIBLE
 10
1.989737361698002
 20
-1.115787747541188
 30
0.125
 70
    32
  0
VERTEX
  5
100005F0
  8
VISIBLE
 10
1.991156451867051
 20
-1.134787366071461
 30
0.125
 70
    32
  0
VERTEX
  5
100005F1
  8
VISIBLE
 10
1.991951142361719
 20
-1.141151986844899
 30
0.125
 70
    32
  0
VERTEX
  5
100005F2
  8
VISIBLE
 10
1.992575542036101
 20
-1.143843259015797
 30
0.125
 70
    32
  0
VERTEX
  5
100005F3
  8
VISIBLE
 10
1.992812057064276
 20
-1.14431101528716
 30
0.125
 70
    32
  0
VERTEX
  5
100005F4
  8
VISIBLE
 10
1.99304857209245
 20
-1.144468030133961
 30
0.125
 70
    32
  0
VERTEX
  5
100005F5
  8
VISIBLE
 10
1.993285087120625
 20
-1.14431101528716
 30
0.125
 70
    32
  0
VERTEX
  5
100005F6
  8
VISIBLE
 10
1.9935216021488
 20
-1.143843259015797
 30
0.125
 70
    32
  0
VERTEX
  5
100005F7
  8
VISIBLE
 10
1.994316292643467
 20
-1.140060029404469
 30
0.125
 70
    32
  0
VERTEX
  5
100005F8
  8
VISIBLE
 10
1.99494069231785
 20
-1.134787366071461
 30
0.125
 70
    32
  0
VERTEX
  5
100005F9
  8
VISIBLE
 10
1.996359782486899
 20
-1.115787747541188
 30
0.125
 70
    32
  0
VERTEX
  5
100005FA
  8
VISIBLE
 10
1.997778872655948
 20
-1.087909802594899
 30
0.125
 70
    32
  0
VERTEX
  5
100005FB
  8
VISIBLE
 10
1.999197962824998
 20
-1.052218930402516
 30
0.125
 70
    32
  0
VERTEX
  5
100005FC
  8
VISIBLE
 10
2.000617052994047
 20
-1.009780530133961
 30
0.125
 70
    32
  0
VERTEX
  5
100005FD
  8
VISIBLE
 10
2.002509173219446
 20
-0.9445412723214609
 30
0.125
 70
    32
  0
VERTEX
  5
100005FE
  8
VISIBLE
 10
2.004401293444845
 20
-0.8717258426339609
 30
0.125
 70
    32
  0
VERTEX
  5
100005FF
  8
VISIBLE
 10
2.006293413670244
 20
-0.7938596316964609
 30
0.125
 70
    32
  0
VERTEX
  5
10000600
  8
VISIBLE
 10
2.008185533895643
 20
-0.713468030133961
 30
0.125
 70
    32
  0
SEQEND
  5
100006AD
  8
VISIBLE
  0
LINE
  5
F5463
  8
VISIBLE
 10
1.947637686682874
 20
-0.713468030133961
 30
0.125
 11
1.977911610289258
 21
-0.713468030133961
 31
0.125
  0
POLYLINE
  5
F5464
  8
VISIBLE
 10
0.0
 20
0.0
 30
0.0
 66
     1
 70
     8
  0
VERTEX
  5
10000605
  8
VISIBLE
 10
1.947637686682874
 20
-0.713468030133961
 30
0.125
 70
    32
  0
VERTEX
  5
10000606
  8
VISIBLE
 10
1.945745566457475
 20
-0.7938596316964609
 30
0.125
 70
    32
  0
VERTEX
  5
10000607
  8
VISIBLE
 10
1.943853446232076
 20
-0.8717258426339609
 30
0.125
 70
    32
  0
VERTEX
  5
10000608
  8
VISIBLE
 10
1.941961326006677
 20
-0.944541272321461
 30
0.125
 70
    32
  0
VERTEX
  5
10000609
  8
VISIBLE
 10
1.940069205781278
 20
-1.009780530133961
 30
0.125
 70
    32
  0
VERTEX
  5
1000060A
  8
VISIBLE
 10
1.938650115612229
 20
-1.052218930402516
 30
0.125
 70
    32
  0
VERTEX
  5
1000060B
  8
VISIBLE
 10
1.937231025443179
 20
-1.087909802594899
 30
0.125
 70
    32
  0
VERTEX
  5
1000060C
  8
VISIBLE
 10
1.93581193527413
 20
-1.115787747541188
 30
0.125
 70
    32
  0
VERTEX
  5
1000060D
  8
VISIBLE
 10
1.934392845105081
 20
-1.134787366071461
 30
0.125
 70
    32
  0
VERTEX
  5
1000060E
  8
VISIBLE
 10
1.933598154610413
 20
-1.141151986844899
 30
0.125
 70
    32
  0
VERTEX
  5
1000060F
  8
VISIBLE
 10
1.932973754936031
 20
-1.143843259015797
 30
0.125
 70
    32
  0
VERTEX
  5
10000610
  8
VISIBLE
 10
1.932737239907856
 20
-1.14431101528716
 30
0.125
 70
    32
  0
VERTEX
  5
10000611
  8
VISIBLE
 10
1.932500724879681
 20
-1.144468030133961
 30
0.125
 70
    32
  0
VERTEX
  5
10000612
  8
VISIBLE
 10
1.932264209851507
 20
-1.14431101528716
 30
0.125
 70
    32
  0
VERTEX
  5
10000613
  8
VISIBLE
 10
1.932027694823332
 20
-1.143843259015797
 30
0.125
 70
    32
  0
VERTEX
  5
10000614
  8
VISIBLE
 10
1.931233004328665
 20
-1.140060029404469
 30
0.125
 70
    32
  0
VERTEX
  5
10000615
  8
VISIBLE
 10
1.930608604654282
 20
-1.134787366071461
 30
0.125
 70
    32
  0
VERTEX
  5
10000616
  8
VISIBLE
 10
1.929189514485233
 20
-1.115787747541188
 30
0.125
 70
    32
  0
VERTEX
  5
10000617
  8
VISIBLE
 10
1.927770424316184
 20
-1.087909802594899
 30
0.125
 70
    32
  0
VERTEX
  5
10000618
  8
VISIBLE
 10
1.926351334147135
 20
-1.052218930402516
 30
0.125
 70
    32
  0
VERTEX
  5
10000619
  8
VISIBLE
 10
1.924932243978085
 20
-1.009780530133961
 30
0.125
 70
    32
  0
VERTEX
  5
1000061A
  8
VISIBLE
 10
1.923040123752686
 20
-0.944541272321461
 30
0.125
 70
    32
  0
VERTEX
  5
1000061B
  8
VISIBLE
 10
1.921148003527287
 20
-0.8717258426339609
 30
0.125
 70
    32
  0
VERTEX
  5
1000061C
  8
VISIBLE
 10
1.919255883301888
 20
-0.7938596316964609
 30
0.125
 70
    32
  0
VERTEX
  5
1000061D
  8
VISIBLE
 10
1.917363763076489
 20
-0.713468030133961
 30
0.125
 70
    32
  0
SEQEND
  5
100006AE
  8
VISIBLE
  0
LINE
  5
F5465
  8
VISIBLE
 10
1.917363763076489
 20
-0.713468030133961
 30
0.125
 11
1.887089839470105
 21
-0.713468030133961
 31
0.125
  0
POLYLINE
  5
F5466
  8
VISIBLE
 10
0.0
 20
0.0
 30
0.0
 66
     1
 70
     8
  0
VERTEX
  5
10000622
  8
VISIBLE
 10
1.856815915863721
 20
-0.713468030133961
 30
0.125
 70
    32
  0
VERTEX
  5
10000623
  8
VISIBLE
 10
1.858708036089119
 20
-0.7938596316964609
 30
0.125
 70
    32
  0
VERTEX
  5
10000624
  8
VISIBLE
 10
1.860600156314518
 20
-0.8717258426339609
 30
0.125
 70
    32
  0
VERTEX
  5
10000625
  8
VISIBLE
 10
1.862492276539918
 20
-0.944541272321461
 30
0.125
 70
    32
  0
VERTEX
  5
10000626
  8
VISIBLE
 10
1.864384396765317
 20
-1.009780530133961
 30
0.125
 70
    32
  0
VERTEX
  5
10000627
  8
VISIBLE
 10
1.865803486934366
 20
-1.052218930402516
 30
0.125
 70
    32
  0
VERTEX
  5
10000628
  8
VISIBLE
 10
1.867222577103415
 20
-1.087909802594899
 30
0.125
 70
    32
  0
VERTEX
  5
10000629
  8
VISIBLE
 10
1.868641667272464
 20
-1.115787747541188
 30
0.125
 70
    32
  0
VERTEX
  5
1000062A
  8
VISIBLE
 10
1.870060757441513
 20
-1.134787366071461
 30
0.125
 70
    32
  0
VERTEX
  5
1000062B
  8
VISIBLE
 10
1.870855447936181
 20
-1.141151986844899
 30
0.125
 70
    32
  0
VERTEX
  5
1000062C
  8
VISIBLE
 10
1.871479847610563
 20
-1.143843259015797
 30
0.125
 70
    32
  0
VERTEX
  5
1000062D
  8
VISIBLE
 10
1.871716362638738
 20
-1.14431101528716
 30
0.125
 70
    32
  0
VERTEX
  5
1000062E
  8
VISIBLE
 10
1.871952877666913
 20
-1.144468030133961
 30
0.125
 70
    32
  0
VERTEX
  5
1000062F
  8
VISIBLE
 10
1.872189392695088
 20
-1.14431101528716
 30
0.125
 70
    32
  0
VERTEX
  5
10000630
  8
VISIBLE
 10
1.872425907723262
 20
-1.143843259015797
 30
0.125
 70
    32
  0
VERTEX
  5
10000631
  8
VISIBLE
 10
1.87322059821793
 20
-1.140060029404469
 30
0.125
 70
    32
  0
VERTEX
  5
10000632
  8
VISIBLE
 10
1.873844997892312
 20
-1.134787366071461
 30
0.125
 70
    32
  0
VERTEX
  5
10000633
  8
VISIBLE
 10
1.875264088061361
 20
-1.115787747541188
 30
0.125
 70
    32
  0
VERTEX
  5
10000634
  8
VISIBLE
 10
1.876683178230411
 20
-1.087909802594899
 30
0.125
 70
    32
  0
VERTEX
  5
10000635
  8
VISIBLE
 10
1.87810226839946
 20
-1.052218930402516
 30
0.125
 70
    32
  0
VERTEX
  5
10000636
  8
VISIBLE
 10
1.879521358568509
 20
-1.009780530133961
 30
0.125
 70
    32
  0
VERTEX
  5
10000637
  8
VISIBLE
 10
1.881413478793908
 20
-0.944541272321461
 30
0.125
 70
    32
  0
VERTEX
  5
10000638
  8
VISIBLE
 10
1.883305599019307
 20
-0.8717258426339609
 30
0.125
 70
    32
  0
VERTEX
  5
10000639
  8
VISIBLE
 10
1.885197719244706
 20
-0.7938596316964609
 30
0.125
 70
    32
  0
VERTEX
  5
1000063A
  8
VISIBLE
 10
1.887089839470105
 20
-0.713468030133961
 30
0.125
 70
    32
  0
SEQEND
  5
100006AF
  8
VISIBLE
  0
LINE
  5
F5467
  8
VISIBLE
 10
1.826541992257336
 20
-0.713468030133961
 30
0.125
 11
1.856815915863721
 21
-0.713468030133961
 31
0.125
  0
POLYLINE
  5
F5468
  8
VISIBLE
 10
0.0
 20
0.0
 30
0.0
 66
     1
 70
     8
  0
VERTEX
  5
1000063F
  8
VISIBLE
 10
1.826541992257336
 20
-0.713468030133961
 30
0.125
 70
    32
  0
VERTEX
  5
10000640
  8
VISIBLE
 10
1.824649872031937
 20
-0.7938596316964611
 30
0.125
 70
    32
  0
VERTEX
  5
10000641
  8
VISIBLE
 10
1.822757751806538
 20
-0.8717258426339609
 30
0.125
 70
    32
  0
VERTEX
  5
10000642
  8
VISIBLE
 10
1.820865631581139
 20
-0.9445412723214611
 30
0.125
 70
    32
  0
VERTEX
  5
10000643
  8
VISIBLE
 10
1.81897351135574
 20
-1.009780530133961
 30
0.125
 70
    32
  0
VERTEX
  5
10000644
  8
VISIBLE
 10
1.817554421186691
 20
-1.052218930402516
 30
0.125
 70
    32
  0
VERTEX
  5
10000645
  8
VISIBLE
 10
1.816135331017642
 20
-1.087909802594899
 30
0.125
 70
    32
  0
VERTEX
  5
10000646
  8
VISIBLE
 10
1.814716240848592
 20
-1.115787747541188
 30
0.125
 70
    32
  0
VERTEX
  5
10000647
  8
VISIBLE
 10
1.813297150679543
 20
-1.134787366071461
 30
0.125
 70
    32
  0
VERTEX
  5
10000648
  8
VISIBLE
 10
1.812502460184875
 20
-1.141151986844899
 30
0.125
 70
    32
  0
VERTEX
  5
10000649
  8
VISIBLE
 10
1.811878060510493
 20
-1.143843259015797
 30
0.125
 70
    32
  0
VERTEX
  5
1000064A
  8
VISIBLE
 10
1.811641545482319
 20
-1.14431101528716
 30
0.125
 70
    32
  0
VERTEX
  5
1000064B
  8
VISIBLE
 10
1.811405030454144
 20
-1.144468030133961
 30
0.125
 70
    32
  0
VERTEX
  5
1000064C
  8
VISIBLE
 10
1.811168515425969
 20
-1.14431101528716
 30
0.125
 70
    32
  0
VERTEX
  5
1000064D
  8
VISIBLE
 10
1.810932000397794
 20
-1.143843259015797
 30
0.125
 70
    32
  0
VERTEX
  5
1000064E
  8
VISIBLE
 10
1.810137309903126
 20
-1.140060029404469
 30
0.125
 70
    32
  0
VERTEX
  5
1000064F
  8
VISIBLE
 10
1.809512910228744
 20
-1.134787366071461
 30
0.125
 70
    32
  0
VERTEX
  5
10000650
  8
VISIBLE
 10
1.808093820059695
 20
-1.115787747541188
 30
0.125
 70
    32
  0
VERTEX
  5
10000651
  8
VISIBLE
 10
1.806674729890646
 20
-1.087909802594899
 30
0.125
 70
    32
  0
VERTEX
  5
10000652
  8
VISIBLE
 10
1.805255639721597
 20
-1.052218930402516
 30
0.125
 70
    32
  0
VERTEX
  5
10000653
  8
VISIBLE
 10
1.803836549552547
 20
-1.009780530133961
 30
0.125
 70
    32
  0
VERTEX
  5
10000654
  8
VISIBLE
 10
1.801944429327148
 20
-0.9445412723214609
 30
0.125
 70
    32
  0
VERTEX
  5
10000655
  8
VISIBLE
 10
1.800052309101749
 20
-0.8717258426339609
 30
0.125
 70
    32
  0
VERTEX
  5
10000656
  8
VISIBLE
 10
1.79816018887635
 20
-0.7938596316964609
 30
0.125
 70
    32
  0
VERTEX
  5
10000657
  8
VISIBLE
 10
1.796268068650952
 20
-0.713468030133961
 30
0.125
 70
    32
  0
SEQEND
  5
100006B0
  8
VISIBLE
  0
LINE
  5
F5469
  8
VISIBLE
 10
1.765994145044567
 20
-0.713468030133961
 30
0.125
 11
1.796268068650952
 21
-0.713468030133961
 31
0.125
  0
POLYLINE
  5
F546A
  8
VISIBLE
 10
0.0
 20
0.0
 30
0.0
 66
     1
 70
     8
  0
VERTEX
  5
1000065C
  8
VISIBLE
 10
1.735720221438183
 20
-0.713468030133961
 30
0.125
 70
    32
  0
VERTEX
  5
1000065D
  8
VISIBLE
 10
1.737612341663582
 20
-0.7938596316964609
 30
0.125
 70
    32
  0
VERTEX
  5
1000065E
  8
VISIBLE
 10
1.739504461888981
 20
-0.8717258426339609
 30
0.125
 70
    32
  0
VERTEX
  5
1000065F
  8
VISIBLE
 10
1.74139658211438
 20
-0.9445412723214609
 30
0.125
 70
    32
  0
VERTEX
  5
10000660
  8
VISIBLE
 10
1.743288702339779
 20
-1.009780530133961
 30
0.125
 70
    32
  0
VERTEX
  5
10000661
  8
VISIBLE
 10
1.744707792508828
 20
-1.052218930402516
 30
0.125
 70
    32
  0
VERTEX
  5
10000662
  8
VISIBLE
 10
1.746126882677877
 20
-1.087909802594899
 30
0.125
 70
    32
  0
VERTEX
  5
10000663
  8
VISIBLE
 10
1.747545972846926
 20
-1.115787747541188
 30
0.125
 70
    32
  0
VERTEX
  5
10000664
  8
VISIBLE
 10
1.748965063015976
 20
-1.134787366071461
 30
0.125
 70
    32
  0
VERTEX
  5
10000665
  8
VISIBLE
 10
1.749759753510644
 20
-1.141151986844899
 30
0.125
 70
    32
  0
VERTEX
  5
10000666
  8
VISIBLE
 10
1.750384153185025
 20
-1.143843259015797
 30
0.125
 70
    32
  0
VERTEX
  5
10000667
  8
VISIBLE
 10
1.7506206682132
 20
-1.14431101528716
 30
0.125
 70
    32
  0
VERTEX
  5
10000668
  8
VISIBLE
 10
1.750857183241375
 20
-1.144468030133961
 30
0.125
 70
    32
  0
VERTEX
  5
10000669
  8
VISIBLE
 10
1.75109369826955
 20
-1.14431101528716
 30
0.125
 70
    32
  0
VERTEX
  5
1000066A
  8
VISIBLE
 10
1.751330213297725
 20
-1.143843259015797
 30
0.125
 70
    32
  0
VERTEX
  5
1000066B
  8
VISIBLE
 10
1.752124903792392
 20
-1.140060029404469
 30
0.125
 70
    32
  0
VERTEX
  5
1000066C
  8
VISIBLE
 10
1.752749303466774
 20
-1.134787366071461
 30
0.125
 70
    32
  0
VERTEX
  5
1000066D
  8
VISIBLE
 10
1.754168393635823
 20
-1.115787747541188
 30
0.125
 70
    32
  0
VERTEX
  5
1000066E
  8
VISIBLE
 10
1.755587483804873
 20
-1.087909802594899
 30
0.125
 70
    32
  0
VERTEX
  5
1000066F
  8
VISIBLE
 10
1.757006573973922
 20
-1.052218930402516
 30
0.125
 70
    32
  0
VERTEX
  5
10000670
  8
VISIBLE
 10
1.758425664142971
 20
-1.009780530133961
 30
0.125
 70
    32
  0
VERTEX
  5
10000671
  8
VISIBLE
 10
1.76031778436837
 20
-0.9445412723214611
 30
0.125
 70
    32
  0
VERTEX
  5
10000672
  8
VISIBLE
 10
1.762209904593769
 20
-0.8717258426339609
 30
0.125
 70
    32
  0
VERTEX
  5
10000673
  8
VISIBLE
 10
1.764102024819168
 20
-0.7938596316964611
 30
0.125
 70
    32
  0
VERTEX
  5
10000674
  8
VISIBLE
 10
1.765994145044567
 20
-0.713468030133961
 30
0.125
 70
    32
  0
SEQEND
  5
100006B1
  8
VISIBLE
  0
ENDSEC
  0
EOF
